<svg width="20" height="20" viewBox="0 0 20 20" fill="none" xmlns="http://www.w3.org/2000/svg">
<path fill-rule="evenodd" clip-rule="evenodd" d="M2.88666 2.88666C1.66666 4.10832 1.66666 6.07166 1.66666 9.99999C1.66666 13.9283 1.66666 15.8925 2.88666 17.1125C4.10832 18.3333 6.07166 18.3333 9.99999 18.3333C13.9283 18.3333 15.8925 18.3333 17.1125 17.1125C18.3333 15.8933 18.3333 13.9283 18.3333 9.99999C18.3333 6.07166 18.3333 4.10749 17.1125 2.88666C15.8933 1.66666 13.9283 1.66666 9.99999 1.66666C6.07166 1.66666 4.10749 1.66666 2.88666 2.88666ZM14.6467 8.73332C14.7481 8.60551 14.7955 8.4431 14.7788 8.2808C14.762 8.11849 14.6825 7.96916 14.5572 7.86471C14.4318 7.76025 14.2706 7.70896 14.1079 7.72178C13.9453 7.7346 13.7941 7.81052 13.6867 7.93332L12.1892 9.72999C11.8808 10.1008 11.69 10.3267 11.5342 10.4675C11.4934 10.507 11.4477 10.5412 11.3983 10.5692L11.3951 10.5706C11.3913 10.5723 11.387 10.5723 11.3834 10.5704C11.3828 10.5701 11.3822 10.5699 11.3816 10.5697L11.3814 10.5696C11.3805 10.5693 11.3795 10.5689 11.3787 10.5684C11.3295 10.5406 11.284 10.5067 11.2433 10.4675C11.0875 10.3258 10.8975 10.1008 10.5883 9.72999L10.345 9.43832C10.0717 9.10916 9.82416 8.81332 9.59416 8.60499C9.34332 8.37832 9.02749 8.17666 8.61082 8.17666C8.19416 8.17666 7.87916 8.37832 7.62749 8.60499C7.39749 8.81332 7.15082 9.10916 6.87749 9.43832L5.35249 11.2667C5.29996 11.3297 5.26037 11.4026 5.23599 11.481C5.2116 11.5593 5.20289 11.6418 5.21036 11.7235C5.22544 11.8886 5.30549 12.041 5.43291 12.1471C5.56032 12.2532 5.72466 12.3043 5.88977 12.2892C6.05488 12.2741 6.20724 12.1941 6.31332 12.0667L7.81082 10.27C8.11916 9.89916 8.30999 9.67332 8.46582 9.53249C8.50659 9.49295 8.55223 9.45879 8.60166 9.43082L8.60749 9.42832C8.6096 9.42727 8.61207 9.42722 8.61422 9.4282L8.61999 9.43082C8.6697 9.45873 8.71564 9.4929 8.75666 9.53249C8.91249 9.67416 9.10249 9.89916 9.41166 10.27L9.65499 10.5617C9.92916 10.8908 10.1758 11.1867 10.4058 11.395C10.6567 11.6217 10.9725 11.8233 11.3892 11.8233C11.8058 11.8233 12.1208 11.6217 12.3725 11.395C12.6025 11.1867 12.8492 10.8908 13.1225 10.5617L14.6467 8.73332Z" fill="#072929"/>
</svg>
