<svg width="20" height="20" viewBox="0 0 20 20" fill="none" xmlns="http://www.w3.org/2000/svg">
<path fill-rule="evenodd" clip-rule="evenodd" d="M2.88797 2.88699C1.66797 4.10866 1.66797 6.07199 1.66797 10.0003C1.66797 13.9287 1.66797 15.8928 2.88797 17.1128C4.10964 18.3337 6.07297 18.3337 10.0013 18.3337C13.9296 18.3337 15.8938 18.3337 17.1138 17.1128C18.3346 15.8937 18.3346 13.9287 18.3346 10.0003C18.3346 6.07199 18.3346 4.10783 17.1138 2.88699C15.8946 1.66699 13.9296 1.66699 10.0013 1.66699C6.07297 1.66699 4.1088 1.66699 2.88797 2.88699ZM14.648 8.73366C14.7494 8.60584 14.7968 8.44344 14.7801 8.28113C14.7634 8.11883 14.6838 7.9695 14.5585 7.86504C14.4331 7.76059 14.2719 7.70929 14.1093 7.72211C13.9466 7.73494 13.7954 7.81086 13.688 7.93366L12.1905 9.73032C11.8821 10.1012 11.6913 10.327 11.5355 10.4678C11.4947 10.5074 11.4491 10.5415 11.3996 10.5695L11.3905 10.5737L11.3838 10.5703L11.3813 10.5695C11.3316 10.5416 11.2857 10.5074 11.2446 10.4678C11.0888 10.3262 10.8988 10.1012 10.5896 9.73032L10.3463 9.43866C10.073 9.10949 9.82547 8.81366 9.59547 8.60533C9.34464 8.37866 9.0288 8.17699 8.61214 8.17699C8.19547 8.17699 7.88047 8.37866 7.6288 8.60533C7.3988 8.81366 7.15214 9.10949 6.8788 9.43866L5.3538 11.267C5.30127 11.3301 5.26169 11.4029 5.2373 11.4813C5.21291 11.5597 5.2042 11.6421 5.21167 11.7239C5.22675 11.889 5.3068 12.0413 5.43422 12.1474C5.56163 12.2535 5.72597 12.3046 5.89108 12.2895C6.05619 12.2745 6.20855 12.1944 6.31464 12.067L7.81214 10.2703C8.12047 9.89949 8.3113 9.67366 8.46714 9.53283C8.5079 9.49329 8.55355 9.45912 8.60297 9.43116L8.6088 9.42866L8.61214 9.42699L8.6213 9.43116C8.67102 9.45906 8.71695 9.49323 8.75797 9.53283C8.9138 9.67449 9.1038 9.89949 9.41297 10.2703L9.6563 10.562C9.93047 10.8912 10.1771 11.187 10.4071 11.3953C10.658 11.622 10.9738 11.8237 11.3905 11.8237C11.8071 11.8237 12.1221 11.622 12.3738 11.3953C12.6038 11.187 12.8505 10.8912 13.1238 10.562L14.648 8.73366Z" fill="black"/>
</svg>
