<svg width="20" height="20" viewBox="0 0 20 20" fill="none" xmlns="http://www.w3.org/2000/svg">
<path d="M18.3324 15.1917C18.3324 15.7975 17.9949 16.9642 17.2366 17.605C17.0849 17.7217 16.9332 17.6558 16.9999 17.4858C17.2207 16.9458 17.7257 15.6967 17.4891 15.4092C17.3216 15.1908 16.6299 15.2075 16.0399 15.2575C15.7707 15.2917 15.5341 15.3075 15.3507 15.345C15.1807 15.3583 15.1466 15.2092 15.3166 15.0925C15.538 14.9363 15.7827 14.816 16.0416 14.7358C16.9999 14.4492 18.1074 14.6217 18.2666 14.805C18.2966 14.84 18.3324 14.9392 18.3324 15.1917ZM16.7307 16.2692C16.5116 16.4381 16.2808 16.5913 16.0399 16.7275C14.2716 17.79 11.9807 18.3467 9.99156 18.3467C6.78906 18.3467 3.92489 17.1658 1.75156 15.19C1.56489 15.0383 1.71906 14.8183 1.93739 14.9375C4.27906 16.3042 7.17739 17.1308 10.1774 17.1308C12.0657 17.1308 14.1007 16.7775 16.0399 16.0175C16.1757 15.9667 16.3274 15.8975 16.4599 15.8492C16.7657 15.7117 17.0349 16.0508 16.7307 16.2692ZM11.5891 7.0775C11.5891 6.21 11.6241 5.69917 11.3366 5.26083C11.0816 4.9 10.6424 4.68333 10.0291 4.7175C9.36406 4.75417 8.64989 5.19 8.46823 5.98917C8.43239 6.1725 8.32573 6.3525 8.10406 6.39167L6.07489 6.13333C5.92989 6.1 5.70906 5.98917 5.78156 5.69917C6.21739 3.40667 8.17656 2.6075 10.0299 2.5H10.4649C11.4816 2.5 12.7882 2.79083 13.6241 3.55333C14.6382 4.5 14.5299 5.77167 14.5299 7.15333V10.4258C14.5299 11.4075 14.9282 11.8425 15.3282 12.3542C15.4366 12.5367 15.4741 12.7517 15.2916 12.9C14.7666 13.3681 14.234 13.8276 13.6941 14.2783C13.5482 14.3892 13.2866 14.4008 13.1857 14.3158C12.5441 13.7783 12.3874 13.48 11.9899 12.9342C11.2982 13.66 10.7174 14.0608 10.0266 14.2783C9.5408 14.402 9.04112 14.4625 8.53989 14.4583C6.79823 14.4583 5.41906 13.3725 5.41906 11.225C5.41906 9.5175 6.32739 8.35667 7.66906 7.8075C9.01073 7.2575 10.9607 7.0825 11.5891 7.07917M11.1916 11.4058C11.6249 10.6792 11.5891 10.0842 11.5891 8.75167C11.0457 8.75167 10.5007 8.78917 10.0299 8.9C9.15906 9.1525 8.46739 9.7 8.46739 10.8625C8.46739 11.7708 8.94073 12.3892 9.73906 12.3892C9.84906 12.3892 9.94573 12.3767 10.0291 12.3517C10.5874 12.1967 10.9357 11.9167 11.1916 11.4058Z" fill="#F9F9F6"/>
</svg>
