<svg width="20" height="20" viewBox="0 0 20 20" fill="none" xmlns="http://www.w3.org/2000/svg">
<rect width="20" height="20" rx="4" fill="black"/>
<path d="M17.2254 14.0763C17.2254 14.5942 16.9327 15.5916 16.2752 16.1394C16.1437 16.2391 16.0122 16.1829 16.07 16.0375C16.2614 15.5759 16.6993 14.508 16.4941 14.2622C16.3489 14.0756 15.7491 14.0899 15.2375 14.1326C15.0041 14.1618 14.7989 14.1753 14.6399 14.2074C14.4925 14.2188 14.4629 14.0913 14.6103 13.9915C14.8023 13.858 15.0145 13.7551 15.239 13.6866C16.07 13.4416 17.0303 13.589 17.1683 13.7458C17.1943 13.7757 17.2254 13.8605 17.2254 14.0763ZM15.8366 14.9974C15.6466 15.1419 15.4464 15.2728 15.2375 15.3893C13.7042 16.2976 11.7178 16.7734 9.99292 16.7734C7.21597 16.7734 4.73241 15.764 2.84787 14.0749C2.68601 13.9452 2.81969 13.7572 3.00901 13.859C5.03951 15.0274 7.5527 15.7341 10.1541 15.7341C11.7915 15.7341 13.556 15.432 15.2375 14.7823C15.3553 14.7388 15.4868 14.6797 15.6017 14.6384C15.8669 14.5208 16.1003 14.8108 15.8366 14.9974ZM11.3781 7.13974C11.3781 6.39814 11.4085 5.96144 11.1592 5.58672C10.9381 5.27826 10.5573 5.09303 10.0254 5.12224C9.4488 5.15359 8.82953 5.52617 8.67201 6.20935C8.64094 6.36608 8.54844 6.51996 8.35623 6.55344L6.59671 6.3326C6.47098 6.3041 6.27949 6.20935 6.34235 5.96144C6.72027 4.00165 8.4191 3.31846 10.0262 3.22656H10.4034C11.2849 3.22656 12.418 3.47519 13.1427 4.12703C14.0221 4.93631 13.9282 6.02342 13.9282 7.20457V10.0021C13.9282 10.8413 14.2736 11.2132 14.6204 11.6506C14.7144 11.8066 14.7469 11.9904 14.5886 12.1172C14.1334 12.5174 13.6716 12.9102 13.2034 13.2955C13.077 13.3903 12.8501 13.4003 12.7626 13.3276C12.2062 12.8681 12.0704 12.6131 11.7257 12.1464C11.1259 12.7669 10.6223 13.1096 10.0233 13.2955C9.60205 13.4012 9.16878 13.4529 8.73415 13.4494C7.22392 13.4494 6.02802 12.5212 6.02802 10.6853C6.02802 9.22563 6.81566 8.23326 7.97904 7.7638C9.14242 7.29362 10.8333 7.14401 11.3781 7.14116M11.0335 10.8399C11.4092 10.2187 11.3781 9.71006 11.3781 8.57094C10.907 8.57094 10.4344 8.603 10.0262 8.69774C9.27104 8.9136 8.67129 9.38164 8.67129 10.3754C8.67129 11.1519 9.08172 11.6805 9.77397 11.6805C9.86935 11.6805 9.95317 11.6698 10.0254 11.6485C10.5096 11.516 10.8116 11.2766 11.0335 10.8399Z" fill="white"/>
</svg>
