<svg width="20" height="20" viewBox="0 0 20 20" fill="none" xmlns="http://www.w3.org/2000/svg">
<rect width="20" height="20" rx="4" fill="#072929"/>
<path d="M16.5 11.2493V14.1053C16.5 14.6078 16.2946 15.0897 15.9289 15.445C15.5632 15.8004 15.0672 16 14.55 16H5.45C4.93283 16 4.43684 15.8004 4.07114 15.445C3.70545 15.0897 3.5 14.6078 3.5 14.1053V11.2493L3.85945 11.4242C5.76455 12.3566 7.86802 12.8421 10.0011 12.8419C12.1342 12.8417 14.2376 12.3557 16.1425 11.4229L16.5 11.2493ZM11.3 4C11.8172 4 12.3132 4.19962 12.6789 4.55496C13.0446 4.91029 13.25 5.39222 13.25 5.89474V6.52632H14.55C15.0672 6.52632 15.5632 6.72594 15.9289 7.08127C16.2946 7.4366 16.5 7.91854 16.5 8.42105V9.83705L15.5594 10.2943C13.8766 11.1186 12.022 11.5577 10.1375 11.5781C8.25308 11.5985 6.38883 11.1995 4.68755 10.4118L4.267 10.2097L3.5 9.83705V8.42105C3.5 7.91854 3.70545 7.4366 4.07114 7.08127C4.43684 6.72594 4.93283 6.52632 5.45 6.52632H6.75V5.89474C6.75 5.39222 6.95545 4.91029 7.32114 4.55496C7.68684 4.19962 8.18283 4 8.7 4H11.3ZM10 9.05263C9.82761 9.05263 9.66228 9.11917 9.54038 9.23762C9.41848 9.35606 9.35 9.51671 9.35 9.68421C9.34957 9.76715 9.36596 9.84936 9.39823 9.92615C9.43051 10.0029 9.47803 10.0728 9.53808 10.1317C9.59814 10.1907 9.66955 10.2375 9.74825 10.2697C9.82695 10.3018 9.91139 10.3185 9.99675 10.3189C10.0821 10.3194 10.1667 10.3034 10.2457 10.2721C10.3248 10.2407 10.3967 10.1945 10.4573 10.1362C10.518 10.0778 10.5662 10.0084 10.5993 9.93198C10.6323 9.85551 10.6496 9.77347 10.65 9.69053C10.65 9.33558 10.3588 9.05263 10 9.05263ZM11.3 5.26316H8.7C8.52761 5.26316 8.36228 5.3297 8.24038 5.44814C8.11848 5.56659 8.05 5.72723 8.05 5.89474V6.52632H11.95V5.89474C11.95 5.72723 11.8815 5.56659 11.7596 5.44814C11.6377 5.3297 11.4724 5.26316 11.3 5.26316Z" fill="#F9F9F6"/>
</svg>
