<svg width="20" height="20" viewBox="0 0 20 20" fill="none" xmlns="http://www.w3.org/2000/svg">
<path d="M17.4088 4.29216V12.7689C17.4092 12.9946 17.3579 13.2174 17.2591 13.4203C17.1602 13.6232 17.0163 13.8009 16.8383 13.9397C16.5763 14.1395 16.2564 14.2488 15.9269 14.2509C15.807 14.2505 15.6875 14.2356 15.5712 14.2064L8.51712 12.4429L7.68722 12.2354H6.29419C5.32435 12.2353 4.39323 11.8549 3.70077 11.1758C3.17541 10.6607 2.81534 10.0007 2.66647 9.28015C2.5176 8.55956 2.58666 7.81097 2.86486 7.12978C3.14305 6.4486 3.61778 5.86568 4.22853 5.45533C4.83928 5.04497 5.55839 4.82577 6.29419 4.82566H7.68722L15.5712 2.85467C15.7888 2.80034 16.0159 2.79613 16.2354 2.84234C16.4549 2.88854 16.661 2.98397 16.8383 3.12142C17.0163 3.26023 17.1602 3.43786 17.2591 3.64075C17.3579 3.84365 17.4092 4.06645 17.4088 4.29216Z" fill="white"/>
<path d="M8.51593 13.2063V15.9405C8.51593 16.3336 8.3598 16.7105 8.08188 16.9884C7.80396 17.2663 7.42702 17.4225 7.03398 17.4225H6.15962C5.81188 17.4291 5.47287 17.3133 5.20195 17.0952C4.93102 16.8771 4.74543 16.5706 4.67767 16.2295L3.92188 12.2949C4.31799 12.5484 4.75379 12.7338 5.21117 12.8432C5.56481 12.9327 5.92824 12.9775 6.293 12.9766H7.59712L8.51593 13.2063Z" fill="white"/>
</svg>
