<svg width="20" height="20" viewBox="0 0 20 20" fill="none" xmlns="http://www.w3.org/2000/svg">
<rect width="20" height="20" rx="3" fill="black"/>
<path d="M12.0141 8.67808C12.8032 9.47133 13.447 10.7698 13.0783 11.5373C12.0919 13.5986 4.73296 17.212 4.1066 16.5877C3.48232 15.9634 7.09814 8.59984 9.157 7.6114C9.92653 7.24515 11.2229 7.89524 12.0162 8.67808L12.0141 8.68682V8.67808ZM15.9134 7.81117C15.7856 7.3363 15.458 6.85727 14.9703 6.80108C14.0771 6.69704 12.6663 8.27729 12.7657 8.65228C12.8677 9.036 14.8575 9.69274 15.5966 9.16169C15.9804 8.88659 16.0303 8.29477 15.9046 7.82199L15.9134 7.81117ZM13.1432 3.42791C13.8087 3.6077 14.4808 4.06509 14.5608 4.75013C14.7039 6.00534 12.4886 7.97972 11.9617 7.83905C11.4373 7.69796 10.5092 4.9062 11.2592 3.86365C11.645 3.32386 12.4794 3.25019 13.1449 3.42583V3.42791H13.1432Z" fill="white"/>
</svg>
