<svg width="20" height="20" viewBox="0 0 20 20" fill="none" xmlns="http://www.w3.org/2000/svg">
<path d="M16.1248 12.3992L14.9835 10.7066C14.9413 10.644 14.9258 10.5671 14.9405 10.493C14.9552 10.4189 14.9989 10.3538 15.0619 10.3121C15.5846 9.96195 15.9125 9.33545 15.9125 8.6128C15.9125 7.3754 14.8772 6.39648 13.6016 6.39648H10.8594C10.8096 6.39648 10.7619 6.41628 10.7267 6.45152C10.6915 6.48675 10.6718 6.53452 10.6719 6.58431V7.78383C10.6716 7.83325 10.7101 7.87423 10.7594 7.87711C11.6874 7.92709 12.4326 8.72709 12.4326 9.63979C12.4326 10.5611 11.6794 11.3439 10.7594 11.3936C10.7101 11.3964 10.6716 11.4374 10.6719 11.4868V12.6504C10.6719 12.7539 10.7558 12.8379 10.8594 12.8379H12.4527C12.5563 12.8379 12.6402 12.7539 12.6402 12.6504V12.0898C12.6402 11.6902 12.9853 11.5935 13.2492 11.9067L13.9177 12.7437C13.9778 12.8044 14.0596 12.8388 14.145 12.8392H15.8908C15.9954 12.8397 16.0917 12.7822 16.1408 12.6899C16.1899 12.5976 16.1837 12.4856 16.1248 12.3992Z" fill="#F9F9F6"/>
<path d="M7.35215 6.30078C8.3543 6.30078 9.2514 6.72864 9.89254 7.41085C9.92734 7.44861 9.94515 7.49897 9.94184 7.55021C9.93853 7.60145 9.91439 7.64911 9.87504 7.68208L8.9652 8.44452C8.89105 8.50574 8.78264 8.50107 8.71403 8.4337C8.3505 8.07692 7.86245 7.87553 7.3531 7.87213C6.38247 7.87213 5.59679 8.61165 5.59679 9.61889C5.59679 10.6261 6.38247 11.3567 7.3531 11.3567C7.86242 11.3532 8.35042 11.1518 8.71403 10.7952C8.78256 10.7277 8.89097 10.7229 8.9652 10.784L9.87567 11.5465C9.91516 11.5794 9.93942 11.627 9.94279 11.6783C9.94616 11.7295 9.92834 11.7799 9.8935 11.8177C9.25235 12.4999 8.35525 12.9278 7.3531 12.9278C5.4112 12.9278 3.83984 11.5322 3.83984 9.61889C3.83984 7.70564 5.4112 6.30078 7.35215 6.30078Z" fill="#F9F9F6"/>
</svg>
