<svg width="20" height="20" viewBox="0 0 20 20" fill="none" xmlns="http://www.w3.org/2000/svg">
<path fill-rule="evenodd" clip-rule="evenodd" d="M5.73 12.6032C6.2225 13.4105 6.93375 14.0616 7.78126 14.481C8.62878 14.9004 9.57784 15.071 10.5184 14.973C11.4589 14.8749 12.3524 14.5122 13.0951 13.927C13.8379 13.3418 14.3996 12.558 14.715 11.6665H16.4567C16.1371 12.9018 15.4698 14.0195 14.5341 14.8869C13.5984 15.7544 12.4335 16.3352 11.1776 16.5605C9.92171 16.7858 8.62754 16.6461 7.44867 16.1579C6.26979 15.6698 5.25568 14.8537 4.52667 13.8065L2.5 15.8332V10.8332H7.5L5.73 12.6032ZM14.2708 7.3957C13.7781 6.58834 13.0666 5.93719 12.2188 5.51775C11.371 5.09831 10.4217 4.92777 9.48099 5.0259C8.54024 5.12403 7.64658 5.48682 6.90362 6.07218C6.16067 6.65755 5.59885 7.44153 5.28333 8.3332H3.54167C3.86113 7.09746 4.52842 5.9793 5.46433 5.11143C6.40024 4.24356 7.56548 3.66241 8.82179 3.43694C10.0781 3.21147 11.3727 3.35115 12.552 3.83941C13.7313 4.32767 14.7458 5.144 15.475 6.19154L17.5 4.16654V9.16654H12.5L14.2708 7.3957Z" fill="white"/>
</svg>
