<svg width="12" height="12" viewBox="0 0 12 12" fill="none" xmlns="http://www.w3.org/2000/svg">
<path d="M0.642894 3.26268C1.14583 2.28183 1.91709 1.45729 2.87054 0.88114C3.82399 0.304994 4.9221 -7.48978e-05 6.04223 1.37929e-08C7.67061 1.37929e-08 9.03857 0.586809 10.0845 1.54252L8.35218 3.24077C7.7256 2.65397 6.92923 2.35494 6.04223 2.35494C4.46823 2.35494 3.13592 3.3971 2.6616 4.79632C2.54076 5.15161 2.47188 5.53057 2.47188 5.92139C2.47188 6.3122 2.54076 6.69117 2.6616 7.04645C3.13652 8.44627 4.46823 9.48784 6.04223 9.48784C6.85491 9.48784 7.54675 9.27763 8.08813 8.92235C8.40199 8.71984 8.67068 8.45706 8.87797 8.1499C9.08526 7.84274 9.22685 7.49757 9.29416 7.13527H6.04223V4.84488H11.7328C11.8041 5.23214 11.8428 5.63598 11.8428 6.0558C11.8428 7.85946 11.1842 9.3777 10.041 10.408C9.04159 11.3128 7.67363 11.8428 6.04223 11.8428C5.24867 11.8431 4.46281 11.6901 3.72959 11.3927C2.99637 11.0952 2.33016 10.659 1.76902 10.1091C1.20788 9.55922 0.762829 8.90633 0.459291 8.18777C0.155753 7.46922 -0.000317133 6.69908 4.8381e-07 5.92139C4.8381e-07 4.96567 0.233231 4.06207 0.642894 3.26268Z" fill="#F9F9F6"/>
</svg>
