<svg width="20" height="20" viewBox="0 0 20 20" fill="none" xmlns="http://www.w3.org/2000/svg">
<path d="M12.0141 8.67906C12.8032 9.4723 13.447 10.7708 13.0783 11.5382C12.0919 13.5996 4.73296 17.2129 4.1066 16.5887C3.48232 15.9644 7.09814 8.60081 9.157 7.61237C9.92653 7.24613 11.2229 7.89621 12.0162 8.67906L12.0141 8.6878V8.67906ZM15.9134 7.81214C15.7856 7.33728 15.458 6.85825 14.9703 6.80206C14.0771 6.69802 12.6663 8.27827 12.7657 8.65325C12.8677 9.03697 14.8575 9.69371 15.5966 9.16266C15.9804 8.88756 16.0303 8.29575 15.9046 7.82296L15.9134 7.81214ZM13.1432 3.42888C13.8087 3.60867 14.4808 4.06606 14.5608 4.7511C14.7039 6.00632 12.4886 7.9807 11.9617 7.84003C11.4373 7.69894 10.5092 4.90717 11.2592 3.86463C11.645 3.32484 12.4794 3.25117 13.1449 3.4268V3.42888H13.1432Z" fill="#F9F9F6"/>
</svg>
