<svg width="20" height="20" viewBox="0 0 20 20" fill="none" xmlns="http://www.w3.org/2000/svg">
<rect width="20" height="20" rx="4" fill="#072929"/>
<path d="M6.1 6.1L7.3 7.3M11.8 6.4L11.2 7M13 12.85L11.2 10.6M7 12.1L8.2 10.9M5.2 6.4C5.51826 6.4 5.82348 6.27357 6.04853 6.04853C6.27357 5.82348 6.4 5.51826 6.4 5.2C6.4 4.88174 6.27357 4.57652 6.04853 4.35147C5.82348 4.12643 5.51826 4 5.2 4C4.88174 4 4.57652 4.12643 4.35147 4.35147C4.12643 4.57652 4 4.88174 4 5.2C4 5.51826 4.12643 5.82348 4.35147 6.04853C4.57652 6.27357 4.88174 6.4 5.2 6.4ZM5.8 15.4C6.27739 15.4 6.73523 15.2104 7.07279 14.8728C7.41036 14.5352 7.6 14.0774 7.6 13.6C7.6 13.1226 7.41036 12.6648 7.07279 12.3272C6.73523 11.9896 6.27739 11.8 5.8 11.8C5.32261 11.8 4.86477 11.9896 4.52721 12.3272C4.18964 12.6648 4 13.1226 4 13.6C4 14.0774 4.18964 14.5352 4.52721 14.8728C4.86477 15.2104 5.32261 15.4 5.8 15.4ZM14.2 16C14.6774 16 15.1352 15.8104 15.4728 15.4728C15.8104 15.1352 16 14.6774 16 14.2C16 13.7226 15.8104 13.2648 15.4728 12.9272C15.1352 12.5896 14.6774 12.4 14.2 12.4C13.7226 12.4 13.2648 12.5896 12.9272 12.9272C12.5896 13.2648 12.4 13.7226 12.4 14.2C12.4 14.6774 12.5896 15.1352 12.9272 15.4728C13.2648 15.8104 13.7226 16 14.2 16ZM9.4 11.2C10.0365 11.2 10.647 10.9471 11.0971 10.4971C11.5471 10.047 11.8 9.43652 11.8 8.8C11.8 8.16348 11.5471 7.55303 11.0971 7.10294C10.647 6.65286 10.0365 6.4 9.4 6.4C8.76348 6.4 8.15303 6.65286 7.70294 7.10294C7.25286 7.55303 7 8.16348 7 8.8C7 9.43652 7.25286 10.047 7.70294 10.4971C8.15303 10.9471 8.76348 11.2 9.4 11.2ZM13 6.4C13.3183 6.4 13.6235 6.27357 13.8485 6.04853C14.0736 5.82348 14.2 5.51826 14.2 5.2C14.2 4.88174 14.0736 4.57652 13.8485 4.35147C13.6235 4.12643 13.3183 4 13 4C12.6817 4 12.3765 4.12643 12.1515 4.35147C11.9264 4.57652 11.8 4.88174 11.8 5.2C11.8 5.51826 11.9264 5.82348 12.1515 6.04853C12.3765 6.27357 12.6817 6.4 13 6.4Z" stroke="#F9F9F6" stroke-width="1.5" stroke-linecap="round" stroke-linejoin="round"/>
</svg>
