<svg width="20" height="20" viewBox="0 0 20 20" fill="none" xmlns="http://www.w3.org/2000/svg">
<path d="M15.9236 18L14.4272 16.49L16.4706 14.428L18 15.9712L15.9236 18Z" fill="#F9F9F6"/>
<path d="M13.8442 14.6857L14.6824 13.8398L13.645 12.793L12.8067 13.6388L13.8442 14.6857Z" fill="#F9F9F6"/>
<path d="M14.4272 16.4908L16.4706 14.4289L15.2849 13.2325L13.2416 15.2944L14.4272 16.4908Z" fill="#F9F9F6"/>
<path fill-rule="evenodd" clip-rule="evenodd" d="M9.37255 2C12.892 2 15.7453 4.87895 15.7454 8.43034C15.7454 11.9818 12.8921 14.861 9.37255 14.861C5.85307 14.8609 3 11.9818 3 8.43034C3.00009 4.879 5.85312 2.00009 9.37255 2ZM9.34384 3.33333C6.51601 3.33333 4.2236 5.64653 4.2236 8.5C4.2236 11.3535 6.51601 13.6667 9.34384 13.6667C12.1717 13.6667 14.4641 11.3535 14.4641 8.5C14.4641 5.64653 12.1717 3.33333 9.34384 3.33333Z" fill="#F9F9F6"/>
<path d="M6.20563 10.2669L7.70491 6.33333H8.22882L9.7281 10.2669H9.1819L8.77503 9.13112H7.1587L6.75184 10.2669H6.20563ZM7.31476 8.6879H8.61897L8.06719 7.15328C8.03375 7.06464 8.00588 6.97045 7.97244 6.85411H7.96129C7.92785 6.97045 7.89998 7.06464 7.86654 7.15328L7.31476 8.6879Z" fill="#F9F9F6"/>
<path d="M11.0051 10.3333C10.4366 10.3333 10.0631 10.012 10.0631 9.51893C10.0631 9.24192 10.2025 9.00369 10.4533 8.86519C10.6651 8.75993 10.9326 8.69344 11.3896 8.63804L11.908 8.5771V8.53278C11.908 8.02308 11.724 7.8181 11.2949 7.8181C10.9159 7.8181 10.6818 8.01754 10.6595 8.36657H10.1523C10.1913 7.80148 10.6372 7.43029 11.2893 7.43029C12.0529 7.43029 12.3873 7.77378 12.3873 8.58264V9.33056C12.3873 9.75716 12.4152 10.0508 12.482 10.2669H11.986C11.9637 10.1228 11.947 9.93998 11.9414 9.7627C11.8132 10.1173 11.4621 10.3333 11.0051 10.3333ZM10.5647 9.50785C10.5647 9.77932 10.771 9.94552 11.111 9.94552C11.5958 9.94552 11.9135 9.59649 11.9135 9.0591V8.92059L11.1555 9.0314C10.7431 9.09234 10.5647 9.23638 10.5647 9.50785Z" fill="#F9F9F6"/>
</svg>
