<svg width="20" height="20" viewBox="0 0 20 20" fill="none" xmlns="http://www.w3.org/2000/svg">
<rect width="20" height="20" rx="3" fill="black"/>
<path fill-rule="evenodd" clip-rule="evenodd" d="M7.59238 5.89911C6.61042 5.83139 5.82855 6.40148 5.28186 7.11748C4.73208 7.83779 4.34484 8.79204 4.1306 9.74506C3.91758 10.6975 3.86402 11.7084 4.03579 12.5549C4.20324 13.3774 4.62927 14.2233 5.52565 14.4911C6.38079 14.7466 7.14788 14.3833 7.73398 13.8902C8.32131 13.3965 8.82983 12.6922 9.23985 12.0119C9.56122 11.4781 9.8358 10.9345 10.0513 10.4703C10.2667 10.9339 10.5413 11.4781 10.8621 12.0119C11.2721 12.6922 11.7806 13.3965 12.368 13.8902C12.954 14.3833 13.7211 14.7466 14.5763 14.4911C15.4727 14.2233 15.8987 13.3774 16.0661 12.5549C16.2385 11.7084 16.1843 10.6975 15.9713 9.74506C15.7571 8.79204 15.3698 7.83717 14.8201 7.11748C14.274 6.40148 13.4921 5.83078 12.5102 5.89911C11.4426 5.97299 10.6817 6.8035 10.2403 7.43084C10.1749 7.52466 10.1118 7.62011 10.0513 7.71712C9.99074 7.61995 9.92751 7.52449 9.86165 7.43084C9.42024 6.80288 8.65991 5.97361 7.59238 5.89911ZM9.34697 8.99274C9.17275 9.43293 8.7498 10.4383 8.18463 11.3771C7.80231 12.0125 7.37629 12.5826 6.94103 12.9483C6.50576 13.314 6.16408 13.3965 5.87903 13.3115C5.63524 13.2389 5.37605 12.9667 5.24246 12.3098C5.1144 11.6776 5.1458 10.8477 5.33234 10.0147C5.5195 9.18174 5.84825 8.40541 6.26074 7.86426C6.6763 7.31941 7.10356 7.09963 7.5068 7.12794C7.97839 7.16057 8.44874 7.56198 8.85384 8.13884C9.0804 8.46082 9.2497 8.7865 9.34636 8.99212L9.34697 8.99274ZM10.7556 8.99274C10.9292 9.43293 11.3528 10.4383 11.9173 11.3771C12.3002 12.0125 12.7263 12.5826 13.1609 12.9483C13.5968 13.3146 13.9379 13.3965 14.2235 13.3115C14.4667 13.2389 14.7259 12.9667 14.8595 12.3098C14.9881 11.6776 14.9567 10.8477 14.7696 10.0147C14.5824 9.18174 14.2543 8.40541 13.8412 7.86426C13.4256 7.31941 12.999 7.09963 12.5951 7.12794C12.1235 7.16057 11.6532 7.56198 11.2481 8.13884C11.0605 8.40906 10.8957 8.69448 10.7556 8.99212V8.99274Z" fill="white"/>
</svg>
