<svg width="20" height="20" viewBox="0 0 20 20" fill="none" xmlns="http://www.w3.org/2000/svg">
<path d="M9.87472 1.87495C5.52394 1.94135 1.96769 5.47573 1.87316 9.82885C1.84006 11.293 2.20513 12.7387 2.92941 14.0117C2.95786 14.0614 2.99945 14.1024 3.04962 14.1301C3.09979 14.1578 3.15662 14.1712 3.21389 14.1688C3.27115 14.1664 3.32665 14.1482 3.37431 14.1164C3.42197 14.0845 3.45995 14.0402 3.4841 13.9882C4.07086 12.742 4.37422 11.3813 4.37238 10.0039C4.371 9.16016 4.56003 8.32703 4.92539 7.56655C5.29075 6.80607 5.82302 6.13784 6.48254 5.61166C6.54722 5.56109 6.62124 5.52374 6.70036 5.50177C6.77947 5.47979 6.86215 5.47362 6.94365 5.48359C7.02516 5.49357 7.1039 5.5195 7.17538 5.5599C7.24687 5.60031 7.30969 5.6544 7.36027 5.71909C7.41085 5.78377 7.44819 5.85779 7.47017 5.93691C7.49214 6.01602 7.49832 6.0987 7.48834 6.1802C7.47837 6.26171 7.45244 6.34045 7.41203 6.41193C7.37162 6.48342 7.31753 6.54624 7.25285 6.59682C6.743 7.00642 6.33181 7.52544 6.04971 8.11547C5.76761 8.7055 5.62183 9.35142 5.62316 10.0054C5.62514 11.8817 5.12764 13.7248 4.18175 15.3453C4.14669 15.4048 4.13235 15.4743 4.14097 15.5428C4.14959 15.6114 4.18069 15.6752 4.22941 15.7242C4.38566 15.8804 4.54894 16.0367 4.71769 16.1789C4.75228 16.2079 4.79275 16.2291 4.83632 16.241C4.87989 16.2529 4.92552 16.2553 4.97007 16.2478C5.01463 16.2404 5.05704 16.2234 5.09439 16.198C5.13175 16.1726 5.16315 16.1394 5.18644 16.1007C5.87804 14.9525 6.36917 13.695 6.63879 12.382C6.67183 12.2195 6.76806 12.0769 6.90629 11.9854C7.04453 11.8939 7.21345 11.861 7.3759 11.8941C7.53834 11.9271 7.681 12.0234 7.7725 12.1616C7.864 12.2998 7.89683 12.4688 7.86379 12.6312C7.56162 14.1128 7.00466 15.5307 6.21769 16.8218C6.1955 16.8585 6.1811 16.8994 6.17539 16.9419C6.16968 16.9844 6.17279 17.0277 6.18452 17.0689C6.19624 17.1102 6.21634 17.1486 6.24355 17.1818C6.27076 17.2149 6.30451 17.2421 6.34269 17.2617C6.53566 17.3593 6.73332 17.4499 6.9341 17.5328C7.00343 17.5625 7.08116 17.5661 7.15295 17.543C7.22474 17.5199 7.28575 17.4716 7.32472 17.407C8.66692 15.1776 9.37518 12.6241 9.37316 10.0218C9.37155 9.86138 9.4305 9.70624 9.53824 9.58735C9.64598 9.46846 9.79459 9.39456 9.95441 9.38041C10.0401 9.3744 10.1261 9.38611 10.207 9.41482C10.288 9.44353 10.3622 9.48861 10.4249 9.54726C10.4877 9.6059 10.5377 9.67685 10.5718 9.75568C10.6059 9.83451 10.6234 9.91952 10.6232 10.0054C10.6263 12.6624 9.94816 15.2758 8.65363 17.596C8.62871 17.6405 8.61503 17.6903 8.61379 17.7413C8.61255 17.7922 8.62378 17.8427 8.6465 17.8883C8.66922 17.9339 8.70275 17.9732 8.74416 18.0029C8.78557 18.0326 8.83361 18.0517 8.8841 18.0585C9.12108 18.0914 9.36092 18.1137 9.60363 18.1257C9.66198 18.1279 9.71976 18.1137 9.77044 18.0847C9.82112 18.0557 9.86266 18.0131 9.89035 17.9617C11.1896 15.5312 11.8706 12.8183 11.8732 10.0624C11.8771 9.02729 11.0685 8.14916 10.0341 8.12963C9.78526 8.12486 9.53795 8.16968 9.30661 8.26148C9.07527 8.35327 8.86452 8.49021 8.68665 8.6643C8.50878 8.83839 8.36735 9.04615 8.2706 9.27546C8.17386 9.50478 8.12374 9.75106 8.12316 9.99995C8.12202 10.156 8.06323 10.3062 7.95811 10.4215C7.85298 10.5369 7.70893 10.6093 7.55363 10.6249C7.46701 10.6327 7.37974 10.6222 7.29739 10.5943C7.21503 10.5664 7.13942 10.5215 7.07537 10.4627C7.01133 10.4039 6.96026 10.3323 6.92544 10.2527C6.89062 10.173 6.87282 10.0869 6.87316 9.99995C6.87314 9.58679 6.95504 9.17773 7.11414 8.79643C7.27323 8.41514 7.50636 8.06917 7.80002 7.77855C8.09369 7.48794 8.44207 7.25844 8.82501 7.10334C9.20795 6.94824 9.61784 6.87061 10.031 6.87495C11.7497 6.89291 13.131 8.3726 13.1224 10.0906C13.1147 12.6388 12.5684 15.1566 11.5193 17.4789C11.4954 17.5323 11.4871 17.5915 11.4952 17.6494C11.5033 17.7074 11.5276 17.762 11.5652 17.8069C11.6028 17.8517 11.6523 17.8851 11.708 17.9033C11.7637 17.9214 11.8234 17.9235 11.8802 17.9093C12.1512 17.845 12.4188 17.7668 12.6818 17.6749C12.7227 17.6604 12.7602 17.6375 12.7919 17.6076C12.8235 17.5777 12.8485 17.5416 12.8653 17.5015C13.2291 16.6393 13.5289 15.7515 13.7622 14.8453C13.7827 14.7657 13.8187 14.6911 13.8681 14.6255C13.9175 14.5598 13.9793 14.5046 14.05 14.4629C14.1208 14.4212 14.199 14.3938 14.2803 14.3823C14.3617 14.3709 14.4444 14.3755 14.5239 14.396C14.6035 14.4166 14.6781 14.4525 14.7438 14.5019C14.8094 14.5513 14.8646 14.6131 14.9063 14.6839C14.948 14.7546 14.9754 14.8329 14.9869 14.9142C14.9983 14.9955 14.9937 15.0782 14.9732 15.1578C14.9148 15.3854 14.8523 15.6119 14.7857 15.8374C14.766 15.9024 14.7681 15.9719 14.7915 16.0356C14.8149 16.0993 14.8583 16.1536 14.9153 16.1904C14.9723 16.2272 15.0397 16.2444 15.1074 16.2395C15.175 16.2346 15.2393 16.2078 15.2903 16.1632C16.5573 15.0753 17.4582 13.6234 17.8706 12.0051C18.2829 10.3869 18.1866 8.6809 17.5947 7.11935C17.0028 5.5578 15.9442 4.21655 14.5628 3.27815C13.1814 2.33975 11.5445 1.84979 9.87472 1.87495ZM15.4669 12.5843C15.4479 12.7351 15.3746 12.8738 15.2607 12.9745C15.1468 13.0752 15.0002 13.1309 14.8482 13.1312C14.822 13.1313 14.796 13.1297 14.77 13.1265C14.6886 13.1164 14.6099 13.0903 14.5385 13.0497C14.4671 13.0092 14.4044 12.9549 14.354 12.8902C14.3036 12.8254 14.2664 12.7513 14.2447 12.6721C14.2229 12.593 14.2169 12.5103 14.2271 12.4289C14.3266 11.6254 14.3767 10.8166 14.3771 10.007C14.3754 8.84716 13.9139 7.73532 13.0938 6.91521C12.2737 6.0951 11.1619 5.63363 10.0021 5.63198C9.81926 5.63194 9.63662 5.64316 9.45519 5.66557C9.29057 5.68629 9.12446 5.64077 8.99341 5.53901C8.86235 5.43726 8.77708 5.28761 8.75636 5.12299C8.73564 4.95837 8.78117 4.79226 8.88292 4.66121C8.98467 4.53015 9.13432 4.44488 9.29894 4.42416C10.0909 4.32566 10.8947 4.39654 11.6571 4.63213C12.4196 4.86772 13.1233 5.26263 13.7216 5.7907C14.3199 6.31878 14.7992 6.96796 15.1277 7.69524C15.4562 8.42252 15.6264 9.21129 15.6271 10.0093C15.6269 10.8701 15.5734 11.7301 15.4669 12.5843Z" fill="black"/>
</svg>
