<svg width="16" height="17" viewBox="0 0 16 17" fill="none" xmlns="http://www.w3.org/2000/svg">
<path d="M0.568182 15.6244H1.74433C1.62785 15.4653 1.56251 15.2664 1.56251 15.0562V4.82892C1.56251 4.61871 1.62785 4.41983 1.74433 4.26074H0.568182C0.255673 4.26074 0 4.51641 0 4.82892V15.0562C0 15.3687 0.255673 15.6244 0.568182 15.6244Z" fill="black"/>
<path d="M2.55641 15.6249H11.3633C11.6758 15.6249 11.9315 15.3692 11.9315 15.0567V15.0027C11.6758 14.997 11.4315 14.8948 11.2497 14.7129C11.1559 14.6192 11.0849 14.5112 11.0366 14.3976C10.69 14.5027 10.3235 14.5595 9.94286 14.5595C7.86614 14.5595 6.17868 12.872 6.17868 10.7953C6.17868 8.71864 7.86617 7.03115 9.94286 7.03115C10.673 7.03115 11.3548 7.24136 11.9316 7.59933V4.82951C11.9316 4.517 11.6759 4.26133 11.3634 4.26133H10.5111V3.69315C10.5111 2.00138 9.15886 0.622782 7.47914 0.573145C6.9699 0.213764 6.35059 0 5.68155 0C3.95854 0 2.55646 1.40198 2.55646 3.12509V4.26145C2.24395 4.26145 1.98828 4.51713 1.98828 4.82964V15.0569C1.98828 15.3694 2.24395 15.6251 2.55646 15.6251L2.55641 15.6249ZM4.82914 4.26123V3.69305C4.82914 2.31521 5.92572 1.19159 7.2915 1.14123C7.86821 1.61068 8.23823 2.32517 8.23823 3.12487V4.26123H4.82914ZM9.94277 3.69305V4.26123H8.80641V3.12487C8.80641 2.42885 8.57488 1.7875 8.18852 1.26687C9.20628 1.60423 9.94277 2.56374 9.94277 3.69305ZM3.12459 3.12487C3.12459 1.71507 4.27161 0.568138 5.68132 0.568138C5.96328 0.568138 6.23459 0.615724 6.48884 0.700951C5.20192 1.08731 4.26085 2.28191 4.26085 3.69313V4.26131H3.12448L3.12459 3.12487Z" fill="black"/>
<path d="M12.5002 10.795C12.5002 12.2069 11.3553 13.3517 9.94345 13.3517C8.53161 13.3517 7.38672 12.2068 7.38672 10.795C7.38672 9.38317 8.53161 8.23828 9.94345 8.23828C11.3553 8.23828 12.5002 9.38317 12.5002 10.795Z" fill="black"/>
<path d="M6.60547 10.7948C6.60547 12.6357 8.10334 14.1328 9.94347 14.1328C10.4804 14.1328 10.9861 14.0029 11.4356 13.7763C11.3419 13.9851 11.3788 14.2387 11.5507 14.4105C11.7723 14.6321 12.1324 14.6321 12.354 14.4105V14.4098L13.9598 16.0156C14.2922 16.3509 14.832 16.3509 15.1643 16.0156C15.4996 15.6833 15.4996 15.1435 15.1643 14.8111L13.5585 13.2053L13.5592 13.2046C13.7808 12.983 13.7808 12.6229 13.5592 12.4013C13.3874 12.2294 13.1338 12.1925 12.925 12.2862C13.1509 11.8367 13.2815 11.331 13.2815 10.7941C13.2815 8.95315 11.7837 7.45605 9.94353 7.45605C8.1034 7.45605 6.60553 8.95322 6.60553 10.7941L6.60547 10.7948ZM12.8555 10.7948C12.8555 11.292 12.7298 11.76 12.5096 12.1691C12.4499 12.2806 12.381 12.3864 12.3072 12.4887C12.2887 12.5143 12.2695 12.5391 12.2504 12.5647C12.1744 12.6634 12.0941 12.7593 12.006 12.8474L11.9961 12.8573C11.908 12.9454 11.8121 13.0256 11.7134 13.1017C11.6886 13.1208 11.6637 13.14 11.6381 13.1578C11.5359 13.2316 11.43 13.3005 11.3185 13.3602C10.9087 13.5803 10.4407 13.706 9.94353 13.706C8.33772 13.706 7.03153 12.3999 7.03153 10.794C7.03153 9.18823 8.33764 7.88205 9.94353 7.88205C11.5494 7.88205 12.8555 9.18816 12.8555 10.794L12.8555 10.7948Z" fill="black"/>
</svg>
