<svg width="20" height="20" viewBox="0 0 20 20" fill="none" xmlns="http://www.w3.org/2000/svg">
<rect width="20" height="20" rx="4" fill="#F9F9F6"/>
<path d="M6.1 12.6667H8.7M11.3 7.33333H13.9M11.3 10H13.9M11.3 12.6667H13.9M3.5 10C3.5 7.17133 3.5 5.75733 4.4516 4.87867C5.4045 4 6.9359 4 10 4C13.0641 4 14.5961 4 15.5477 4.87867C16.4993 5.75733 16.5 7.172 16.5 10C16.5 12.828 16.5 14.2427 15.5477 15.1213C14.5968 16 13.0641 16 10 16C6.9359 16 5.40385 16 4.4516 15.1213C3.49935 14.2427 3.5 12.828 3.5 10ZM7.66 7.33333H7.14C6.6499 7.33333 6.40485 7.33333 6.2521 7.48933C6.1 7.64667 6.1 7.89733 6.1 8.4V8.93333C6.1 9.436 6.1 9.68733 6.2521 9.844C6.4055 10 6.6499 10 7.14 10H7.66C8.1501 10 8.39515 10 8.5479 9.844C8.7 9.68667 8.7 9.436 8.7 8.93333V8.4C8.7 7.89733 8.7 7.646 8.5479 7.48933C8.3945 7.33333 8.1501 7.33333 7.66 7.33333Z" stroke="#072929" stroke-width="1.5" stroke-linecap="round" stroke-linejoin="round"/>
</svg>
