<svg width="16" height="16" viewBox="0 0 16 16" fill="none" xmlns="http://www.w3.org/2000/svg">
<rect width="16" height="16" rx="4" fill="black"/>
<path d="M8.66183 4.02902C8.66183 3.85349 8.5921 3.68515 8.46798 3.56103C8.34387 3.43692 8.17553 3.36719 8 3.36719C7.82447 3.36719 7.65613 3.43692 7.53202 3.56103C7.4079 3.68515 7.33817 3.85349 7.33817 4.02902V7.33817H4.02902C3.85349 7.33817 3.68515 7.4079 3.56103 7.53202C3.43692 7.65613 3.36719 7.82447 3.36719 8C3.36719 8.17553 3.43692 8.34387 3.56103 8.46798C3.68515 8.5921 3.85349 8.66183 4.02902 8.66183H7.33817V11.971C7.33817 12.1465 7.4079 12.3148 7.53202 12.439C7.65613 12.5631 7.82447 12.6328 8 12.6328C8.17553 12.6328 8.34387 12.5631 8.46798 12.439C8.5921 12.3148 8.66183 12.1465 8.66183 11.971V8.66183H11.971C12.1465 8.66183 12.3148 8.5921 12.439 8.46798C12.5631 8.34387 12.6328 8.17553 12.6328 8C12.6328 7.82447 12.5631 7.65613 12.439 7.53202C12.3148 7.4079 12.1465 7.33817 11.971 7.33817H8.66183V4.02902Z" fill="white"/>
</svg>
