<svg width="20" height="20" viewBox="0 0 20 20" fill="none" xmlns="http://www.w3.org/2000/svg">
<rect width="20" height="20" rx="4" fill="black"/>
<path d="M17.2234 14.0763C17.2234 14.5942 16.9308 15.5916 16.2732 16.1394C16.1417 16.2391 16.0102 16.1829 16.068 16.0375C16.2595 15.5759 16.6974 14.508 16.4922 14.2622C16.3469 14.0756 15.7472 14.0899 15.2356 14.1326C15.0022 14.1618 14.797 14.1753 14.638 14.2074C14.4906 14.2188 14.4609 14.0913 14.6084 13.9915C14.8004 13.858 15.0125 13.7551 15.237 13.6866C16.068 13.4416 17.0283 13.589 17.1664 13.7458C17.1924 13.7757 17.2234 13.8605 17.2234 14.0763ZM15.8346 14.9974C15.6446 15.1419 15.4444 15.2728 15.2356 15.3893C13.7022 16.2976 11.7158 16.7734 9.99096 16.7734C7.21402 16.7734 4.73045 15.764 2.84592 14.0749C2.68406 13.9452 2.81774 13.7572 3.00706 13.859C5.03756 15.0274 7.55075 15.7341 10.1521 15.7341C11.7895 15.7341 13.5541 15.432 15.2356 14.7823C15.3534 14.7388 15.4849 14.6797 15.5998 14.6384C15.865 14.5208 16.0984 14.8108 15.8346 14.9974ZM11.3762 7.13974C11.3762 6.39814 11.4065 5.96144 11.1572 5.58672C10.9361 5.27826 10.5553 5.09303 10.0235 5.12224C9.44685 5.15359 8.82758 5.52617 8.67005 6.20935C8.63898 6.36608 8.54649 6.51996 8.35428 6.55344L6.59476 6.3326C6.46902 6.3041 6.27754 6.20935 6.3404 5.96144C6.71832 4.00165 8.41715 3.31846 10.0242 3.22656H10.4014C11.283 3.22656 12.416 3.47519 13.1408 4.12703C14.0202 4.93631 13.9262 6.02342 13.9262 7.20457V10.0021C13.9262 10.8413 14.2716 11.2132 14.6185 11.6506C14.7124 11.8066 14.7449 11.9904 14.5867 12.1172C14.1314 12.5174 13.6696 12.9102 13.2015 13.2955C13.075 13.3903 12.8481 13.4003 12.7607 13.3276C12.2043 12.8681 12.0684 12.6131 11.7237 12.1464C11.124 12.7669 10.6203 13.1096 10.0213 13.2955C9.6001 13.4012 9.16682 13.4529 8.7322 13.4494C7.22197 13.4494 6.02607 12.5212 6.02607 10.6853C6.02607 9.22563 6.8137 8.23326 7.97708 7.7638C9.14047 7.29362 10.8313 7.14401 11.3762 7.14116M11.0315 10.8399C11.4073 10.2187 11.3762 9.71006 11.3762 8.57094C10.905 8.57094 10.4325 8.603 10.0242 8.69774C9.26909 8.9136 8.66933 9.38164 8.66933 10.3754C8.66933 11.1519 9.07977 11.6805 9.77202 11.6805C9.8674 11.6805 9.95122 11.6698 10.0235 11.6485C10.5076 11.516 10.8097 11.2766 11.0315 10.8399Z" fill="white"/>
</svg>
