<svg width="20" height="20" viewBox="0 0 20 20" fill="none" xmlns="http://www.w3.org/2000/svg">
<rect width="20" height="20" rx="3" fill="black"/>
<path d="M4.72102 7.34081C5.22396 6.35995 5.99522 5.53541 6.94867 4.95927C7.90212 4.38312 9.00022 4.07805 10.1204 4.07813C11.7487 4.07813 13.1167 4.66493 14.1626 5.62065L12.4303 7.3189C11.8037 6.73209 11.0074 6.43306 10.1204 6.43306C8.54636 6.43306 7.21404 7.47522 6.73973 8.87445C6.61888 9.22973 6.55 9.6087 6.55 9.99951C6.55 10.3903 6.61888 10.7693 6.73973 11.1246C7.21465 12.5244 8.54636 13.566 10.1204 13.566C10.933 13.566 11.6249 13.3558 12.1663 13.0005C12.4801 12.798 12.7488 12.5352 12.9561 12.228C13.1634 11.9209 13.305 11.5757 13.3723 11.2134H10.1204V8.923H15.8109C15.8822 9.31026 15.9209 9.7141 15.9209 10.1339C15.9209 11.9376 15.2623 13.4558 14.1191 14.4861C13.1197 15.3909 11.7518 15.9209 10.1204 15.9209C9.32679 15.9212 8.54094 15.7683 7.80772 15.4708C7.0745 15.1733 6.40828 14.7372 5.84715 14.1873C5.28601 13.6373 4.84095 12.9845 4.53742 12.2659C4.23388 11.5473 4.07781 10.7772 4.07813 9.99951C4.07813 9.0438 4.31136 8.1402 4.72102 7.34081Z" fill="white"/>
</svg>
