<svg width="16" height="17" viewBox="0 0 16 17" fill="none" xmlns="http://www.w3.org/2000/svg">
<path d="M7.99943 9.92855C8.9462 9.92855 9.71371 9.16105 9.71371 8.21428C9.71371 7.26751 8.9462 6.5 7.99943 6.5C7.05266 6.5 6.28516 7.26751 6.28516 8.21428C6.28516 9.16105 7.05266 9.92855 7.99943 9.92855Z" fill="black"/>
<path d="M15.6567 9.78566L15.6399 9.77209L14.5128 8.88817C14.4414 8.8317 14.3845 8.7591 14.3466 8.67635C14.3087 8.59359 14.291 8.50303 14.2949 8.4121V7.99924C14.2914 7.90889 14.3093 7.81898 14.3472 7.7369C14.3851 7.65483 14.442 7.58292 14.5132 7.5271L15.6399 6.64282L15.6567 6.62925C15.8305 6.48449 15.9471 6.28263 15.9857 6.05978C16.0243 5.83692 15.9824 5.6076 15.8674 5.41283L14.3421 2.77356C14.3403 2.77107 14.3388 2.76844 14.3374 2.7657C14.2219 2.57362 14.0427 2.42808 13.831 2.35435C13.6192 2.28063 13.3884 2.28338 13.1785 2.36213L13.166 2.36677L11.841 2.89998C11.7574 2.9338 11.6669 2.94725 11.5771 2.93924C11.4872 2.93123 11.4006 2.90199 11.3242 2.85391C11.2071 2.7801 11.0881 2.71034 10.9671 2.64463C10.8887 2.6021 10.8214 2.54174 10.7705 2.46842C10.7197 2.39509 10.6869 2.31085 10.6746 2.22249L10.475 0.808567L10.4707 0.782853C10.4272 0.563853 10.3097 0.366488 10.1379 0.223925C9.96603 0.0813621 9.75037 0.00229109 9.52711 0H6.47284C6.24643 0.00072447 6.02755 0.0813269 5.85474 0.227607C5.68194 0.373888 5.5663 0.576461 5.5282 0.799638L5.52499 0.819638L5.32606 2.23642C5.31386 2.32452 5.28125 2.40857 5.23085 2.48185C5.18044 2.55514 5.11362 2.61565 5.0357 2.65856C4.9144 2.72389 4.79529 2.79321 4.67856 2.86641C4.60237 2.91419 4.51593 2.94322 4.42634 2.9511C4.33676 2.95899 4.24658 2.94551 4.16321 2.91177L2.83714 2.37606L2.82464 2.37106C2.61445 2.29223 2.38328 2.28958 2.17134 2.36358C1.95939 2.43757 1.7801 2.58353 1.66465 2.77606L1.66001 2.78391L0.132517 5.42497C0.017385 5.61995 -0.024636 5.84952 0.0139676 6.07264C0.0525713 6.29575 0.169282 6.49786 0.34323 6.64282L0.360015 6.65639L1.48715 7.54032C1.55853 7.59678 1.6155 7.66938 1.65337 7.75214C1.69124 7.83489 1.70894 7.92546 1.70501 8.01639V8.42924C1.70858 8.51959 1.69067 8.6095 1.65273 8.69158C1.6148 8.77365 1.55793 8.84556 1.48679 8.90138L0.360015 9.78566L0.34323 9.79923C0.169454 9.94399 0.0528383 10.1459 0.0142348 10.3687C-0.0243687 10.5916 0.0175576 10.8209 0.132517 11.0157L1.65787 13.6549C1.65962 13.6574 1.66117 13.66 1.66251 13.6628C1.77809 13.8549 1.95729 14.0004 2.16899 14.0741C2.3807 14.1478 2.61154 14.1451 2.82143 14.0664L2.83393 14.0617L4.15785 13.5285C4.24148 13.4947 4.33195 13.4812 4.4218 13.4892C4.51165 13.4972 4.59831 13.5265 4.67463 13.5746C4.79178 13.6486 4.91082 13.7184 5.03178 13.7839C5.1102 13.8264 5.17753 13.8867 5.22833 13.9601C5.27914 14.0334 5.312 14.1176 5.32427 14.206L5.52284 15.6199L5.52713 15.6456C5.57067 15.865 5.6885 16.0626 5.86077 16.2052C6.03304 16.3478 6.24921 16.4267 6.47284 16.4285H9.52711C9.75351 16.4278 9.9724 16.3472 10.1452 16.2009C10.318 16.0546 10.4336 15.852 10.4717 15.6288L10.475 15.6088L10.6739 14.1921C10.6863 14.1038 10.7192 14.0196 10.7699 13.9463C10.8206 13.873 10.8878 13.8126 10.966 13.7699C11.0882 13.7042 11.2075 13.6346 11.3232 13.5621C11.3994 13.5143 11.4858 13.4853 11.5754 13.4774C11.665 13.4695 11.7552 13.483 11.8385 13.5167L13.1646 14.0506L13.1771 14.0556C13.3873 14.1346 13.6185 14.1373 13.8305 14.0633C14.0424 13.9893 14.2217 13.8433 14.3371 13.6506C14.3385 13.648 14.3401 13.6453 14.3417 13.6428L15.8671 11.0039C15.9824 10.8089 16.0246 10.5793 15.986 10.3561C15.9475 10.1328 15.8308 9.93064 15.6567 9.78566ZM10.8539 8.34853C10.8279 8.90159 10.6417 9.43518 10.3181 9.88441C9.99446 10.3336 9.54726 10.6792 9.03089 10.8789C8.51452 11.0787 7.95123 11.1242 7.40951 11.0098C6.86779 10.8954 6.37098 10.626 5.9795 10.2345C5.58802 9.84296 5.31873 9.34612 5.20438 8.80439C5.09003 8.26265 5.13555 7.69936 5.33541 7.18302C5.53526 6.66667 5.88083 6.21952 6.3301 5.89593C6.77937 5.57235 7.31298 5.38627 7.86605 5.36033C8.2631 5.34285 8.65945 5.40818 9.02989 5.55217C9.40033 5.69616 9.73675 5.91566 10.0178 6.19671C10.2988 6.47776 10.5182 6.8142 10.6622 7.18466C10.8061 7.55512 10.8714 7.95147 10.8539 8.34853Z" fill="black"/>
</svg>
