<svg width="20" height="20" viewBox="0 0 20 20" fill="none" xmlns="http://www.w3.org/2000/svg">
<path d="M9.99902 2.6582C10.1778 2.65829 10.3491 2.72916 10.4756 2.85547C10.6022 2.98206 10.6738 3.15399 10.6738 3.33301C10.6738 3.51203 10.6022 3.68396 10.4756 3.81055C10.3491 3.93685 10.1778 4.00773 9.99902 4.00781C8.40993 4.00781 6.88537 4.63904 5.76172 5.7627C4.63806 6.88635 4.00684 8.41091 4.00684 10C4.00692 11.5889 4.63824 13.1128 5.76172 14.2363C6.88537 15.36 8.40993 15.9912 9.99902 15.9912C10.1779 15.9913 10.3491 16.0629 10.4756 16.1895C10.6021 16.316 10.6737 16.4871 10.6738 16.666C10.6738 16.845 10.6022 17.017 10.4756 17.1436C10.3491 17.27 10.1779 17.3417 9.99902 17.3418C8.05205 17.3418 6.18442 16.568 4.80762 15.1914C3.43086 13.8147 2.65731 11.947 2.65723 10C2.65723 8.05287 3.43079 6.18542 4.80762 4.80859C6.18445 3.43176 8.05189 2.6582 9.99902 2.6582Z" fill="black" stroke="black" stroke-width="0.1"/>
<path d="M14.1689 6.84082C14.3001 6.83851 14.4283 6.874 14.5381 6.94238L14.6416 7.02148L14.6426 7.02344L17.1426 9.52344C17.2688 9.64996 17.3398 9.82127 17.3398 10C17.3398 10.1787 17.2688 10.35 17.1426 10.4766V10.4775L14.6426 12.9775L14.6416 12.9766C14.5802 13.0421 14.5069 13.0952 14.4248 13.1318C14.3421 13.1687 14.2526 13.1888 14.1621 13.1904C14.0716 13.192 13.9814 13.1754 13.8975 13.1416C13.8135 13.1077 13.7369 13.0571 13.6729 12.9932C13.6088 12.9291 13.5574 12.8526 13.5234 12.7686C13.4895 12.6846 13.473 12.5945 13.4746 12.5039C13.4762 12.4134 13.4964 12.3239 13.5332 12.2412C13.5701 12.1584 13.6231 12.0833 13.6895 12.0215L15.0371 10.6748H8.33203C8.15301 10.6748 7.98108 10.6041 7.85449 10.4775C7.72792 10.351 7.65723 10.179 7.65723 10C7.65724 9.82099 7.72791 9.64904 7.85449 9.52246C7.98108 9.39588 8.15302 9.3252 8.33203 9.3252H15.0371L13.6885 7.97754L13.6875 7.97559C13.5683 7.84768 13.5028 7.67871 13.5059 7.50391C13.5089 7.32904 13.5804 7.16176 13.7041 7.03809C13.8277 6.91465 13.9943 6.84393 14.1689 6.84082Z" fill="black" stroke="black" stroke-width="0.1"/>
</svg>
