<svg width="32" height="32" viewBox="0 0 32 32" fill="none" xmlns="http://www.w3.org/2000/svg">
<path d="M16.3652 32H15.6347V0H16.3652V32Z" fill="#072929"/>
<path d="M32 16.3652H0V15.6347H32V16.3652Z" fill="#072929"/>
<path d="M27.0535 27.5721L4.42604 4.9447L4.94259 4.42815L27.57 27.0556L27.0535 27.5721Z" fill="#072929"/>
<path d="M4.94259 27.5721L4.42604 27.0556L27.0535 4.42815L27.57 4.9447L4.94259 27.5721Z" fill="#072929"/>
<path d="M12.21 31.5485L11.5043 31.3594L19.7866 0.449784L20.4921 0.638849L12.21 31.5485Z" fill="#072929"/>
<path d="M31.3559 20.4954L0.447672 12.2078L0.63686 11.5022L31.5451 19.7898L31.3559 20.4954Z" fill="#072929"/>
<path d="M23.6864 30.0398L7.68645 2.32698L8.31909 1.96173L24.3191 29.6746L23.6864 30.0398Z" fill="#072929"/>
<path d="M2.32487 24.3169L1.95962 23.6843L29.6724 7.68434L30.0377 8.31694L2.32487 24.3169Z" fill="#072929"/>
<path d="M8.31909 30.0398L7.68645 29.6746L23.6864 1.96173L24.3191 2.32698L8.31909 30.0398Z" fill="#072929"/>
<path d="M29.6724 24.3169L1.95962 8.31694L2.32487 7.68434L30.0377 23.6843L29.6724 24.3169Z" fill="#072929"/>
<path d="M19.7866 31.5485L11.5043 0.638849L12.21 0.449784L20.4921 31.3594L19.7866 31.5485Z" fill="#072929"/>
<path d="M0.636737 20.4943L0.447672 19.7887L31.3573 11.5064L31.5464 12.2121L0.636737 20.4943Z" fill="#072929"/>
</svg>
