<svg width="110" height="30" viewBox="0 0 110 30" fill="none" xmlns="http://www.w3.org/2000/svg">
<g clip-path="url(#clip0_530_31278)">
<mask id="mask0_530_31278" style="mask-type:luminance" maskUnits="userSpaceOnUse" x="0" y="0" width="110" height="30">
<path d="M109.756 0H0V29.7439H109.756V0Z" fill="white"/>
</mask>
<g mask="url(#mask0_530_31278)">
<path d="M15.2108 29.6708H14.5352V0.0732422H15.2108V29.6708Z" fill="#072929"/>
<path d="M29.6718 15.2098H0.0742188V14.5342H29.6718V15.2098Z" fill="#072929"/>
<path d="M25.1005 25.5753L4.17188 4.64671L4.64964 4.16895L25.5783 25.0976L25.1005 25.5753Z" fill="#072929"/>
<path d="M4.64964 25.5753L4.17188 25.0976L25.1005 4.16895L25.5783 4.64671L4.64964 25.5753Z" fill="#072929"/>
<path d="M11.3714 29.2542L10.7188 29.0793L18.3792 0.490234L19.0318 0.665105L11.3714 29.2542Z" fill="#072929"/>
<path d="M29.0799 19.0309L0.492188 11.3655L0.667172 10.7129L29.2549 18.3783L29.0799 19.0309Z" fill="#072929"/>
<path d="M21.9785 27.8568L7.17969 2.22454L7.76483 1.88672L22.5636 27.519L21.9785 27.8568Z" fill="#072929"/>
<path d="M2.22454 22.5646L1.88672 21.9794L27.519 7.18066L27.8568 7.76577L2.22454 22.5646Z" fill="#072929"/>
<path d="M7.76483 27.8578L7.17969 27.5199L21.9785 1.8877L22.5636 2.22552L7.76483 27.8578Z" fill="#072929"/>
<path d="M27.519 22.5636L1.88672 7.7648L2.22454 7.17969L27.8568 21.9785L27.519 22.5636Z" fill="#072929"/>
<path d="M18.3792 29.2532L10.7188 0.664129L11.3714 0.489258L19.0318 29.0783L18.3792 29.2532Z" fill="#072929"/>
<path d="M0.667058 19.0299L0.492188 18.3772L29.0812 10.7168L29.2561 11.3694L0.667058 19.0299Z" fill="#072929"/>
<path d="M105.987 10.7871C108.045 10.7871 109.457 12.1511 109.696 14.568L108.117 15.0945C107.925 13.3955 107.04 12.4861 105.724 12.4861C103.785 12.4861 102.565 14.0894 102.565 16.7217V23.3742H100.746V11.2896H102.302L102.469 13.1801H102.493C103.163 11.7204 104.455 10.7871 105.987 10.7871Z" fill="#072929"/>
<path d="M91.9122 23.8524C89.1602 23.8524 87.2461 22.3687 87.2461 20.215C87.2461 18.2767 88.7776 16.7212 92.7021 16.2426L95.6933 15.8837C96.2915 15.8119 96.6745 15.4769 96.6745 14.9504C96.6745 13.4428 95.2385 12.4617 93.1327 12.4617C90.8593 12.4617 89.2561 13.9214 89.1602 15.3572L87.5091 14.6633C87.7246 12.6771 90.0698 10.8105 93.2044 10.8105C96.2915 10.8105 98.469 12.5335 98.469 15.2376V23.3738H96.8179L96.6266 21.3637H96.6024C95.7412 22.8952 94.066 23.8524 91.9122 23.8524ZM92.2235 22.2012C94.76 22.2012 96.6266 20.55 96.6266 18.2049V17.3434L92.8934 17.7981C89.9739 18.157 89.0648 19.0903 89.0648 20.1911C89.0648 21.4115 90.3807 22.2012 92.2235 22.2012Z" fill="#072929"/>
<path d="M83.7578 23.3737V5.78516H85.5765V23.3737H83.7578Z" fill="#072929"/>
<path d="M79.5508 23.3737V5.78516H81.3694V23.3737H79.5508Z" fill="#072929"/>
<path d="M72.0085 23.8524C68.1561 23.8524 65.332 21.0525 65.332 17.1999C65.332 13.4907 67.9164 10.8105 71.5062 10.8105C75.0476 10.8105 77.369 13.4907 77.4169 17.2238C77.4169 17.4392 77.4169 17.7024 77.3928 17.9417H67.2228C67.4858 20.4543 69.4241 22.2012 72.0326 22.2012C73.923 22.2012 75.5262 21.2201 76.1964 19.9039L77.7758 20.55C76.9859 22.4884 74.7125 23.8524 72.0085 23.8524ZM67.2465 16.3384H75.4786C75.239 13.8736 73.6837 12.4856 71.482 12.4856C69.2328 12.4856 67.5817 14.0411 67.2465 16.3384Z" fill="#072929"/>
<path d="M60.2774 23.852C58.004 23.852 56.4725 22.3205 56.4725 20.1189V12.7963H53.8164V11.2888H56.4725V7.69927L58.2912 7.26855V11.2888H63.6992V12.7963H58.2912V19.9275C58.2912 21.2915 59.1286 22.2726 60.4449 22.2726C61.6654 22.2726 62.7901 21.3872 63.0293 19.8317L64.5129 20.454C64.1781 22.5598 62.3353 23.852 60.2774 23.852Z" fill="#072929"/>
<path d="M47.5253 23.9714C43.6246 23.9714 40.6096 21.5306 40.2266 18.0607L42.189 17.7018C42.3566 20.3341 44.5821 22.2006 47.5253 22.2006C50.1814 22.2006 51.8088 20.7887 51.8088 18.9461C51.8088 17.4625 50.7558 16.5771 48.2911 16.0027L45.5629 15.3806C42.5717 14.6866 41.1599 13.3226 41.1599 11.0732C41.1599 8.03408 43.4333 5.9043 46.8792 5.9043C49.966 5.9043 52.3111 7.84263 52.79 10.6664L50.8992 11.145C50.66 9.08697 49.0568 7.6751 46.903 7.6751C44.6058 7.6751 43.1461 8.99126 43.1461 10.7381C43.1461 12.1739 44.0556 12.9876 46.1852 13.4662L48.913 14.0883C52.1677 14.8062 53.795 16.3377 53.795 18.635C53.795 21.722 51.3302 23.9714 47.5253 23.9714Z" fill="#072929"/>
</g>
</g>
<defs>
<clipPath id="clip0_530_31278">
<rect width="109.756" height="30" fill="white"/>
</clipPath>
</defs>
</svg>
