<svg width="20" height="20" viewBox="0 0 20 20" fill="none" xmlns="http://www.w3.org/2000/svg">
<rect width="20" height="20" rx="3" fill="#F9F9F6"/>
<path fill-rule="evenodd" clip-rule="evenodd" d="M4.5 5.09091C4.5 4.80158 4.61493 4.52411 4.81952 4.31952C5.02411 4.11493 5.30158 4 5.59091 4H9.13636C9.42569 4 9.70317 4.11493 9.90775 4.31952C10.1123 4.52411 10.2273 4.80158 10.2273 5.09091V8.63636C10.2273 8.92569 10.1123 9.20317 9.90775 9.40775C9.70317 9.61234 9.42569 9.72727 9.13636 9.72727H7.77273V11.9435C7.77273 12.3755 8.124 12.7273 8.55709 12.7273H10.7727V11.3636C10.7727 11.0743 10.8877 10.7968 11.0922 10.5922C11.2968 10.3877 11.5743 10.2727 11.8636 10.2727H15.4091C15.6984 10.2727 15.9759 10.3877 16.1805 10.5922C16.3851 10.7968 16.5 11.0743 16.5 11.3636V14.9091C16.5 15.1984 16.3851 15.4759 16.1805 15.6805C15.9759 15.8851 15.6984 16 15.4091 16H11.8636C11.5743 16 11.2968 15.8851 11.0922 15.6805C10.8877 15.4759 10.7727 15.1984 10.7727 14.9091V13.5455H8.55655C8.13162 13.5453 7.72414 13.3764 7.42373 13.0759C7.12331 12.7754 6.95455 12.3678 6.95455 11.9429V9.72727H5.59091C5.30158 9.72727 5.02411 9.61234 4.81952 9.40775C4.61493 9.20317 4.5 8.92569 4.5 8.63636V5.09091ZM5.59091 4.81818C5.51858 4.81818 5.44921 4.84692 5.39806 4.89806C5.34692 4.94921 5.31818 5.01858 5.31818 5.09091V8.63636C5.31818 8.7087 5.34692 8.77807 5.39806 8.82921C5.44921 8.88036 5.51858 8.90909 5.59091 8.90909H9.13636C9.2087 8.90909 9.27807 8.88036 9.32921 8.82921C9.38036 8.77807 9.40909 8.7087 9.40909 8.63636V5.09091C9.40909 5.01858 9.38036 4.94921 9.32921 4.89806C9.27807 4.84692 9.2087 4.81818 9.13636 4.81818H5.59091ZM11.8636 11.0909C11.7913 11.0909 11.7219 11.1196 11.6708 11.1708C11.6196 11.2219 11.5909 11.2913 11.5909 11.3636V14.9091C11.5909 14.9814 11.6196 15.0508 11.6708 15.1019C11.7219 15.1531 11.7913 15.1818 11.8636 15.1818H15.4091C15.4814 15.1818 15.5508 15.1531 15.6019 15.1019C15.6531 15.0508 15.6818 14.9814 15.6818 14.9091V11.3636C15.6818 11.2913 15.6531 11.2219 15.6019 11.1708C15.5508 11.1196 15.4814 11.0909 15.4091 11.0909H11.8636Z" fill="#072929"/>
</svg>
