<svg width="20" height="20" viewBox="0 0 20 20" fill="none" xmlns="http://www.w3.org/2000/svg">
<path d="M9.85861 14.3835C7.42828 14.3615 5.45491 12.3984 5.43281 9.9806C5.42229 8.83122 5.89893 7.72112 6.69688 6.89956C7.53048 6.04135 8.67671 5.58838 9.85861 5.57768C10.9884 5.56745 10.9894 3.82357 9.85861 3.83381C6.47245 3.86447 3.71071 6.61188 3.67989 9.9806C3.64907 13.3496 6.51884 16.0972 9.85861 16.1274C10.9894 16.1376 10.9884 14.3938 9.85861 14.3835Z" fill="#072929"/>
<path d="M10.1482 5.57768C12.5785 5.59968 14.5519 7.56281 14.574 9.9806C14.5845 11.13 14.1079 12.2401 13.3099 13.0616C12.4763 13.9199 11.3301 14.3728 10.1482 14.3835C9.01835 14.3938 9.01736 16.1376 10.1482 16.1274C13.5343 16.0968 16.2961 13.3493 16.3269 9.9806C16.3577 6.61155 13.4879 3.86408 10.1482 3.83381C9.01736 3.82357 9.01835 5.56747 10.1482 5.57768Z" fill="#072929"/>
<path d="M8.38954 9.95058C8.38889 9.04548 9.06958 8.31913 9.96478 8.28418C10.8741 8.24869 11.6058 8.98697 11.6398 9.85126C11.6586 10.3261 12.0243 10.7232 12.5163 10.7232C12.9799 10.7232 13.4115 10.3265 13.3928 9.85126C13.3199 8.0051 11.8363 6.53908 9.96478 6.54033C8.10747 6.54156 6.63538 8.14231 6.63664 9.95058C6.63743 11.0751 8.39034 11.0752 8.38954 9.95058Z" fill="#072929"/>
<path d="M11.616 10.0357C11.5988 10.9241 10.8834 11.6358 9.99036 11.653C9.09694 11.6701 8.38146 10.8984 8.36476 10.0357C8.34298 8.91265 6.59004 8.91054 6.61184 10.0357C6.64776 11.89 8.1265 13.361 9.99036 13.3968C11.8542 13.4326 13.3341 11.8361 13.369 10.0357C13.3908 8.91053 11.6378 8.91265 11.616 10.0357Z" fill="#072929"/>
<path d="M18 9.98122C18 10.3405 17.6972 10.6317 17.3236 10.6317H14.4678C14.0942 10.6317 13.7914 10.3405 13.7914 9.98122C13.7914 9.62199 14.0942 9.33078 14.4678 9.33078H17.3236C17.6972 9.33078 18 9.62199 18 9.98122ZM6.20863 10.01C6.20863 10.3692 5.90582 10.6604 5.53219 10.6604H2.67635C2.30282 10.6604 2 10.3692 2 10.01C2 9.6507 2.30282 9.35946 2.67635 9.35946H5.53219C5.90582 9.35946 6.20863 9.6507 6.20863 10.01ZM9.98343 6.18681C9.62238 6.18681 9.32962 5.88562 9.32962 5.51392V2.67284C9.32962 2.30125 9.62238 2 9.98343 2C10.3446 2 10.6373 2.30125 10.6373 2.67284V5.51392C10.6373 5.88561 10.3446 6.18684 9.98343 6.18681ZM9.98343 18C9.62238 18 9.32962 17.6988 9.32962 17.3271V14.486C9.32962 14.1144 9.62238 13.8131 9.98343 13.8131C10.3446 13.8131 10.6373 14.1144 10.6373 14.486V17.3271C10.6373 17.6988 10.3446 18 9.98343 18Z" fill="#072929"/>
</svg>
