<svg width="20" height="20" viewBox="0 0 20 20" fill="none" xmlns="http://www.w3.org/2000/svg">
<rect width="20" height="20" rx="4" fill="#072929"/>
<path d="M4 14.5H3.25H4ZM7 11.5V10.75V11.5ZM13 11.5V10.75V11.5ZM4 14.5H4.75C4.75 13.9033 4.98705 13.331 5.40901 12.909L4.87868 12.3787L4.34835 11.8483C3.64509 12.5516 3.25 13.5054 3.25 14.5H4ZM4.87868 12.3787L5.40901 12.909C5.83097 12.4871 6.40326 12.25 7 12.25V11.5V10.75C6.00544 10.75 5.05161 11.1451 4.34835 11.8483L4.87868 12.3787ZM7 11.5V12.25H13V11.5V10.75H7V11.5ZM13 11.5V12.25C13.5967 12.25 14.169 12.4871 14.591 12.909L15.1213 12.3787L15.6516 11.8483C14.9484 11.1451 13.9946 10.75 13 10.75V11.5ZM15.1213 12.3787L14.591 12.909C15.0129 13.331 15.25 13.9033 15.25 14.5H16H16.75C16.75 13.5054 16.3549 12.5516 15.6516 11.8483L15.1213 12.3787ZM16 14.5H15.25C15.25 14.6989 15.171 14.8897 15.0303 15.0303L15.5607 15.5607L16.091 16.091C16.5129 15.669 16.75 15.0967 16.75 14.5H16ZM15.5607 15.5607L15.0303 15.0303C14.8897 15.171 14.6989 15.25 14.5 15.25V16V16.75C15.0967 16.75 15.669 16.5129 16.091 16.091L15.5607 15.5607ZM14.5 16V15.25H5.5V16V16.75H14.5V16ZM5.5 16V15.25C5.30109 15.25 5.11032 15.171 4.96967 15.0303L4.43934 15.5607L3.90901 16.091C4.33097 16.5129 4.90326 16.75 5.5 16.75V16ZM4.43934 15.5607L4.96967 15.0303C4.82902 14.8897 4.75 14.6989 4.75 14.5H4H3.25C3.25 15.0967 3.48705 15.669 3.90901 16.091L4.43934 15.5607ZM12.25 6.25H11.5C11.5 7.07843 10.8284 7.75 10 7.75V8.5V9.25C11.6569 9.25 13 7.90685 13 6.25H12.25ZM10 8.5V7.75C9.17157 7.75 8.5 7.07843 8.5 6.25H7.75H7C7 7.90685 8.34315 9.25 10 9.25V8.5ZM7.75 6.25H8.5C8.5 5.42157 9.17157 4.75 10 4.75V4V3.25C8.34315 3.25 7 4.59315 7 6.25H7.75ZM10 4V4.75C10.8284 4.75 11.5 5.42157 11.5 6.25H12.25H13C13 4.59315 11.6569 3.25 10 3.25V4Z" fill="#F9F9F6"/>
</svg>
