<svg width="13" height="7" viewBox="0 0 13 7" fill="none" xmlns="http://www.w3.org/2000/svg">
<path d="M12.285 6.0994L11.1437 4.40676C11.1014 4.34418 11.0859 4.26729 11.1006 4.19321C11.1153 4.11914 11.159 4.05401 11.222 4.01233C11.7447 3.66215 12.0726 3.03564 12.0726 2.313C12.0726 1.07559 11.0374 0.0966797 9.76177 0.0966797H7.01954C6.96975 0.0966797 6.92201 0.116478 6.88684 0.151711C6.85167 0.186944 6.83195 0.234719 6.83203 0.284503V1.48403C6.83178 1.53345 6.87024 1.57443 6.91958 1.5773C7.84756 1.62728 8.5928 2.42729 8.5928 3.33998C8.5928 4.26127 7.8396 5.04409 6.91958 5.09375C6.87024 5.09662 6.83178 5.1376 6.83203 5.18702V6.35057C6.83203 6.45413 6.91598 6.53808 7.01954 6.53808H8.61286C8.71641 6.53808 8.80036 6.45413 8.80036 6.35057V5.78997C8.80036 5.39045 9.14545 5.29367 9.40936 5.60692L10.0779 6.44385C10.1379 6.50462 10.2197 6.53899 10.3052 6.53936H12.051C12.1556 6.5399 12.2518 6.48241 12.3009 6.39008C12.35 6.29775 12.3439 6.1858 12.285 6.0994Z" fill="white"/>
<path d="M3.5123 0C4.51446 0 5.41155 0.427856 6.0527 1.11007C6.08749 1.14783 6.1053 1.19819 6.102 1.24943C6.09869 1.30067 6.07455 1.34832 6.03519 1.3813L5.12536 2.14374C5.05121 2.20496 4.9428 2.20029 4.87419 2.13291C4.51066 1.77614 4.0226 1.57475 3.51326 1.57135C2.54262 1.57135 1.75695 2.31087 1.75695 3.31811C1.75695 4.32536 2.54262 5.05596 3.51326 5.05596C4.02258 5.05243 4.51058 4.85106 4.87419 4.4944C4.94271 4.42693 5.05113 4.42212 5.12536 4.48326L6.03583 5.24569C6.07531 5.27857 6.09957 5.32621 6.10294 5.37748C6.10631 5.42875 6.0885 5.47916 6.05366 5.51693C5.41251 6.19914 4.51541 6.627 3.51326 6.627C1.57135 6.627 0 5.23137 0 3.31811C0 1.40486 1.57135 0 3.5123 0Z" fill="white"/>
</svg>
