<svg width="20" height="20" viewBox="0 0 20 20" fill="none" xmlns="http://www.w3.org/2000/svg">
<path d="M7.39753 10.7822L4.09808 12.3138C3.941 12.4576 3.84414 12.6554 3.82697 12.8676C3.80979 13.0799 3.87358 13.2907 4.00551 13.4578C4.27079 13.9103 4.73504 14.1266 5.04177 13.9456L8.02551 11.8655C8.11141 11.763 8.16026 11.6346 8.16415 11.501C8.16803 11.3673 8.12673 11.2363 8.04692 11.129C7.99403 11.0062 7.90095 10.9049 7.78296 10.8419C7.66496 10.7789 7.52906 10.7579 7.39753 10.7822ZM12.6148 10.7829C12.4075 10.7014 12.1312 10.852 11.964 11.1318C11.8859 11.2388 11.8453 11.3686 11.8485 11.501C11.8518 11.6334 11.8987 11.7611 11.9819 11.8641L14.9629 13.949C15.2724 14.1259 15.7387 13.911 16.004 13.4578C16.2693 13.0047 16.2175 12.4907 15.9108 12.3138L12.6148 10.7829ZM10.0055 12.2599C9.8731 12.244 9.73927 12.2733 9.62566 12.3431C9.51204 12.4128 9.42532 12.5188 9.37955 12.644L9.05762 16.2606C9.05762 16.6184 9.47627 16.9086 10.0055 16.9086C10.5346 16.9086 10.9526 16.6184 10.9526 16.2606L10.6334 12.644C10.5872 12.5187 10.5 12.4127 10.3861 12.343C10.2722 12.2733 10.1381 12.2441 10.0055 12.2599ZM11.964 8.87205C12.0187 8.99408 12.1121 9.09467 12.2297 9.15824C12.3474 9.22181 12.4827 9.24481 12.6148 9.22369L15.9142 7.68934C16.2209 7.50834 16.2665 7.00195 16.0075 6.54669C15.7484 6.09142 15.2759 5.87657 14.9664 6.05343L11.9854 8.13493C11.9016 8.23903 11.8544 8.36786 11.8511 8.50148C11.8479 8.63511 11.8888 8.76608 11.9674 8.87413L11.964 8.87205ZM5.04453 6.05481C4.73504 5.87381 4.27079 6.08935 4.00827 6.54531C3.87634 6.71243 3.81256 6.92329 3.82973 7.13551C3.8469 7.34774 3.94376 7.5456 4.10085 7.68934L7.39753 9.21955C7.5289 9.24402 7.66467 9.22317 7.78265 9.16042C7.90062 9.09767 7.99379 8.99673 8.04692 8.87413C8.12656 8.76693 8.16776 8.63602 8.16387 8.50254C8.15999 8.36905 8.11124 8.24077 8.02551 8.13838L5.04453 6.05481ZM10.0055 3.0918C9.47627 3.0918 9.05762 3.38471 9.05762 3.74326L9.3837 7.35911C9.4293 7.48355 9.51539 7.58906 9.62814 7.65871C9.74089 7.72837 9.87376 7.75813 10.0055 7.74322C10.1381 7.7591 10.2722 7.72983 10.3861 7.66014C10.5 7.59045 10.5872 7.48441 10.6334 7.35911L10.9526 3.74326C10.9533 3.38471 10.5319 3.0918 10.0055 3.0918Z" fill="#F9F9F6"/>
</svg>
