<svg width="17" height="16" viewBox="0 0 17 16" fill="none" xmlns="http://www.w3.org/2000/svg">
<path d="M8.66667 2.27369L12 5.60702M10.75 12.6904H15.75M13.25 10.1904V15.1904M0.75 13.5237H4.08333L12.8333 4.77369C13.0522 4.55482 13.2258 4.29498 13.3443 4.00902C13.4627 3.72305 13.5237 3.41655 13.5237 3.10702C13.5237 2.79749 13.4627 2.491 13.3443 2.20503C13.2258 1.91906 13.0522 1.65923 12.8333 1.44036C12.6145 1.22149 12.3546 1.04787 12.0687 0.929418C11.7827 0.810966 11.4762 0.75 11.1667 0.75C10.8571 0.75 10.5506 0.810966 10.2647 0.929418C9.97871 1.04787 9.71887 1.22149 9.5 1.44036L0.75 10.1904V13.5237Z" stroke="#072929" stroke-width="1.5" stroke-linecap="round" stroke-linejoin="round"/>
</svg>
