<svg width="24" height="24" viewBox="0 0 24 24" fill="none" xmlns="http://www.w3.org/2000/svg">
<rect width="24" height="24" rx="4" fill="#072929"/>
<path d="M15.9882 7.26981C17.5962 8.39761 18.7058 10.1907 18.9309 12.2597M5.15717 12.3002C5.36622 10.2394 6.45969 8.44625 8.05166 7.31035M8.93565 19.2535C9.86832 19.7323 10.9296 20 12.0472 20C13.1246 20 14.1377 19.7566 15.0463 19.3103M14.2823 6.25559C14.2823 7.50131 13.2816 8.51117 12.0471 8.51117C10.8126 8.51117 9.81192 7.50131 9.81192 6.25559C9.81192 5.00986 10.8126 4 12.0471 4C13.2816 4 14.2823 5.00986 14.2823 6.25559ZM8.47039 16.1704C8.47039 17.4161 7.46966 18.426 6.23519 18.426C5.00073 18.426 4 17.4161 4 16.1704C4 14.9247 5.00073 13.9148 6.23519 13.9148C7.46966 13.9148 8.47039 14.9247 8.47039 16.1704ZM20 16.1704C20 17.4161 18.9993 18.426 17.7648 18.426C16.5303 18.426 15.5296 17.4161 15.5296 16.1704C15.5296 14.9247 16.5303 13.9148 17.7648 13.9148C18.9993 13.9148 20 14.9247 20 16.1704Z" stroke="#F9F9F6" stroke-linecap="round" stroke-linejoin="round"/>
</svg>
