<svg width="24" height="24" viewBox="0 0 24 24" fill="none" xmlns="http://www.w3.org/2000/svg">
<rect width="24" height="24" rx="4" fill="#072929"/>
<path d="M9.00131 5.46154C9.00131 5.33913 8.94556 5.22174 8.84632 5.13518C8.74708 5.04863 8.61248 5 8.47213 5C8.33178 5 8.19718 5.04863 8.09794 5.13518C7.9987 5.22174 7.94295 5.33913 7.94295 5.46154V6.43385C6.92692 6.50462 6.26086 6.67815 5.77119 7.10585C5.28082 7.53292 5.14435 8.11446 5.0625 9H18.931C18.8492 8.11385 18.7192 7.53292 18.2288 7.10585C17.7391 6.67815 17.0724 6.50462 16.0571 6.43323V5.46154C16.0571 5.33913 16.0013 5.22174 15.9021 5.13518C15.8028 5.04863 15.6682 5 15.5279 5C15.3875 5 15.2529 5.04863 15.1537 5.13518C15.0544 5.22174 14.9987 5.33913 14.9987 5.46154V6.39262C14.5295 6.38462 14.0031 6.38462 13.4111 6.38462H10.5889C9.99688 6.38462 9.47052 6.38462 9.00131 6.39262V5.46154Z" stroke="#F9F9F6"/>
<path fill-rule="evenodd" clip-rule="evenodd" d="M5 11.6533C5 11.0369 5 10.5256 5.0091 10.037L18.9909 10.0366C19 10.5252 19 11.0369 19 11.6533V13.1227C19 15.8932 19 17.2788 18.1796 18.1392C17.3592 18.9995 16.0397 19.0002 13.4 19.0002H10.6C7.9603 19.0002 6.6401 19.0002 5.8204 18.1392C5.0007 17.2781 5 15.8932 5 13.1227V11.6533ZM15.5 13.1227C15.6857 13.1227 15.8637 13.0453 15.995 12.9075C16.1263 12.7697 16.2 12.5828 16.2 12.388C16.2 12.1931 16.1263 12.0062 15.995 11.8685C15.8637 11.7307 15.6857 11.6533 15.5 11.6533C15.3143 11.6533 15.1363 11.7307 15.005 11.8685C14.8737 12.0062 14.8 12.1931 14.8 12.388C14.8 12.5828 14.8737 12.7697 15.005 12.9075C15.1363 13.0453 15.3143 13.1227 15.5 13.1227ZM15.5 16.0614C15.6857 16.0614 15.8637 15.984 15.995 15.8463C16.1263 15.7085 16.2 15.5216 16.2 15.3267C16.2 15.1319 16.1263 14.945 15.995 14.8072C15.8637 14.6695 15.6857 14.5921 15.5 14.5921C15.3143 14.5921 15.1363 14.6695 15.005 14.8072C14.8737 14.945 14.8 15.1319 14.8 15.3267C14.8 15.5216 14.8737 15.7085 15.005 15.8463C15.1363 15.984 15.3143 16.0614 15.5 16.0614ZM12.7 12.388C12.7 12.5828 12.6263 12.7697 12.495 12.9075C12.3637 13.0453 12.1857 13.1227 12 13.1227C11.8143 13.1227 11.6363 13.0453 11.505 12.9075C11.3737 12.7697 11.3 12.5828 11.3 12.388C11.3 12.1931 11.3737 12.0062 11.505 11.8685C11.6363 11.7307 11.8143 11.6533 12 11.6533C12.1857 11.6533 12.3637 11.7307 12.495 11.8685C12.6263 12.0062 12.7 12.1931 12.7 12.388ZM12.7 15.3267C12.7 15.5216 12.6263 15.7085 12.495 15.8463C12.3637 15.984 12.1857 16.0614 12 16.0614C11.8143 16.0614 11.6363 15.984 11.505 15.8463C11.3737 15.7085 11.3 15.5216 11.3 15.3267C11.3 15.1319 11.3737 14.945 11.505 14.8072C11.6363 14.6695 11.8143 14.5921 12 14.5921C12.1857 14.5921 12.3637 14.6695 12.495 14.8072C12.6263 14.945 12.7 15.1319 12.7 15.3267ZM8.5 13.1227C8.68565 13.1227 8.8637 13.0453 8.99497 12.9075C9.12625 12.7697 9.2 12.5828 9.2 12.388C9.2 12.1931 9.12625 12.0062 8.99497 11.8685C8.8637 11.7307 8.68565 11.6533 8.5 11.6533C8.31435 11.6533 8.1363 11.7307 8.00503 11.8685C7.87375 12.0062 7.8 12.1931 7.8 12.388C7.8 12.5828 7.87375 12.7697 8.00503 12.9075C8.1363 13.0453 8.31435 13.1227 8.5 13.1227ZM8.5 16.0614C8.68565 16.0614 8.8637 15.984 8.99497 15.8463C9.12625 15.7085 9.2 15.5216 9.2 15.3267C9.2 15.1319 9.12625 14.945 8.99497 14.8072C8.8637 14.6695 8.68565 14.5921 8.5 14.5921C8.31435 14.5921 8.1363 14.6695 8.00503 14.8072C7.87375 14.945 7.8 15.1319 7.8 15.3267C7.8 15.5216 7.87375 15.7085 8.00503 15.8463C8.1363 15.984 8.31435 16.0614 8.5 16.0614Z" stroke="#F9F9F6"/>
</svg>
