<svg width="20" height="20" viewBox="0 0 20 20" fill="none" xmlns="http://www.w3.org/2000/svg">
  <rect width="20" height="20" rx="4" fill="#136D6D"/>
  <path d="M10.6618 6.02902C10.6618 5.85349 10.5921 5.68515 10.468 5.56103C10.3439 5.43692 10.1755 5.36719 10 5.36719C9.82447 5.36719 9.65613 5.43692 9.53202 5.56103C9.4079 5.68515 9.33817 5.85349 9.33817 6.02902V9.33817H6.02902C5.85349 9.33817 5.68515 9.4079 5.56103 9.53202C5.43692 9.65613 5.36719 9.82447 5.36719 10C5.36719 10.1755 5.43692 10.3439 5.56103 10.468C5.68515 10.5921 5.85349 10.6618 6.02902 10.6618H9.33817V13.971C9.33817 14.1465 9.4079 14.3148 9.53202 14.439C9.65613 14.5631 9.82447 14.6328 10 14.6328C10.1755 14.6328 10.3439 14.5631 10.468 14.439C10.5921 14.3148 10.6618 14.1465 10.6618 13.971V10.6618H13.971C14.1465 10.6618 14.3148 10.5921 14.439 10.468C14.5631 10.3439 14.6328 10.1755 14.6328 10C14.6328 9.82447 14.5631 9.65613 14.439 9.53202C14.3148 9.4079 14.1465 9.33817 13.971 9.33817H10.6618V6.02902Z" fill="#F9F9F6"/>
</svg>
