<svg width="24" height="24" viewBox="0 0 24 24" fill="none" xmlns="http://www.w3.org/2000/svg">
<rect width="24" height="24" rx="4" fill="#072929"/>
<path d="M9.6 18.4H7.2C6.35131 18.4 5.53737 18.0629 4.93726 17.4627C4.33714 16.8626 4 16.0487 4 15.2V8C4 7.15131 4.33714 6.33737 4.93726 5.73726C5.53737 5.13714 6.35131 4.8 7.2 4.8H16C16.8487 4.8 17.6626 5.13714 18.2627 5.73726C18.8629 6.33737 19.2 7.15131 19.2 8V10.4M8.8 4V5.6M14.4 4V5.6M4 8.8H19.2M17.2 14.9144L16 16.1144M20 16C20 18.2091 18.2091 20 16 20C13.7909 20 12 18.2091 12 16C12 13.7909 13.7909 12 16 12C18.2091 12 20 13.7909 20 16Z" stroke="#F9F9F6" stroke-linecap="round" stroke-linejoin="round"/>
</svg>
