<svg width="24" height="24" viewBox="0 0 24 24" fill="none" xmlns="http://www.w3.org/2000/svg">
<rect width="24" height="24" rx="4" fill="#072929"/>
<path d="M9.6 6.4H15.2M12.4 12.4H15.2M8 8.8H5.6C4.72 8.8 4 8.08 4 7.2V5.6C4 4.72 4.72 4 5.6 4H8C8.88 4 9.6 4.72 9.6 5.6V7.2C9.6 8.08 8.88 8.8 8 8.8ZM19.04 8H16.16C15.632 8 15.2 7.56799 15.2 7.03999V5.76001C15.2 5.23201 15.632 4.8 16.16 4.8H19.04C19.568 4.8 20 5.23201 20 5.76001V7.03999C20 7.56799 19.568 8 19.04 8ZM19.04 14H16.16C15.632 14 15.2 13.568 15.2 13.04V11.76C15.2 11.232 15.632 10.8 16.16 10.8H19.04C19.568 10.8 20 11.232 20 11.76V13.04C20 13.568 19.568 14 19.04 14ZM19.04 20H16.16C15.632 20 15.2 19.568 15.2 19.04V17.76C15.2 17.232 15.632 16.8 16.16 16.8H19.04C19.568 16.8 20 17.232 20 17.76V19.04C20 19.568 19.568 20 19.04 20Z" stroke="#F9F9F6" stroke-linecap="round" stroke-linejoin="round"/>
</svg>
