<svg preserveAspectRatio="none" width="100%" height="100%" overflow="visible" style="display: block;" viewBox="0 0 16 17" fill="none" xmlns="http://www.w3.org/2000/svg">
<g id="Group 1171277921">
<path id="Vector" d="M0.568182 15.6248H1.74433C1.62785 15.4657 1.56251 15.2668 1.56251 15.0566V4.82932C1.56251 4.61911 1.62785 4.42023 1.74433 4.26114H0.568182C0.255673 4.26114 0 4.51682 0 4.82932V15.0566C0 15.3691 0.255673 15.6248 0.568182 15.6248Z" fill="var(--fill-0, black)"/>
<path id="Vector_2" d="M2.55694 15.6249H11.3639C11.6764 15.6249 11.932 15.3692 11.932 15.0567V15.0027C11.6764 14.997 11.432 14.8948 11.2502 14.7129C11.1565 14.6192 11.0854 14.5112 11.0371 14.3976C10.6906 14.5027 10.3241 14.5595 9.9434 14.5595C7.86667 14.5595 6.17922 12.872 6.17922 10.7953C6.17922 8.71864 7.86671 7.03115 9.9434 7.03115C10.6735 7.03115 11.3553 7.24136 11.9321 7.59933V4.82951C11.9321 4.517 11.6765 4.26133 11.3639 4.26133H10.5117V3.69315C10.5117 2.00138 9.1594 0.622782 7.47967 0.573145C6.97043 0.213764 6.35112 0 5.68209 0C3.95907 0 2.557 1.40198 2.557 3.12509V4.26145C2.24449 4.26145 1.98882 4.51713 1.98882 4.82964V15.0569C1.98882 15.3694 2.24449 15.6251 2.557 15.6251L2.55694 15.6249ZM4.82967 4.26123V3.69305C4.82967 2.31521 5.92625 1.19159 7.29203 1.14123C7.86874 1.61068 8.23876 2.32517 8.23876 3.12487V4.26123H4.82967ZM9.94331 3.69305V4.26123H8.80694V3.12487C8.80694 2.42885 8.57542 1.7875 8.18905 1.26687C9.20682 1.60423 9.94331 2.56374 9.94331 3.69305ZM3.12512 3.12487C3.12512 1.71507 4.27214 0.568138 5.68185 0.568138C5.96382 0.568138 6.23512 0.615724 6.48938 0.700951C5.20245 1.08731 4.26138 2.28191 4.26138 3.69313V4.26131H3.12502L3.12512 3.12487Z" fill="var(--fill-0, black)"/>
<path id="Vector_3" d="M12.5 10.7951C12.5 12.2071 11.3551 13.3519 9.94327 13.3519C8.53143 13.3519 7.38654 12.207 7.38654 10.7951C7.38654 9.38331 8.53143 8.23841 9.94327 8.23841C11.3551 8.23841 12.5 9.38331 12.5 10.7951Z" fill="var(--fill-0, black)"/>
<path id="Vector_4" d="M6.60511 10.7951C6.60511 12.636 8.10299 14.1331 9.94311 14.1331C10.48 14.1331 10.9857 14.0032 11.4353 13.7766C11.3415 13.9854 11.3785 14.239 11.5504 14.4108C11.772 14.6324 12.132 14.6324 12.3536 14.4108V14.4101L13.9594 16.016C14.2918 16.3512 14.8316 16.3512 15.164 16.016C15.4992 15.6836 15.4992 15.1438 15.164 14.8114L13.5582 13.2056L13.5589 13.2049C13.7805 12.9833 13.7805 12.6232 13.5589 12.4016C13.387 12.2297 13.1335 12.1928 12.9246 12.2865C13.1505 11.837 13.2812 11.3313 13.2812 10.7944C13.2812 8.95346 11.7833 7.45637 9.94317 7.45637C8.10304 7.45637 6.60517 8.95353 6.60517 10.7944L6.60511 10.7951ZM12.8551 10.7951C12.8551 11.2923 12.7294 11.7603 12.5092 12.1694C12.4496 12.2809 12.3807 12.3868 12.3068 12.489C12.2884 12.5146 12.2692 12.5395 12.25 12.565C12.174 12.6637 12.0938 12.7596 12.0057 12.8477L11.9957 12.8576C11.9077 12.9457 11.8118 13.026 11.7131 13.102C11.6882 13.1211 11.6633 13.1403 11.6378 13.1581C11.5355 13.2319 11.4297 13.3008 11.3182 13.3605C10.9084 13.5807 10.4403 13.7064 9.94318 13.7064C8.33736 13.7064 7.03118 12.4003 7.03118 10.7944C7.03118 9.18854 8.33729 7.88236 9.94318 7.88236C11.5491 7.88236 12.8552 9.18847 12.8552 10.7944L12.8551 10.7951Z" fill="var(--fill-0, black)"/>
</g>
</svg>
