<svg preserveAspectRatio="none" width="100%" height="100%" overflow="visible" style="display: block;" viewBox="0 0 20 20" fill="none" xmlns="http://www.w3.org/2000/svg">
<path id="Vector" d="M19.9973 15.23C19.9973 15.957 19.5923 17.357 18.6823 18.126C18.5003 18.266 18.3183 18.187 18.3983 17.983C18.6633 17.335 19.2693 15.836 18.9853 15.491C18.7843 15.229 17.9543 15.249 17.2463 15.309C16.9233 15.35 16.6393 15.369 16.4193 15.414C16.2153 15.43 16.1743 15.251 16.3783 15.111C16.6441 14.9236 16.9377 14.7792 17.2483 14.683C18.3983 14.339 19.7273 14.546 19.9183 14.766C19.9543 14.808 19.9973 14.927 19.9973 15.23ZM18.0753 16.523C17.8124 16.7258 17.5353 16.9096 17.2463 17.073C15.1243 18.348 12.3753 19.016 9.98831 19.016C6.14531 19.016 2.70831 17.599 0.100309 15.228C-0.123691 15.046 0.0613092 14.782 0.323309 14.925C3.13331 16.565 6.61131 17.557 10.2113 17.557C12.4773 17.557 14.9193 17.133 17.2463 16.221C17.4093 16.16 17.5913 16.077 17.7503 16.019C18.1173 15.854 18.4403 16.261 18.0753 16.523ZM11.9053 5.493C11.9053 4.452 11.9473 3.839 11.6023 3.313C11.2963 2.88 10.7693 2.62 10.0333 2.661C9.23531 2.705 8.37831 3.228 8.16031 4.187C8.11731 4.407 7.98931 4.623 7.72331 4.67L5.28831 4.36C5.11431 4.32 4.84931 4.187 4.93631 3.839C5.45931 1.088 7.81031 0.129 10.0343 0H10.5563C11.7763 0 13.3443 0.349 14.3473 1.264C15.5643 2.4 15.4343 3.926 15.4343 5.584V9.511C15.4343 10.689 15.9123 11.211 16.3923 11.825C16.5223 12.044 16.5673 12.302 16.3483 12.48C15.7183 13.0417 15.0792 13.5931 14.4313 14.134C14.2563 14.267 13.9423 14.281 13.8213 14.179C13.0513 13.534 12.8633 13.176 12.3863 12.521C11.5563 13.392 10.8593 13.873 10.0303 14.134C9.44739 14.2823 8.84779 14.3549 8.24631 14.35C6.15631 14.35 4.50131 13.047 4.50131 10.47C4.50131 8.421 5.59131 7.028 7.20131 6.369C8.81131 5.709 11.1513 5.499 11.9053 5.495M11.4283 10.687C11.9483 9.815 11.9053 9.101 11.9053 7.502C11.2533 7.502 10.5993 7.547 10.0343 7.68C8.98931 7.983 8.15931 8.64 8.15931 10.035C8.15931 11.125 8.72731 11.867 9.68531 11.867C9.81731 11.867 9.93331 11.852 10.0333 11.822C10.7033 11.636 11.1213 11.3 11.4283 10.687Z" fill="var(--fill-0, black)"/>
</svg>
