<svg preserveAspectRatio="none" width="100%" height="100%" overflow="visible" style="display: block;" viewBox="0 0 20 20" fill="none" xmlns="http://www.w3.org/2000/svg">
<g id="ri:amazon-fill">
<rect width="20" height="20" rx="3.2" fill="var(--fill-0, #072929)"/>
<g id="Vector">
<path d="M15.7264 9.45429C15.9088 9.69771 16 9.82 16 10C16 10.1806 15.9088 10.3023 15.7264 10.5457C14.9068 11.6406 12.8134 14 10 14C7.186 14 5.0932 11.64 4.2736 10.5457C4.0912 10.3023 4 10.18 4 10C4 9.81943 4.0912 9.69771 4.2736 9.45429C5.0932 8.35943 7.1866 6 10 6C12.814 6 14.9068 8.36 15.7264 9.45429Z" stroke="var(--stroke-0, #F9F9F6)"/>
<path d="M11.8 10C11.8 9.54534 11.6104 9.10931 11.2728 8.78782C10.9352 8.46633 10.4774 8.28571 10 8.28571C9.52261 8.28571 9.06477 8.46633 8.72721 8.78782C8.38964 9.10931 8.2 9.54534 8.2 10C8.2 10.4547 8.38964 10.8907 8.72721 11.2122C9.06477 11.5337 9.52261 11.7143 10 11.7143C10.4774 11.7143 10.9352 11.5337 11.2728 11.2122C11.6104 10.8907 11.8 10.4547 11.8 10Z" stroke="var(--stroke-0, #F9F9F6)"/>
</g>
</g>
</svg>
