<svg preserveAspectRatio="none" width="100%" height="100%" overflow="visible" style="display: block;" viewBox="0 0 17 17" fill="none" xmlns="http://www.w3.org/2000/svg">
<path id="Vector" d="M8.00363 0.000922446C3.65285 0.0673287 0.0965983 3.6017 0.00206708 7.95483C-0.0310376 9.41901 0.334032 10.8647 1.05832 12.1376C1.08677 12.1874 1.12835 12.2284 1.17853 12.2561C1.2287 12.2838 1.28553 12.2972 1.34279 12.2947C1.40006 12.2923 1.45556 12.2742 1.50321 12.2424C1.55087 12.2105 1.58885 12.1662 1.613 12.1142C2.19976 10.868 2.50313 9.50726 2.50129 8.12983C2.4999 7.28614 2.68894 6.45301 3.0543 5.69253C3.41966 4.93204 3.95193 4.26382 4.61144 3.73764C4.67613 3.68706 4.75014 3.64972 4.82926 3.62774C4.90838 3.60577 4.99105 3.59959 5.07256 3.60957C5.15406 3.61954 5.2328 3.64547 5.30429 3.68588C5.37577 3.72629 5.4386 3.78038 5.48918 3.84506C5.53976 3.90975 5.5771 3.98376 5.59907 4.06288C5.62105 4.142 5.62723 4.22467 5.61725 4.30618C5.60728 4.38768 5.58134 4.46643 5.54094 4.53791C5.50053 4.60939 5.44644 4.67222 5.38175 4.7228C4.87191 5.13239 4.46071 5.65142 4.17862 6.24145C3.89652 6.83147 3.75074 7.4774 3.75207 8.13139C3.75405 10.0077 3.25655 11.8508 2.31066 13.4712C2.2756 13.5308 2.26125 13.6003 2.26988 13.6688C2.2785 13.7374 2.3096 13.8011 2.35832 13.8501C2.51457 14.0064 2.67785 14.1626 2.8466 14.3048C2.88118 14.3339 2.92165 14.3551 2.96522 14.367C3.00879 14.3789 3.05443 14.3812 3.09898 14.3738C3.14353 14.3664 3.18595 14.3494 3.2233 14.324C3.26065 14.2986 3.29206 14.2654 3.31535 14.2267C4.00695 13.0785 4.49807 11.821 4.76769 10.508C4.80074 10.3455 4.89697 10.2028 5.0352 10.1113C5.17344 10.0199 5.34236 9.98701 5.5048 10.0201C5.66725 10.0531 5.80991 10.1493 5.90141 10.2876C5.9929 10.4258 6.02574 10.5947 5.99269 10.7572C5.69053 12.2387 5.13357 13.6567 4.3466 14.9478C4.3244 14.9845 4.31001 15.0254 4.3043 15.0679C4.29859 15.1104 4.3017 15.1536 4.31342 15.1949C4.32515 15.2362 4.34524 15.2746 4.37246 15.3077C4.39967 15.3409 4.43342 15.3681 4.4716 15.3876C4.66457 15.4853 4.86222 15.5759 5.063 15.6587C5.13233 15.6884 5.21006 15.6921 5.28186 15.6689C5.35365 15.6458 5.41466 15.5975 5.45363 15.533C6.79583 13.3035 7.50409 10.7501 7.50207 8.1478C7.50046 7.98736 7.55941 7.83221 7.66715 7.71332C7.77489 7.59443 7.9235 7.52054 8.08332 7.50639C8.169 7.50038 8.255 7.51209 8.33595 7.5408C8.4169 7.5695 8.49107 7.61459 8.55382 7.67323C8.61657 7.73188 8.66656 7.80283 8.70067 7.88166C8.73478 7.96049 8.75228 8.0455 8.75207 8.13139C8.75516 10.7884 8.07707 13.4017 6.78254 15.722C6.75762 15.7665 6.74394 15.8163 6.7427 15.8672C6.74145 15.9182 6.75268 15.9686 6.77541 16.0142C6.79813 16.0598 6.83166 16.0992 6.87307 16.1289C6.91448 16.1586 6.96252 16.1777 7.013 16.1845C7.24998 16.2173 7.48983 16.2397 7.73254 16.2517C7.79088 16.2539 7.84867 16.2397 7.89935 16.2107C7.95002 16.1817 7.99156 16.139 8.01925 16.0876C9.3185 13.6572 9.99947 10.9443 10.0021 8.18842C10.006 7.15327 9.19738 6.27514 8.16301 6.25561C7.91416 6.25084 7.66686 6.29566 7.43552 6.38745C7.20418 6.47925 6.99343 6.61618 6.81556 6.79027C6.63769 6.96436 6.49625 7.17212 6.39951 7.40144C6.30277 7.63075 6.25264 7.87704 6.25207 8.12592C6.25092 8.282 6.19214 8.43214 6.08701 8.54751C5.98189 8.66287 5.83783 8.73532 5.68254 8.75092C5.59592 8.75864 5.50864 8.7482 5.42629 8.72026C5.34394 8.69233 5.26833 8.64752 5.20428 8.58869C5.14023 8.52987 5.08917 8.45833 5.05435 8.37864C5.01953 8.29896 5.00172 8.21288 5.00207 8.12592C5.00204 7.71277 5.08395 7.30371 5.24304 6.92241C5.40214 6.54111 5.63526 6.19515 5.92893 5.90453C6.2226 5.61392 6.57098 5.38442 6.95391 5.22932C7.33685 5.07421 7.74675 4.99658 8.15988 5.00092C9.87863 5.01889 11.2599 6.49858 11.2513 8.21655C11.2436 10.7648 10.6973 13.2826 9.64816 15.6048C9.62432 15.6583 9.61599 15.7174 9.62411 15.7754C9.63224 15.8334 9.6565 15.888 9.69413 15.9328C9.73175 15.9777 9.78123 16.0111 9.83692 16.0292C9.89261 16.0473 9.95227 16.0494 10.0091 16.0353C10.2801 15.971 10.5477 15.8927 10.8107 15.8009C10.8516 15.7864 10.8891 15.7634 10.9208 15.7336C10.9524 15.7037 10.9774 15.6676 10.9943 15.6275C11.358 14.7653 11.6578 13.8775 11.8911 12.9712C11.9116 12.8917 11.9476 12.817 11.997 12.7514C12.0464 12.6858 12.1082 12.6306 12.179 12.5889C12.2497 12.5472 12.3279 12.5198 12.4093 12.5083C12.4906 12.4968 12.5733 12.5015 12.6528 12.522C12.7324 12.5425 12.8071 12.5785 12.8727 12.6279C12.9383 12.6773 12.9935 12.7391 13.0352 12.8098C13.0769 12.8806 13.1043 12.9588 13.1158 13.0401C13.1272 13.1214 13.1226 13.2042 13.1021 13.2837C13.0437 13.5113 12.9812 13.7379 12.9146 13.9634C12.8949 14.0284 12.897 14.0979 12.9204 14.1616C12.9438 14.2252 12.9872 14.2796 13.0442 14.3164C13.1012 14.3532 13.1686 14.3704 13.2363 14.3655C13.3039 14.3606 13.3682 14.3338 13.4193 14.2892C14.6862 13.2013 15.5871 11.7494 15.9995 10.1311C16.4118 8.51287 16.3155 6.80688 15.7236 5.24533C15.1317 3.68378 14.0731 2.34253 12.6917 1.40413C11.3104 0.465729 9.67339 -0.0242349 8.00363 0.000922446ZM13.5958 10.7103C13.5768 10.8611 13.5035 10.9998 13.3896 11.1005C13.2757 11.2011 13.1291 11.2568 12.9771 11.2572C12.951 11.2572 12.9249 11.2557 12.8989 11.2525C12.8175 11.2423 12.7388 11.2162 12.6674 11.1757C12.596 11.1351 12.5334 11.0809 12.4829 11.0161C12.4325 10.9514 12.3953 10.8773 12.3736 10.7981C12.3518 10.719 12.3458 10.6363 12.356 10.5548C12.4555 9.75137 12.5056 8.94256 12.506 8.13295C12.5043 6.97314 12.0429 5.8613 11.2227 5.04119C10.4026 4.22107 9.29079 3.75961 8.13097 3.75795C7.94817 3.75792 7.76553 3.76913 7.5841 3.79155C7.41948 3.81227 7.25337 3.76674 7.12231 3.66499C6.99126 3.56324 6.90599 3.41359 6.88527 3.24897C6.86455 3.08435 6.91007 2.91824 7.01183 2.78718C7.11358 2.65613 7.26323 2.57086 7.42785 2.55014C8.21977 2.45163 9.02359 2.52252 9.78605 2.75811C10.5485 2.9937 11.2522 3.38861 11.8505 3.91668C12.4488 4.44475 12.9281 5.09393 13.2566 5.82121C13.5851 6.54849 13.7553 7.33727 13.756 8.1353C13.7558 8.99611 13.7023 9.85609 13.5958 10.7103Z" fill="var(--fill-0, black)"/>
</svg>
