<svg preserveAspectRatio="none" width="100%" height="100%" overflow="visible" style="display: block;" viewBox="0 0 15 15" fill="none" xmlns="http://www.w3.org/2000/svg">
<path id="Vector" d="M0.814286 4.1325C1.45131 2.89015 2.42818 1.84579 3.63582 1.11605C4.84345 0.386304 6.23431 -9.48652e-05 7.65306 1.74701e-08C9.71556 1.74701e-08 11.4482 0.74325 12.773 1.95375L10.5788 4.10475C9.7852 3.3615 8.77653 2.98275 7.65306 2.98275C5.65944 2.98275 3.97194 4.30275 3.37117 6.075C3.21811 6.525 3.13087 7.005 3.13087 7.5C3.13087 7.995 3.21811 8.475 3.37117 8.925C3.9727 10.698 5.65944 12.0173 7.65306 12.0173C8.6824 12.0173 9.55867 11.751 10.2444 11.301C10.6419 11.0445 10.9822 10.7117 11.2448 10.3226C11.5074 9.93357 11.6867 9.49639 11.7719 9.0375H7.65306V6.1365H14.8607C14.951 6.627 15 7.1385 15 7.67025C15 9.95475 14.1658 11.8777 12.7179 13.1827C11.452 14.3287 9.71939 15 7.65306 15C6.64793 15.0004 5.65258 14.8067 4.72389 14.4299C3.79519 14.0531 2.95137 13.5007 2.24063 12.8042C1.5299 12.1077 0.966196 11.2807 0.581736 10.3706C0.197276 9.46047 -0.00040168 8.48502 6.12792e-07 7.5C6.12792e-07 6.2895 0.295409 5.145 0.814286 4.1325Z" fill="var(--fill-0, white)"/>
</svg>
