<svg preserveAspectRatio="none" width="100%" height="100%" overflow="visible" style="display: block;" viewBox="0 0 20 20" fill="none" xmlns="http://www.w3.org/2000/svg">
<g id="ri:amazon-fill">
<rect width="20" height="20" rx="3.2" fill="var(--fill-0, #F9F9F6)"/>
<path id="Vector" d="M8.1822 10.6792L5.24389 12.0094C5.104 12.1342 5.01774 12.3061 5.00245 12.4904C4.98715 12.6747 5.04396 12.8579 5.16145 13.003C5.39769 13.396 5.81113 13.5838 6.08428 13.4266L8.74144 11.62C8.81794 11.531 8.86144 11.4195 8.8649 11.3034C8.86837 11.1874 8.83159 11.0736 8.76051 10.9804C8.7134 10.8737 8.63052 10.7858 8.52544 10.731C8.42036 10.6763 8.29933 10.658 8.1822 10.6792ZM12.8284 10.6798C12.6438 10.609 12.3977 10.7398 12.2488 10.9828C12.1793 11.0757 12.1431 11.1884 12.146 11.3035C12.1489 11.4185 12.1907 11.5293 12.2648 11.6188L14.9195 13.4296C15.1951 13.5832 15.6104 13.3966 15.8467 13.003C16.0829 12.6094 16.0368 12.163 15.7636 12.0094L12.8284 10.6798ZM10.5047 11.9626C10.3868 11.9488 10.2676 11.9742 10.1664 12.0348C10.0653 12.0953 9.98804 12.1875 9.94728 12.2962L9.66058 15.4372C9.66058 15.748 10.0334 16 10.5047 16C10.9759 16 11.3481 15.748 11.3481 15.4372L11.0639 12.2962C11.0227 12.1874 10.9451 12.0953 10.8437 12.0348C10.7422 11.9742 10.6228 11.9488 10.5047 11.9626ZM12.2488 9.0202C12.2975 9.12618 12.3807 9.21354 12.4855 9.26875C12.5903 9.32396 12.7108 9.34394 12.8284 9.3256L15.7667 7.993C16.0398 7.8358 16.0805 7.396 15.8497 7.0006C15.619 6.6052 15.1982 6.4186 14.9226 6.5722L12.2679 8.38C12.1932 8.47041 12.1512 8.5823 12.1483 8.69836C12.1454 8.81441 12.1818 8.92816 12.2519 9.022L12.2488 9.0202ZM6.08675 6.5734C5.81112 6.4162 5.39769 6.6034 5.16391 6.9994C5.04642 7.14455 4.98961 7.32768 5.00491 7.512C5.0202 7.69632 5.10646 7.86817 5.24635 7.993L8.1822 9.322C8.29918 9.34325 8.4201 9.32515 8.52516 9.27065C8.63022 9.21615 8.7132 9.12848 8.76051 9.022C8.83143 8.9289 8.86812 8.81521 8.86466 8.69927C8.8612 8.58334 8.81779 8.47192 8.74144 8.383L6.08675 6.5734ZM10.5047 4C10.0334 4 9.66058 4.2544 9.66058 4.5658L9.95097 7.7062C9.99158 7.81427 10.0682 7.90591 10.1687 7.9664C10.2691 8.0269 10.3874 8.05275 10.5047 8.0398C10.6228 8.05359 10.7422 8.02817 10.8437 7.96765C10.9451 7.90712 11.0227 7.81502 11.0639 7.7062L11.3481 4.5658C11.3488 4.2544 10.9735 4 10.5047 4Z" fill="var(--fill-0, #072929)"/>
</g>
</svg>
