<svg preserveAspectRatio="none" width="100%" height="100%" overflow="visible" style="display: block;" viewBox="0 0 22 14" fill="none" xmlns="http://www.w3.org/2000/svg">
<path id="Vector" fill-rule="evenodd" clip-rule="evenodd" d="M6.75 13.5H14.602C16.3922 13.5 18.1091 12.7888 19.375 11.523C20.6408 10.2571 21.352 8.54021 21.352 6.75C21.352 4.95979 20.6408 3.2429 19.375 1.97703C18.1091 0.711159 16.3922 0 14.602 0H6.75C4.95979 0 3.2429 0.711159 1.97703 1.97703C0.711159 3.2429 0 4.95979 0 6.75C0 8.54021 0.711159 10.2571 1.97703 11.523C3.2429 12.7888 4.95979 13.5 6.75 13.5ZM6.75 12C5.35761 12 4.02226 11.4469 3.03769 10.4623C2.05312 9.47774 1.5 8.14239 1.5 6.75C1.5 5.35761 2.05312 4.02226 3.03769 3.03769C4.02226 2.05312 5.35761 1.5 6.75 1.5H14.602C15.9944 1.5 17.3297 2.05312 18.3143 3.03769C19.2989 4.02226 19.852 5.35761 19.852 6.75C19.852 8.14239 19.2989 9.47774 18.3143 10.4623C17.3297 11.4469 15.9944 12 14.602 12H6.75Z" fill="var(--fill-0, #808080)"/>
</svg>
