<svg preserveAspectRatio="none" width="100%" height="100%" overflow="visible" style="display: block;" viewBox="0 0 16 15" fill="none" xmlns="http://www.w3.org/2000/svg">
<path id="Vector" d="M16 12.0136C16 12.587 15.676 13.6914 14.9479 14.298C14.8022 14.4084 14.6566 14.3461 14.7206 14.1852C14.9327 13.674 15.4175 12.4916 15.1903 12.2194C15.0295 12.0128 14.3654 12.0286 13.7989 12.0759C13.5405 12.1082 13.3132 12.1232 13.1372 12.1587C12.974 12.1713 12.9412 12.0301 13.1044 11.9197C13.317 11.7719 13.5519 11.6579 13.8005 11.5821C14.7206 11.3107 15.784 11.474 15.9368 11.6476C15.9656 11.6807 16 11.7746 16 12.0136ZM14.4622 13.0335C14.2518 13.1934 14.0302 13.3384 13.7989 13.4673C12.1011 14.4731 9.90158 15 7.99172 15C4.91691 15 2.16694 13.8823 0.0802581 12.012C-0.098966 11.8684 0.049054 11.6602 0.258682 11.773C2.50698 13.0666 5.28976 13.8491 8.17015 13.8491C9.98319 13.8491 11.9371 13.5147 13.7989 12.7953C13.9293 12.7472 14.0749 12.6817 14.2022 12.6359C14.4958 12.5058 14.7542 12.8268 14.4622 13.0335ZM9.52553 4.33293C9.52553 3.51178 9.55913 3.02824 9.2831 2.61333C9.03826 2.27177 8.61661 2.06668 8.02773 2.09902C7.38924 2.13373 6.70355 2.54628 6.52913 3.30274C6.49472 3.47628 6.39231 3.64667 6.17948 3.68374L4.23122 3.43921C4.092 3.40766 3.87997 3.30275 3.94958 3.02824C4.36804 0.858225 6.24909 0.101756 8.02853 0H8.44618C9.42231 0 10.6769 0.275294 11.4794 0.997055C12.4531 1.89314 12.3491 3.09687 12.3491 4.40471V7.50237C12.3491 8.43158 12.7316 8.84334 13.1156 9.32767C13.2196 9.50042 13.2556 9.70393 13.0804 9.84434C12.5763 10.2874 12.065 10.7223 11.5466 11.149C11.4066 11.2539 11.1553 11.265 11.0585 11.1845C10.4425 10.6757 10.292 10.3934 9.91038 9.87668C9.24629 10.5637 8.68862 10.9432 8.02533 11.149C7.55893 11.2661 7.07918 11.3233 6.59794 11.3194C4.92571 11.3194 3.60153 10.2916 3.60153 8.25883C3.60153 6.64256 4.47365 5.54375 5.76182 5.02393C7.05 4.50331 8.92225 4.33766 9.52553 4.33451M9.14388 8.43001C9.55993 7.74216 9.52553 7.17895 9.52553 5.91765C9.00386 5.91765 8.48059 5.95314 8.02853 6.05806C7.19242 6.29707 6.52833 6.81531 6.52833 7.9157C6.52833 8.7755 6.98279 9.3608 7.74929 9.3608C7.8549 9.3608 7.94772 9.34897 8.02773 9.3253C8.5638 9.17859 8.89824 8.91355 9.14388 8.43001Z" fill="var(--fill-0, black)"/>
</svg>
