<svg preserveAspectRatio="none" width="100%" height="100%" overflow="visible" style="display: block;" viewBox="0 0 20 20" fill="none" xmlns="http://www.w3.org/2000/svg">
<g id="ri:amazon-fill">
<rect width="20" height="20" rx="3.2" fill="var(--fill-0, #072929)"/>
<path id="Vector" d="M9.65385 5.71429H11.3462C11.3462 5.48696 11.257 5.26894 11.0983 5.10819C10.9396 4.94745 10.7244 4.85714 10.5 4.85714C10.2756 4.85714 10.0604 4.94745 9.90168 5.10819C9.74299 5.26894 9.65385 5.48696 9.65385 5.71429ZM8.80769 5.71429C8.80769 5.25963 8.98599 4.82359 9.30336 4.5021C9.62073 4.18061 10.0512 4 10.5 4C10.9488 4 11.3793 4.18061 11.6966 4.5021C12.014 4.82359 12.1923 5.25963 12.1923 5.71429H15.5769C15.6891 5.71429 15.7967 5.75944 15.8761 5.83981C15.9554 5.92018 16 6.02919 16 6.14286C16 6.25652 15.9554 6.36553 15.8761 6.4459C15.7967 6.52628 15.6891 6.57143 15.5769 6.57143H15.0997L14.0801 14.1469C14.0109 14.6602 13.7605 15.1308 13.3751 15.4715C12.9898 15.8123 12.4956 16 11.9842 16H9.01585C8.50436 16 8.0102 15.8123 7.62485 15.4715C7.23951 15.1308 6.98908 14.6602 6.91992 14.1469L5.90031 6.57143H5.42308C5.31087 6.57143 5.20326 6.52628 5.12392 6.4459C5.04457 6.36553 5 6.25652 5 6.14286C5 6.02919 5.04457 5.92018 5.12392 5.83981C5.20326 5.75944 5.31087 5.71429 5.42308 5.71429H8.80769ZM9.65385 8.71429C9.65385 8.60062 9.60927 8.49161 9.52993 8.41124C9.45059 8.33087 9.34298 8.28571 9.23077 8.28571C9.11856 8.28571 9.01095 8.33087 8.93161 8.41124C8.85227 8.49161 8.80769 8.60062 8.80769 8.71429V13C8.80769 13.1137 8.85227 13.2227 8.93161 13.303C9.01095 13.3834 9.11856 13.4286 9.23077 13.4286C9.34298 13.4286 9.45059 13.3834 9.52993 13.303C9.60927 13.2227 9.65385 13.1137 9.65385 13V8.71429ZM11.7692 8.28571C11.8814 8.28571 11.989 8.33087 12.0684 8.41124C12.1477 8.49161 12.1923 8.60062 12.1923 8.71429V13C12.1923 13.1137 12.1477 13.2227 12.0684 13.303C11.989 13.3834 11.8814 13.4286 11.7692 13.4286C11.657 13.4286 11.5494 13.3834 11.4701 13.303C11.3907 13.2227 11.3462 13.1137 11.3462 13V8.71429C11.3462 8.60062 11.3907 8.49161 11.4701 8.41124C11.5494 8.33087 11.657 8.28571 11.7692 8.28571ZM7.75846 14.0311C7.79999 14.3391 7.95024 14.6214 8.18141 14.8258C8.41257 15.0302 8.70901 15.1428 9.01585 15.1429H11.9842C12.2911 15.143 12.5878 15.0305 12.8191 14.8261C13.0505 14.6217 13.2008 14.3393 13.2424 14.0311L14.2459 6.57143H6.75408L7.75846 14.0311Z" fill="var(--fill-0, #F9F9F6)"/>
</g>
</svg>
