<svg preserveAspectRatio="none" width="100%" height="100%" overflow="visible" style="display: block;" viewBox="0 0 8 14" fill="none" xmlns="http://www.w3.org/2000/svg">
<path id="Vector" d="M3.28527 8.53747V12.7164C3.28527 13.0418 3.43144 13.2402 3.72379 13.3118C4.01613 13.3834 4.24026 13.2764 4.39618 12.9909L7.93356 5.76169C8.03101 5.55834 8.02126 5.36027 7.90432 5.16749C7.78739 4.97471 7.62172 4.87791 7.40734 4.8771H4.86393V0.637175C4.86393 0.311809 4.71776 0.108455 4.42542 0.0271138C4.13307 -0.0542277 3.90894 0.0474492 3.75302 0.332145L0.0694734 7.65288C-0.027975 7.87657 -0.0229071 8.07992 0.0846759 8.26294C0.192259 8.44596 0.352853 8.53747 0.56646 8.53747H3.28527Z" fill="var(--fill-0, #FFB65C)"/>
</svg>
