<svg preserveAspectRatio="none" width="100%" height="100%" overflow="visible" style="display: block;" viewBox="0 0 15 15" fill="none" xmlns="http://www.w3.org/2000/svg">
<path id="Vector" d="M7.20327 0.000830202C3.28756 0.0605958 0.0869385 3.24153 0.00186037 7.15935C-0.0279338 8.47711 0.300629 9.77824 0.952485 10.9239C0.978091 10.9687 1.01552 11.0055 1.06067 11.0305C1.10583 11.0554 1.15698 11.0675 1.20851 11.0653C1.26005 11.0631 1.31 11.0468 1.35289 11.0181C1.39578 10.9895 1.42997 10.9496 1.4517 10.9028C1.97979 9.78119 2.25281 8.55654 2.25116 7.31685C2.24991 6.55752 2.42004 5.80771 2.74887 5.12327C3.07769 4.43884 3.55674 3.83744 4.1503 3.36388C4.20852 3.31836 4.27513 3.28475 4.34634 3.26497C4.41754 3.24519 4.49195 3.23963 4.5653 3.24861C4.63866 3.25759 4.70952 3.28093 4.77386 3.31729C4.83819 3.35366 4.89474 3.40234 4.94026 3.46056C4.98578 3.51877 5.01939 3.58539 5.03917 3.65659C5.05894 3.7278 5.0645 3.80221 5.05553 3.87556C5.04655 3.94891 5.02321 4.01978 4.98684 4.08412C4.95048 4.14845 4.9018 4.205 4.84358 4.25052C4.38472 4.61915 4.01464 5.08628 3.76075 5.6173C3.50687 6.14833 3.37566 6.72966 3.37686 7.31825C3.37865 9.00695 2.9309 10.6657 2.07959 12.1241C2.04804 12.1777 2.03513 12.2402 2.04289 12.3019C2.05065 12.3636 2.07864 12.421 2.12249 12.4651C2.26311 12.6058 2.41006 12.7464 2.56194 12.8743C2.59306 12.9005 2.62949 12.9196 2.6687 12.9303C2.70791 12.941 2.74898 12.9431 2.78908 12.9364C2.82918 12.9297 2.86735 12.9144 2.90097 12.8916C2.93459 12.8687 2.96285 12.8389 2.98381 12.804C3.60625 11.7706 4.04827 10.6389 4.29092 9.45716C4.32067 9.31096 4.40727 9.18256 4.53168 9.10021C4.65609 9.01787 4.80812 8.98831 4.95432 9.01806C5.10052 9.0478 5.22892 9.1344 5.31127 9.25881C5.39361 9.38323 5.42317 9.53525 5.39342 9.68145C5.12147 11.0149 4.62021 12.291 3.91194 13.453C3.89196 13.4861 3.87901 13.5228 3.87387 13.5611C3.86873 13.5994 3.87153 13.6383 3.88208 13.6754C3.89263 13.7126 3.91072 13.7471 3.93521 13.777C3.9597 13.8068 3.99008 13.8313 4.02444 13.8489C4.19811 13.9368 4.376 14.0183 4.5567 14.0929C4.6191 14.1196 4.68906 14.1229 4.75367 14.1021C4.81828 14.0812 4.87319 14.0378 4.90827 13.9797C6.11625 11.9732 6.75368 9.67506 6.75186 7.33302C6.75041 7.18862 6.80347 7.04899 6.90043 6.94199C6.9974 6.83499 7.13115 6.76849 7.27499 6.75575C7.3521 6.75034 7.4295 6.76088 7.50236 6.78672C7.57521 6.81255 7.64196 6.85313 7.69844 6.90591C7.75492 6.95869 7.79991 7.02255 7.83061 7.09349C7.8613 7.16444 7.87705 7.24095 7.87686 7.31825C7.87965 9.70952 7.26936 12.0616 6.10428 14.1498C6.08185 14.1898 6.06955 14.2347 6.06843 14.2805C6.06731 14.3264 6.07742 14.3718 6.09787 14.4128C6.11832 14.4539 6.14849 14.4893 6.18576 14.516C6.22303 14.5427 6.26627 14.5599 6.3117 14.5661C6.52499 14.5956 6.74084 14.6158 6.95928 14.6265C7.01179 14.6285 7.0638 14.6157 7.10941 14.5896C7.15502 14.5635 7.19241 14.5251 7.21733 14.4789C8.38665 12.2915 8.99952 9.84989 9.00186 7.36958C9.00538 6.43794 8.27764 5.64763 7.3467 5.63005C7.12275 5.62576 6.90017 5.66609 6.69197 5.74871C6.48376 5.83132 6.29408 5.95457 6.134 6.11125C5.97392 6.26793 5.84663 6.45491 5.75956 6.66129C5.67249 6.86768 5.62738 7.08933 5.62686 7.31333C5.62583 7.4538 5.57292 7.58893 5.47831 7.69276C5.3837 7.79659 5.25405 7.86179 5.11428 7.87583C5.03633 7.88278 4.95778 7.87338 4.88366 7.84824C4.80955 7.8231 4.74149 7.78277 4.68385 7.72982C4.62621 7.67688 4.58025 7.61249 4.54892 7.54078C4.51758 7.46906 4.50155 7.39159 4.50186 7.31333C4.50184 6.94149 4.57555 6.57334 4.71874 6.23017C4.86192 5.887 5.07174 5.57563 5.33604 5.31408C5.60034 5.05252 5.91388 4.84598 6.25852 4.70638C6.60317 4.56679 6.97207 4.49693 7.34389 4.50083C8.89077 4.517 10.1339 5.84872 10.1262 7.39489C10.1192 9.68829 9.62755 11.9543 8.68334 14.0443C8.66189 14.0925 8.65439 14.1457 8.6617 14.1979C8.66902 14.2501 8.69085 14.2992 8.72471 14.3396C8.75858 14.3799 8.80311 14.41 8.85323 14.4263C8.90335 14.4426 8.95704 14.4445 9.00819 14.4318C9.25211 14.3739 9.4929 14.3035 9.7296 14.2208C9.76648 14.2077 9.80023 14.1871 9.82868 14.1602C9.85714 14.1333 9.87966 14.1008 9.89483 14.0647C10.2222 13.2888 10.492 12.4897 10.702 11.6741C10.7205 11.6026 10.7529 11.5353 10.7973 11.4763C10.8418 11.4172 10.8974 11.3675 10.9611 11.33C11.0247 11.2924 11.0951 11.2678 11.1683 11.2575C11.2415 11.2472 11.316 11.2513 11.3876 11.2698C11.4591 11.2883 11.5263 11.3207 11.5854 11.3651C11.6444 11.4096 11.6942 11.4652 11.7317 11.5289C11.7692 11.5925 11.7939 11.6629 11.8042 11.7361C11.8145 11.8093 11.8103 11.8838 11.7919 11.9554C11.7394 12.1602 11.6831 12.3641 11.6231 12.5671C11.6055 12.6255 11.6073 12.6881 11.6283 12.7454C11.6494 12.8027 11.6885 12.8516 11.7398 12.8847C11.7911 12.9178 11.8518 12.9334 11.9127 12.929C11.9735 12.9245 12.0313 12.9004 12.0773 12.8603C13.2176 11.8811 14.0284 10.5744 14.3995 9.11801C14.7706 7.66159 14.6839 6.12619 14.1512 4.72079C13.6186 3.3154 12.6658 2.10827 11.4225 1.26371C10.1793 0.419156 8.70605 -0.0218114 7.20327 0.000830202ZM12.2362 9.63927C12.2191 9.77499 12.1532 9.89984 12.0507 9.99043C11.9482 10.081 11.8162 10.1312 11.6794 10.1315C11.6559 10.1315 11.6324 10.1301 11.609 10.1272C11.5357 10.1181 11.4649 10.0946 11.4007 10.0581C11.3364 10.0216 11.28 9.97283 11.2346 9.91452C11.1893 9.85622 11.1558 9.78954 11.1362 9.7183C11.1166 9.64706 11.1112 9.57266 11.1204 9.49935C11.21 8.77623 11.2551 8.0483 11.2554 7.31966C11.2539 6.27583 10.8386 5.27517 10.1005 4.53707C9.36236 3.79897 8.36171 3.38365 7.31788 3.38216C7.15335 3.38212 6.98898 3.39222 6.82569 3.41239C6.67753 3.43104 6.52803 3.39007 6.41008 3.29849C6.29213 3.20691 6.21539 3.07223 6.19674 2.92407C6.1781 2.77591 6.21907 2.62642 6.31064 2.50847C6.40222 2.39052 6.53691 2.31378 6.68506 2.29513C7.39779 2.20647 8.12123 2.27027 8.80744 2.4823C9.49366 2.69433 10.127 3.04975 10.6655 3.52501C11.204 4.00028 11.6353 4.58454 11.931 5.23909C12.2266 5.89364 12.3798 6.60354 12.3804 7.32177C12.3802 8.0965 12.3321 8.87048 12.2362 9.63927Z" fill="var(--fill-0, black)"/>
</svg>
