<svg preserveAspectRatio="none" width="100%" height="100%" overflow="visible" style="display: block;" viewBox="0 0 15 15" fill="none" xmlns="http://www.w3.org/2000/svg">
<path id="Vector" fill-rule="evenodd" clip-rule="evenodd" d="M0 2.5C0 1.83696 0.263392 1.20107 0.732233 0.732233C1.20107 0.263392 1.83696 0 2.5 0H12.5C13.163 0 13.7989 0.263392 14.2678 0.732233C14.7366 1.20107 15 1.83696 15 2.5V12.5C15 13.163 14.7366 13.7989 14.2678 14.2678C13.7989 14.7366 13.163 15 12.5 15H2.5C1.83696 15 1.20107 14.7366 0.732233 14.2678C0.263392 13.7989 0 13.163 0 12.5V2.5ZM8.33333 4.16667C8.33333 3.94565 8.24554 3.73369 8.08926 3.57741C7.93297 3.42113 7.72101 3.33333 7.5 3.33333C7.27899 3.33333 7.06702 3.42113 6.91074 3.57741C6.75446 3.73369 6.66667 3.94565 6.66667 4.16667V10.8333C6.66667 11.0543 6.75446 11.2663 6.91074 11.4226C7.06702 11.5789 7.27899 11.6667 7.5 11.6667C7.72101 11.6667 7.93297 11.5789 8.08926 11.4226C8.24554 11.2663 8.33333 11.0543 8.33333 10.8333V4.16667ZM5 6.66667C5 6.44565 4.9122 6.23369 4.75592 6.07741C4.59964 5.92113 4.38768 5.83333 4.16667 5.83333C3.94565 5.83333 3.73369 5.92113 3.57741 6.07741C3.42113 6.23369 3.33333 6.44565 3.33333 6.66667V10.8333C3.33333 11.0543 3.42113 11.2663 3.57741 11.4226C3.73369 11.5789 3.94565 11.6667 4.16667 11.6667C4.38768 11.6667 4.59964 11.5789 4.75592 11.4226C4.9122 11.2663 5 11.0543 5 10.8333V6.66667ZM11.6667 9.16667C11.6667 8.94565 11.5789 8.73369 11.4226 8.57741C11.2663 8.42113 11.0543 8.33333 10.8333 8.33333C10.6123 8.33333 10.4004 8.42113 10.2441 8.57741C10.0878 8.73369 10 8.94565 10 9.16667V10.8333C10 11.0543 10.0878 11.2663 10.2441 11.4226C10.4004 11.5789 10.6123 11.6667 10.8333 11.6667C11.0543 11.6667 11.2663 11.5789 11.4226 11.4226C11.5789 11.2663 11.6667 11.0543 11.6667 10.8333V9.16667Z" fill="var(--fill-0, black)"/>
</svg>
