<svg preserveAspectRatio="none" width="100%" height="100%" overflow="visible" style="display: block;" viewBox="0 0 15 14" fill="none" xmlns="http://www.w3.org/2000/svg">
<path id="Vector" fill-rule="evenodd" clip-rule="evenodd" d="M3.23 9.27117C3.7225 10.0784 4.43375 10.7295 5.28126 11.149C6.12878 11.5684 7.07784 11.739 8.01836 11.6409C8.95889 11.5429 9.85236 11.1802 10.5951 10.595C11.3379 10.0098 11.8996 9.22598 12.215 8.33451H13.9567C13.6371 9.56978 12.9698 10.6874 12.0341 11.5549C11.0984 12.4224 9.9335 13.0032 8.67761 13.2285C7.42171 13.4537 6.12754 13.314 4.94867 12.8259C3.76979 12.3377 2.75568 11.5217 2.02667 10.4745L0 12.5012V7.50117H5L3.23 9.27117ZM11.7708 4.06367C11.2781 3.25631 10.5666 2.60516 9.7188 2.18572C8.87104 1.76628 7.92174 1.59574 6.98099 1.69387C6.04024 1.792 5.14658 2.15478 4.40362 2.74015C3.66067 3.32552 3.09885 4.1095 2.78333 5.00117H1.04167C1.36113 3.76543 2.02842 2.64727 2.96433 1.7794C3.90024 0.911527 5.06548 0.330374 6.32179 0.104907C7.57809 -0.120561 8.8727 0.0191221 10.052 0.50738C11.2313 0.995638 12.2458 1.81197 12.975 2.85951L15 0.834506V5.83451H10L11.7708 4.06367Z" fill="var(--fill-0, white)"/>
</svg>
