<svg preserveAspectRatio="none" width="100%" height="100%" overflow="visible" style="display: block;" viewBox="0 0 17 17" fill="none" xmlns="http://www.w3.org/2000/svg">
<path id="Vector" fill-rule="evenodd" clip-rule="evenodd" d="M1.22 1.22C0 2.44167 0 4.405 0 8.33333C0 12.2617 0 14.2258 1.22 15.4458C2.44167 16.6667 4.405 16.6667 8.33333 16.6667C12.2617 16.6667 14.2258 16.6667 15.4458 15.4458C16.6667 14.2267 16.6667 12.2617 16.6667 8.33333C16.6667 4.405 16.6667 2.44083 15.4458 1.22C14.2267 0 12.2617 0 8.33333 0C4.405 0 2.44083 0 1.22 1.22ZM12.98 7.06667C13.0814 6.93885 13.1288 6.77644 13.1121 6.61414C13.0954 6.45184 13.0159 6.30251 12.8905 6.19805C12.7652 6.0936 12.6039 6.0423 12.4413 6.05512C12.2786 6.06794 12.1274 6.14386 12.02 6.26667L10.5225 8.06333C10.2142 8.43417 10.0233 8.66 9.8675 8.80083C9.82674 8.84037 9.78109 8.87453 9.73167 8.9025L9.7225 8.90667L9.71583 8.90333L9.71333 8.9025C9.66362 8.87459 9.61769 8.84043 9.57667 8.80083C9.42083 8.65917 9.23083 8.43417 8.92167 8.06333L8.67833 7.77167C8.405 7.4425 8.1575 7.14667 7.9275 6.93833C7.67667 6.71167 7.36083 6.51 6.94417 6.51C6.5275 6.51 6.2125 6.71167 5.96083 6.93833C5.73083 7.14667 5.48417 7.4425 5.21083 7.77167L3.68583 9.6C3.6333 9.66309 3.59372 9.73591 3.56933 9.8143C3.54494 9.89268 3.53623 9.97511 3.5437 10.0569C3.55878 10.222 3.63884 10.3743 3.76625 10.4804C3.89366 10.5865 4.058 10.6376 4.22311 10.6225C4.38822 10.6075 4.54058 10.5274 4.64667 10.4L6.14417 8.60333C6.4525 8.2325 6.64333 8.00667 6.79917 7.86583C6.83993 7.8263 6.88558 7.79213 6.935 7.76417L6.94083 7.76167L6.94417 7.76L6.95333 7.76417C7.00305 7.79207 7.04898 7.82624 7.09 7.86583C7.24583 8.0075 7.43583 8.2325 7.745 8.60333L7.98833 8.895C8.2625 9.22417 8.50917 9.52 8.73917 9.72833C8.99 9.955 9.30583 10.1567 9.7225 10.1567C10.1392 10.1567 10.4542 9.955 10.7058 9.72833C10.9358 9.52 11.1825 9.22417 11.4558 8.895L12.98 7.06667Z" fill="var(--fill-0, black)"/>
</svg>
