<svg preserveAspectRatio="none" width="100%" height="100%" overflow="visible" style="display: block;" viewBox="0 0 10 7" fill="none" xmlns="http://www.w3.org/2000/svg">
<path id="Vector" d="M6.56191 0.0501953C6.69303 0.0478819 6.8213 0.0833794 6.93105 0.151758L7.03457 0.230859L7.03555 0.232813L9.53555 2.73281C9.66177 2.85934 9.7328 3.03065 9.73281 3.20938C9.73281 3.3881 9.66175 3.55941 9.53555 3.68594V3.68691L7.03555 6.18691L7.03457 6.18594C6.97313 6.25149 6.89983 6.30459 6.81777 6.34121C6.7351 6.37805 6.64556 6.39815 6.55508 6.3998C6.46461 6.4014 6.37435 6.3848 6.29043 6.35098C6.20651 6.31708 6.12985 6.26649 6.06582 6.20254C6.00172 6.13844 5.95036 6.06198 5.91641 5.97793C5.8825 5.89395 5.86601 5.80383 5.86758 5.71328C5.86918 5.62274 5.88935 5.53331 5.92617 5.45059C5.96306 5.36779 6.0161 5.29266 6.08242 5.23086L7.43008 3.88418H0.725C0.545979 3.88418 0.374048 3.8135 0.247461 3.68691C0.120885 3.56033 0.0501953 3.38839 0.0501953 3.20938C0.0502047 3.03037 0.120882 2.85841 0.247461 2.73184C0.374046 2.60526 0.545987 2.53457 0.725 2.53457H7.43008L6.08145 1.18691L6.08047 1.18496C5.96128 1.05705 5.89579 0.888084 5.89883 0.713281C5.90191 0.53841 5.9734 0.371133 6.09707 0.247461C6.22068 0.124026 6.38724 0.0533041 6.56191 0.0501953Z" fill="var(--fill-0, black)" stroke="var(--stroke-0, black)" stroke-width="0.1"/>
</svg>
