<svg preserveAspectRatio="none" width="100%" height="100%" overflow="visible" style="display: block;" viewBox="0 0 20 20" fill="none" xmlns="http://www.w3.org/2000/svg">
<g id="majesticons:analytics">
<path id="Vector" fill-rule="evenodd" clip-rule="evenodd" d="M2 5.16667C2 4.45942 2.28095 3.78115 2.78105 3.28105C3.28115 2.78095 3.95942 2.5 4.66667 2.5H15.3333C16.0406 2.5 16.7189 2.78095 17.219 3.28105C17.719 3.78115 18 4.45942 18 5.16667V15.8333C18 16.5406 17.719 17.2189 17.219 17.719C16.7189 18.219 16.0406 18.5 15.3333 18.5H4.66667C3.95942 18.5 3.28115 18.219 2.78105 17.719C2.28095 17.2189 2 16.5406 2 15.8333V5.16667ZM10.8889 6.94444C10.8889 6.7087 10.7952 6.4826 10.6285 6.31591C10.4618 6.14921 10.2357 6.05556 10 6.05556C9.76425 6.05556 9.53816 6.14921 9.37146 6.31591C9.20476 6.4826 9.11111 6.7087 9.11111 6.94444V14.0556C9.11111 14.2913 9.20476 14.5174 9.37146 14.6841C9.53816 14.8508 9.76425 14.9444 10 14.9444C10.2357 14.9444 10.4618 14.8508 10.6285 14.6841C10.7952 14.5174 10.8889 14.2913 10.8889 14.0556V6.94444ZM7.33333 9.61111C7.33333 9.37536 7.23968 9.14927 7.07298 8.98257C6.90628 8.81587 6.68019 8.72222 6.44444 8.72222C6.2087 8.72222 5.9826 8.81587 5.81591 8.98257C5.64921 9.14927 5.55556 9.37536 5.55556 9.61111V14.0556C5.55556 14.2913 5.64921 14.5174 5.81591 14.6841C5.9826 14.8508 6.2087 14.9444 6.44444 14.9444C6.68019 14.9444 6.90628 14.8508 7.07298 14.6841C7.23968 14.5174 7.33333 14.2913 7.33333 14.0556V9.61111ZM14.4444 12.2778C14.4444 12.042 14.3508 11.8159 14.1841 11.6492C14.0174 11.4825 13.7913 11.3889 13.5556 11.3889C13.3198 11.3889 13.0937 11.4825 12.927 11.6492C12.7603 11.8159 12.6667 12.042 12.6667 12.2778V14.0556C12.6667 14.2913 12.7603 14.5174 12.927 14.6841C13.0937 14.8508 13.3198 14.9444 13.5556 14.9444C13.7913 14.9444 14.0174 14.8508 14.1841 14.6841C14.3508 14.5174 14.4444 14.2913 14.4444 14.0556V12.2778Z" fill="var(--fill-0, #072929)"/>
</g>
</svg>
