<svg preserveAspectRatio="none" width="100%" height="100%" overflow="visible" style="display: block;" viewBox="0 0 15 15" fill="none" xmlns="http://www.w3.org/2000/svg">
<g id="Group">
<g id="Vector">
</g>
<path id="Vector_2" fill-rule="evenodd" clip-rule="evenodd" d="M4.45391 0.00676669C3.25855 -0.0756715 2.30677 0.618308 1.64126 1.4899C0.972017 2.36675 0.50062 3.52838 0.239815 4.68851C-0.0194902 5.84789 -0.0846913 7.07847 0.124402 8.10894C0.328249 9.11019 0.84686 10.1399 1.93804 10.4659C2.97901 10.7769 3.91281 10.3348 4.62628 9.73447C5.34124 9.13343 5.96028 8.27607 6.4594 7.44794C6.85061 6.79818 7.18486 6.13642 7.44716 5.57135C7.70947 6.13567 8.04371 6.79818 8.43417 7.44794C8.9333 8.27607 9.55233 9.13343 10.2673 9.73447C10.9808 10.3348 11.9146 10.7769 12.9555 10.4659C14.0467 10.1399 14.5653 9.11019 14.7692 8.10894C14.979 7.07847 14.9131 5.84789 14.6538 4.68851C14.393 3.52838 13.9216 2.366 13.2523 1.4899C12.5876 0.618308 11.6358 -0.076421 10.4404 0.00676669C9.14089 0.0966993 8.21459 1.10769 7.67724 1.87137C7.59762 1.98557 7.5209 2.10177 7.44716 2.21986C7.37348 2.10157 7.2965 1.98536 7.21633 1.87137C6.67899 1.10694 5.75343 0.0974487 4.45391 0.00676669ZM6.5898 3.77269C6.37771 4.30854 5.86285 5.53237 5.17487 6.67527C4.70946 7.44869 4.19085 8.14267 3.661 8.58783C3.13115 9.033 2.71521 9.13342 2.36822 9.03C2.07144 8.94157 1.75593 8.61032 1.5933 7.81067C1.43742 7.04099 1.47564 6.03075 1.70272 5.01676C1.93055 4.00277 2.33075 3.05773 2.83287 2.39897C3.33874 1.73572 3.85885 1.46817 4.34973 1.50265C4.9238 1.54237 5.49637 2.031 5.98951 2.73322C6.2653 3.12518 6.47139 3.52163 6.58906 3.77194L6.5898 3.77269ZM8.30452 3.77269C8.51586 4.30854 9.03147 5.53237 9.71871 6.67527C10.1849 7.44869 10.7035 8.14267 11.2326 8.58783C11.7632 9.03375 12.1784 9.13342 12.5261 9.03C12.8221 8.94157 13.1376 8.61032 13.3003 7.81067C13.4569 7.04099 13.4187 6.03075 13.1909 5.01676C12.963 4.00277 12.5636 3.05773 12.0607 2.39897C11.5548 1.73572 11.0355 1.46817 10.5438 1.50265C9.96977 1.54237 9.3972 2.031 8.90407 2.73322C8.67566 3.06217 8.47511 3.40962 8.30452 3.77194V3.77269Z" fill="var(--fill-0, white)"/>
</g>
</svg>
