<svg preserveAspectRatio="none" width="100%" height="100%" overflow="visible" style="display: block;" viewBox="0 0 14 4" fill="none" xmlns="http://www.w3.org/2000/svg">
<path id="Vector" d="M4.00131 0.461538C4.00131 0.339131 3.94556 0.221737 3.84632 0.135182C3.74708 0.0486263 3.61248 0 3.47213 0C3.33178 0 3.19718 0.0486263 3.09794 0.135182C2.9987 0.221737 2.94295 0.339131 2.94295 0.461538V1.43385C1.92692 1.50462 1.26086 1.67815 0.771192 2.10585C0.280818 2.53292 0.0818466 3.11446 0 4H14C13.9182 3.11385 13.7192 2.53292 13.2288 2.10585C12.7391 1.67815 12.0724 1.50462 11.0571 1.43323V0.461538C11.0571 0.339131 11.0013 0.221737 10.9021 0.135182C10.8028 0.0486263 10.6682 0 10.5279 0C10.3875 0 10.2529 0.0486263 10.1537 0.135182C10.0544 0.221737 9.99869 0.339131 9.99869 0.461538V1.39262C9.52948 1.38462 9.00313 1.38462 8.41115 1.38462H5.58885C4.99688 1.38462 4.47052 1.38462 4.00131 1.39262V0.461538Z" fill="var(--fill-0, black)"/>
</svg>
