<svg preserveAspectRatio="none" width="100%" height="100%" overflow="visible" style="display: block;" viewBox="0 0 14 14" fill="none" xmlns="http://www.w3.org/2000/svg">
<path id="Vector" d="M8.75 8.75L12.75 12.75M5.41667 10.0833C4.80383 10.0833 4.197 9.96263 3.63081 9.72811C3.06462 9.49358 2.55018 9.14984 2.11683 8.7165C1.68349 8.28316 1.33975 7.76871 1.10523 7.20252C0.870707 6.63634 0.75 6.0295 0.75 5.41667C0.75 4.80383 0.870707 4.197 1.10523 3.63081C1.33975 3.06462 1.68349 2.55018 2.11683 2.11683C2.55018 1.68349 3.06462 1.33975 3.63081 1.10523C4.197 0.870707 4.80383 0.75 5.41667 0.75C6.65434 0.75 7.84133 1.24167 8.7165 2.11683C9.59167 2.992 10.0833 4.17899 10.0833 5.41667C10.0833 6.65434 9.59167 7.84133 8.7165 8.7165C7.84133 9.59167 6.65434 10.0833 5.41667 10.0833Z" stroke="var(--stroke-0, #556179)" stroke-width="1.5" stroke-linecap="round" stroke-linejoin="round"/>
</svg>
