<svg preserveAspectRatio="none" width="100%" height="100%" overflow="visible" style="display: block;" viewBox="0 0 20 20" fill="none" xmlns="http://www.w3.org/2000/svg">
<g id="campaign-svgrepo-com 1">
<path id="Vector" d="M18.3333 3.56666V13.1C18.3337 13.3538 18.2761 13.6044 18.1649 13.8326C18.0537 14.0608 17.8918 14.2606 17.6917 14.4167C17.397 14.6414 17.0373 14.7643 16.6667 14.7667C16.5318 14.7662 16.3975 14.7495 16.2667 14.7167L8.33333 12.7333L7.4 12.5H5.83333C4.74261 12.4998 3.69544 12.072 2.91667 11.3083C2.32582 10.7289 1.92088 9.98676 1.75345 9.17636C1.58602 8.36596 1.66369 7.52406 1.97656 6.75797C2.28944 5.99188 2.82334 5.33631 3.51021 4.87481C4.19708 4.41331 5.00582 4.16678 5.83333 4.16666H7.4L16.2667 1.95C16.5114 1.8889 16.7668 1.88416 17.0137 1.93613C17.2605 1.9881 17.4923 2.09541 17.6917 2.25C17.8918 2.40611 18.0537 2.60588 18.1649 2.83406C18.2761 3.06225 18.3337 3.31282 18.3333 3.56666Z" fill="var(--fill-0, #231F20)"/>
<path id="Vector_2" d="M8.33333 13.5917V16.6667C8.33333 17.1087 8.15773 17.5326 7.84517 17.8452C7.53261 18.1577 7.10869 18.3333 6.66666 18.3333H5.68333C5.29224 18.3408 4.91098 18.2105 4.60628 17.9652C4.30159 17.72 4.09287 17.3753 4.01666 16.9917L3.16666 12.5667C3.61215 12.8518 4.10227 13.0602 4.61666 13.1833C5.01437 13.2839 5.4231 13.3343 5.83333 13.3333H7.3L8.33333 13.5917Z" fill="var(--fill-0, #231F20)"/>
</g>
</svg>
