<svg preserveAspectRatio="none" width="100%" height="100%" overflow="visible" style="display: block;" viewBox="0 0 20 20" fill="none" xmlns="http://www.w3.org/2000/svg">
<g id="ri:amazon-fill">
<rect width="20" height="20" rx="3.2" fill="var(--fill-0, #F9F9F6)"/>
<path id="Vector" d="M15.7803 13.2611C15.7803 13.6754 15.5462 14.4733 15.0201 14.9115C14.9149 14.9913 14.8097 14.9463 14.856 14.83C15.0092 14.4607 15.3595 13.6064 15.1953 13.4098C15.0791 13.2605 14.5993 13.2719 14.19 13.3061C14.0033 13.3294 13.8391 13.3403 13.7119 13.3659C13.594 13.375 13.5703 13.273 13.6882 13.1932C13.8419 13.0864 14.0116 13.0041 14.1912 12.9493C14.856 12.7533 15.6242 12.8712 15.7346 12.9966C15.7555 13.0205 15.7803 13.0884 15.7803 13.2611ZM14.6692 13.998C14.5172 14.1135 14.3571 14.2183 14.19 14.3114C12.9633 15.038 11.3742 15.4187 9.99433 15.4187C7.77278 15.4187 5.78593 14.6112 4.2783 13.2599C4.14881 13.1562 4.25575 13.0057 4.40721 13.0872C6.03161 14.0219 8.04216 14.5872 10.1232 14.5872C11.4332 14.5872 12.8448 14.3456 14.19 13.8258C14.2842 13.7911 14.3895 13.7438 14.4814 13.7107C14.6935 13.6167 14.8802 13.8486 14.6692 13.998ZM11.1025 7.71179C11.1025 7.11851 11.1268 6.76915 10.9273 6.46938C10.7505 6.2226 10.4458 6.07443 10.0203 6.09779C9.55904 6.12287 9.06363 6.42093 8.93761 6.96748C8.91275 7.09286 8.83875 7.21597 8.68499 7.24275L7.27737 7.06608C7.17678 7.04328 7.02359 6.96748 7.07388 6.76915C7.37622 5.20132 8.73528 4.65477 10.0209 4.58125H10.3227C11.0279 4.58125 11.9344 4.78015 12.5142 5.30162C13.2177 5.94905 13.1425 6.81874 13.1425 7.76365V10.0017C13.1425 10.6731 13.4189 10.9706 13.6963 11.3205C13.7715 11.4453 13.7975 11.5923 13.6709 11.6938C13.3067 12.0139 12.9373 12.3281 12.5627 12.6364C12.4616 12.7122 12.2801 12.7202 12.2101 12.6621C11.765 12.2945 11.6563 12.0904 11.3806 11.7172C10.9008 12.2135 10.4978 12.4877 10.0186 12.6364C9.68164 12.721 9.33502 12.7623 8.98732 12.7595C7.77914 12.7595 6.82242 12.0169 6.82242 10.5483C6.82242 9.3805 7.45252 8.58661 8.38323 8.21104C9.31393 7.83489 10.6666 7.71521 11.1025 7.71293M10.8268 10.6719C11.1274 10.175 11.1025 9.76804 11.1025 8.85675C10.7256 8.85675 10.3475 8.8824 10.0209 8.9582C9.41683 9.13088 8.93703 9.50531 8.93703 10.3003C8.93703 10.9216 9.26538 11.3444 9.81917 11.3444C9.89548 11.3444 9.96254 11.3359 10.0203 11.3188C10.4077 11.2128 10.6493 11.0213 10.8268 10.6719Z" fill="var(--fill-0, #072929)"/>
</g>
</svg>
