<svg preserveAspectRatio="none" width="100%" height="100%" overflow="visible" style="display: block;" viewBox="0 0 16 17" fill="none" xmlns="http://www.w3.org/2000/svg">
<g id="Group 1171277921">
<path id="Vector" d="M0.568182 15.6249H1.74433C1.62785 15.4658 1.56251 15.2669 1.56251 15.0567V4.82944C1.56251 4.61922 1.62785 4.42034 1.74433 4.26125H0.568182C0.255673 4.26125 0 4.51693 0 4.82944V15.0567C0 15.3692 0.255673 15.6249 0.568182 15.6249Z" fill="var(--fill-0, black)"/>
<path id="Vector_2" d="M2.55694 15.625H11.3639C11.6764 15.625 11.932 15.3693 11.932 15.0568V15.0028C11.6764 14.9971 11.432 14.8949 11.2502 14.713C11.1565 14.6193 11.0854 14.5113 11.0371 14.3977C10.6906 14.5028 10.3241 14.5596 9.9434 14.5596C7.86667 14.5596 6.17922 12.8721 6.17922 10.7954C6.17922 8.71875 7.86671 7.03126 9.9434 7.03126C10.6735 7.03126 11.3553 7.24147 11.9321 7.59944V4.82962C11.9321 4.51711 11.6765 4.26144 11.3639 4.26144H10.5117V3.69326C10.5117 2.00149 9.1594 0.622892 7.47967 0.573256C6.97043 0.213874 6.35112 0.000110626 5.68209 0.000110626C3.95907 0.000110626 2.557 1.40209 2.557 3.1252V4.26157C2.24449 4.26157 1.98882 4.51724 1.98882 4.82975V15.057C1.98882 15.3695 2.24449 15.6252 2.557 15.6252L2.55694 15.625ZM4.82967 4.26134V3.69316C4.82967 2.31532 5.92625 1.1917 7.29203 1.14134C7.86874 1.61079 8.23876 2.32529 8.23876 3.12498V4.26134H4.82967ZM9.94331 3.69316V4.26134H8.80694V3.12498C8.80694 2.42896 8.57542 1.78761 8.18905 1.26698C9.20682 1.60434 9.94331 2.56385 9.94331 3.69316ZM3.12512 3.12498C3.12512 1.71518 4.27214 0.568249 5.68185 0.568249C5.96382 0.568249 6.23512 0.615834 6.48938 0.701062C5.20245 1.08743 4.26138 2.28203 4.26138 3.69324V4.26143H3.12502L3.12512 3.12498Z" fill="var(--fill-0, black)"/>
<path id="Vector_3" d="M12.5 10.7953C12.5 12.2072 11.3551 13.352 9.94327 13.352C8.53143 13.352 7.38654 12.2071 7.38654 10.7953C7.38654 9.38342 8.53143 8.23853 9.94327 8.23853C11.3551 8.23853 12.5 9.38342 12.5 10.7953Z" fill="var(--fill-0, black)"/>
<path id="Vector_4" d="M6.60511 10.7952C6.60511 12.6362 8.10299 14.1332 9.94311 14.1332C10.48 14.1332 10.9857 14.0033 11.4353 13.7767C11.3415 13.9855 11.3785 14.2391 11.5504 14.411C11.772 14.6326 12.132 14.6326 12.3536 14.411V14.4102L13.9594 16.0161C14.2918 16.3513 14.8316 16.3513 15.164 16.0161C15.4992 15.6837 15.4992 15.1439 15.164 14.8115L13.5582 13.2057L13.5589 13.205C13.7805 12.9834 13.7805 12.6233 13.5589 12.4017C13.387 12.2298 13.1335 12.1929 12.9246 12.2867C13.1505 11.8371 13.2812 11.3314 13.2812 10.7945C13.2812 8.95357 11.7833 7.45648 9.94317 7.45648C8.10304 7.45648 6.60517 8.95364 6.60517 10.7945L6.60511 10.7952ZM12.8551 10.7952C12.8551 11.2924 12.7294 11.7604 12.5092 12.1695C12.4496 12.281 12.3807 12.3869 12.3068 12.4891C12.2884 12.5147 12.2692 12.5396 12.25 12.5651C12.174 12.6639 12.0938 12.7597 12.0057 12.8478L11.9957 12.8577C11.9077 12.9458 11.8118 13.0261 11.7131 13.1021C11.6882 13.1213 11.6633 13.1404 11.6378 13.1582C11.5355 13.232 11.4297 13.3009 11.3182 13.3606C10.9084 13.5808 10.4403 13.7065 9.94318 13.7065C8.33736 13.7065 7.03118 12.4004 7.03118 10.7945C7.03118 9.18865 8.33729 7.88247 9.94318 7.88247C11.5491 7.88247 12.8552 9.18858 12.8552 10.7945L12.8551 10.7952Z" fill="var(--fill-0, black)"/>
</g>
</svg>
