<svg preserveAspectRatio="none" width="100%" height="100%" overflow="visible" style="display: block;" viewBox="0 0 14 14" fill="none" xmlns="http://www.w3.org/2000/svg">
<g id="Box">
<path d="M0 4C0 1.79086 1.79086 0 4 0H10C12.2091 0 14 1.79086 14 4V10C14 12.2091 12.2091 14 10 14H4C1.79086 14 0 12.2091 0 10V4Z" fill="var(--fill-0, #89B6B6)"/>
<path id="Mark" fill-rule="evenodd" clip-rule="evenodd" d="M4.70757 6.29943C4.61532 6.20392 4.50498 6.12774 4.38297 6.07533C4.26097 6.02292 4.12975 5.99533 3.99697 5.99418C3.86419 5.99302 3.73251 6.01833 3.60962 6.06861C3.48672 6.11889 3.37507 6.19314 3.28117 6.28703C3.18728 6.38093 3.11303 6.49258 3.06275 6.61548C3.01247 6.73837 2.98717 6.87005 2.98832 7.00283C2.98947 7.13561 3.01706 7.26683 3.06947 7.38883C3.12188 7.51084 3.19806 7.62118 3.29357 7.71343L5.29357 9.71343C5.4811 9.9009 5.73541 10.0062 6.00057 10.0062C6.26573 10.0062 6.52004 9.9009 6.70757 9.71343L10.7076 5.71343C10.8031 5.62118 10.8793 5.51084 10.9317 5.38883C10.9841 5.26683 11.0117 5.13561 11.0128 5.00283C11.014 4.87005 10.9887 4.73837 10.9384 4.61548C10.8881 4.49258 10.8139 4.38093 10.72 4.28703C10.6261 4.19314 10.5144 4.11889 10.3915 4.06861C10.2686 4.01833 10.1369 3.99302 10.0042 3.99418C9.87139 3.99533 9.74017 4.02292 9.61817 4.07533C9.49616 4.12774 9.38582 4.20392 9.29357 4.29943L6.00057 7.59243L4.70757 6.29943V6.29943Z" fill="var(--fill-0, #F9F9F6)"/>
</g>
</svg>
