<svg preserveAspectRatio="none" width="100%" height="100%" overflow="visible" style="display: block;" viewBox="0 0 10 10" fill="none" xmlns="http://www.w3.org/2000/svg">
<g id="Group 2147231186">
<path id="Vector" fill-rule="evenodd" clip-rule="evenodd" d="M0.192803 0.361735H3.85607C3.96256 0.361735 4.04887 0.448051 4.04887 0.554539V4.2178C4.04887 4.32429 3.96256 4.41061 3.85607 4.41061H0.192803C0.0863157 4.41061 0 4.32429 0 4.2178V0.554539C0 0.448051 0.0863157 0.361735 0.192803 0.361735ZM6.99291 0.0564673L9.17422 2.2378C9.24951 2.31309 9.24951 2.43515 9.17422 2.51046L6.99289 4.69177C6.9176 4.76706 6.79554 4.76706 6.72023 4.69177L4.53892 2.51044C4.46363 2.43515 4.46363 2.31309 4.53892 2.23778L6.72025 0.0564673C6.79554 -0.0188224 6.9176 -0.0188224 6.99291 0.0564673ZM0.192803 5.18182H3.85607C3.96256 5.18182 4.04887 5.26814 4.04887 5.37462V9.03789C4.04887 9.14438 3.96256 9.23069 3.85607 9.23069H0.192803C0.0863157 9.23069 0 9.14438 0 9.03789V5.37462C0 5.26814 0.0863157 5.18182 0.192803 5.18182ZM5.01289 5.18182H8.67615C8.78264 5.18182 8.86896 5.26814 8.86896 5.37462V9.03789C8.86896 9.14438 8.78264 9.23069 8.67615 9.23069H5.01289C4.9064 9.23069 4.82008 9.14438 4.82008 9.03789V5.37462C4.82008 5.26814 4.9064 5.18182 5.01289 5.18182Z" fill="var(--fill-0, #F9F9F6)"/>
</g>
</svg>
