<svg preserveAspectRatio="none" width="100%" height="100%" overflow="visible" style="display: block;" viewBox="0 0 23 23" fill="none" xmlns="http://www.w3.org/2000/svg">
<g id="Group">
<path id="Shape" fill-rule="evenodd" clip-rule="evenodd" d="M22.2134 11.591C22.2134 10.7873 22.1412 10.0146 22.0073 9.27277H11.3333V13.6567H17.4327C17.17 15.0734 16.3715 16.2737 15.1712 17.0773V19.921H18.834C20.977 17.9479 22.2134 15.0425 22.2134 11.591Z" fill="var(--fill-0, #4285F4)"/>
<path id="Shape_2" fill-rule="evenodd" clip-rule="evenodd" d="M11.3334 22.6667C14.3934 22.6667 16.9588 21.6519 18.834 19.9209L15.1712 17.0773C14.1564 17.7573 12.8582 18.1591 11.3334 18.1591C8.38153 18.1591 5.88304 16.1655 4.99183 13.4867H1.20546V16.4231C3.07031 20.127 6.90304 22.6667 11.3334 22.6667Z" fill="var(--fill-0, #34A853)"/>
<path id="Shape_3" fill-rule="evenodd" clip-rule="evenodd" d="M4.99183 13.4867C4.76516 12.8067 4.63637 12.0804 4.63637 11.3334C4.63637 10.5864 4.76516 9.86007 4.99183 9.18007V6.2437H1.20546C0.437879 7.7737 0 9.50461 0 11.3334C0 13.1622 0.437879 14.8931 1.20546 16.4231L4.99183 13.4867Z" fill="var(--fill-0, #FBBC05)"/>
<path id="Shape_4" fill-rule="evenodd" clip-rule="evenodd" d="M11.3334 4.50763C12.9973 4.50763 14.4912 5.07945 15.6658 6.20248L18.9164 2.95187C16.9537 1.12308 14.3882 4.33922e-05 11.3334 4.33922e-05C6.90304 4.33922e-05 3.07031 2.53974 1.20546 6.24369L4.99183 9.18006C5.88304 6.50127 8.38153 4.50763 11.3334 4.50763Z" fill="var(--fill-0, #EA4335)"/>
<g id="Shape_5">
</g>
</g>
</svg>
