<svg preserveAspectRatio="none" width="100%" height="100%" overflow="visible" style="display: block;" viewBox="0 0 10 10" fill="none" xmlns="http://www.w3.org/2000/svg">
<g id="product-blink-svgrepo-com 2" clip-path="url(#clip0_907_23075)">
<path id="Vector" d="M2.15954 8.44887C1.56778 8.99662 0.442954 8.76882 0.442954 8.76882C0.442954 8.76882 0.191019 7.62416 0.762919 7.05226C0.848364 6.95991 0.953382 6.88785 1.07028 6.84135C1.18717 6.79488 1.31299 6.77509 1.43852 6.7835C1.56404 6.79194 1.68609 6.8283 1.79574 6.89002C1.90538 6.9517 1.99984 7.03712 2.07219 7.14004C2.175 7.21245 2.26033 7.30688 2.32193 7.4165C2.38353 7.52616 2.41984 7.64813 2.42822 7.77362C2.43659 7.89908 2.41681 8.02484 2.37032 8.14166C2.32383 8.25849 2.25182 8.36346 2.15954 8.44887Z" stroke="var(--stroke-0, #F9F9F6)" stroke-width="0.580811" stroke-linecap="round" stroke-linejoin="round"/>
<path id="Vector_2" d="M8.25023 0.961339L8.82392 0.387684" stroke="var(--stroke-0, #F9F9F6)" stroke-width="0.580811" stroke-linecap="round" stroke-linejoin="round"/>
<path id="Vector_3" d="M8.32665 2.9651L8.25026 0.960599L6.24576 0.884226C5.94943 0.890541 5.65922 0.969629 5.40068 1.11452C5.14215 1.2594 4.92318 1.46565 4.76311 1.71508L2.58393 5.32163L3.88574 6.6252L7.49226 4.44774C7.74247 4.28821 7.94951 4.06948 8.09506 3.81088C8.24058 3.55227 8.32665 3.30811 8.32665 2.9651Z" fill="var(--fill-0, #F9F9F6)" stroke="var(--stroke-0, #F9F9F6)" stroke-width="0.580811" stroke-linecap="round" stroke-linejoin="round"/>
<path id="Vector_4" d="M2.58384 5.32437L1.42072 5.03908C1.38047 5.02901 1.34334 5.00911 1.3127 4.98115C1.28205 4.9532 1.25884 4.91804 1.24516 4.87885C1.23138 4.84234 1.22818 4.80265 1.23595 4.76436C1.24372 4.7261 1.26212 4.69079 1.28905 4.66248L2.13351 3.82022C2.248 3.71053 2.39139 3.63576 2.54687 3.60466C2.70234 3.57357 2.86346 3.58744 3.01133 3.64465L3.48508 3.81262" stroke="var(--stroke-0, #F9F9F6)" stroke-width="0.580811" stroke-linecap="round" stroke-linejoin="round"/>
<path id="Vector_5" d="M3.88639 6.62812L4.17169 7.79125C4.18172 7.83144 4.20158 7.8685 4.22946 7.89913C4.25734 7.92975 4.29238 7.95302 4.33145 7.96681C4.36804 7.98071 4.40781 7.984 4.44618 7.97622C4.48455 7.96844 4.51994 7.94997 4.54825 7.9229L5.39185 7.07623C5.50101 6.96143 5.5752 6.81789 5.60575 6.66242C5.6363 6.50696 5.62193 6.34604 5.56432 6.19843L5.39185 5.75988" stroke="var(--stroke-0, #F9F9F6)" stroke-width="0.580811" stroke-linecap="round" stroke-linejoin="round"/>
<path id="Vector_6" d="M6.26165 3.60655C6.62524 3.60655 6.92002 3.31179 6.92002 2.94819C6.92002 2.58458 6.62524 2.28982 6.26165 2.28982C5.89806 2.28982 5.60328 2.58458 5.60328 2.94819C5.60328 3.31179 5.89806 3.60655 6.26165 3.60655Z" stroke="var(--stroke-0, #072929)" stroke-width="0.580811" stroke-linecap="round" stroke-linejoin="round"/>
</g>
<defs>
<clipPath id="clip0_907_23075">
<rect width="9.29297" height="9.29297" fill="white"/>
</clipPath>
</defs>
</svg>
