<svg preserveAspectRatio="none" width="100%" height="100%" overflow="visible" style="display: block;" viewBox="0 0 1029 139" fill="none" xmlns="http://www.w3.org/2000/svg">
<g id="Line">
<path d="M0.500106 103.397L58.7412 90.6248C65.3737 89.1703 68.6899 88.443 71.8662 88.7639C74.6763 89.0478 77.3945 89.9237 79.8417 91.334C82.6077 92.9279 84.8754 95.4546 89.4108 100.508L112.529 126.265C117.378 131.668 119.802 134.37 122.767 136.005C125.388 137.45 128.3 138.289 131.288 138.459C134.668 138.652 138.158 137.654 145.138 135.659L168.669 128.933C171.013 128.263 172.185 127.928 173.372 127.666C174.428 127.432 175.492 127.242 176.563 127.094C177.768 126.929 178.983 126.837 181.414 126.652L231.862 122.823C241.935 122.058 246.971 121.676 251.877 120.677C256.234 119.79 260.51 118.542 264.66 116.945C269.332 115.146 273.783 112.759 282.685 107.983L306.619 95.1427C312.523 91.975 315.476 90.3912 318.599 89.329C321.371 88.3861 324.238 87.7504 327.15 87.4335C330.429 87.0764 333.774 87.2643 340.464 87.64L429.209 92.6244C434.186 92.9039 436.675 93.0437 439.043 92.6037C441.143 92.2136 443.167 91.4897 445.038 90.4594C447.149 89.2973 448.984 87.6109 452.655 84.2381L503.271 37.7294C507.012 34.2924 508.882 32.5739 511.035 31.4002C512.943 30.3598 515.008 29.6374 517.149 29.2615C519.564 28.8374 522.098 29.0154 527.165 29.3715L586.167 33.5178C594.89 34.1307 599.251 34.4372 603.467 33.8346C607.207 33.3 610.852 32.2384 614.294 30.6814C618.174 28.9261 621.689 26.3257 628.718 21.1249L646.001 8.33833C652.23 3.72952 655.345 1.42511 658.673 0.776815C661.603 0.205888 664.637 0.522479 667.387 1.68606C670.509 3.00733 673.081 5.90507 678.225 11.7006L708.564 45.8831C712.167 49.9427 713.968 51.9725 716.178 53.2095C718.131 54.3034 720.305 54.9461 722.539 55.0905C725.066 55.2538 727.681 54.5302 732.913 53.0829L780.034 40.0467C786.55 38.244 789.808 37.3427 793.091 37.1731C796.003 37.0227 798.921 37.2975 801.753 37.989C804.947 38.7685 807.979 40.2623 814.044 43.2498L864.616 68.1617C869.647 70.64 872.162 71.8791 874.801 72.3882C877.138 72.8392 879.537 72.8693 881.885 72.477C884.536 72.0343 887.082 70.8586 892.173 68.5072L947.483 42.9644C949.47 42.0467 950.463 41.5878 951.494 41.2417C952.409 40.9342 953.346 40.6934 954.296 40.5213C955.366 40.3275 956.458 40.2502 958.641 40.0958L1028.22 35.1736" stroke="url(#paint0_linear_463_39404)" stroke-linecap="round"/>
<path d="M0.500106 103.397L58.7412 90.6248C65.3737 89.1703 68.6899 88.443 71.8662 88.7639C74.6763 89.0478 77.3945 89.9237 79.8417 91.334C82.6077 92.9279 84.8754 95.4546 89.4108 100.508L112.529 126.265C117.378 131.668 119.802 134.37 122.767 136.005C125.388 137.45 128.3 138.289 131.288 138.459C134.668 138.652 138.158 137.654 145.138 135.659L168.669 128.933C171.013 128.263 172.185 127.928 173.372 127.666C174.428 127.432 175.492 127.242 176.563 127.094C177.768 126.929 178.983 126.837 181.414 126.652L231.862 122.823C241.935 122.058 246.971 121.676 251.877 120.677C256.234 119.79 260.51 118.542 264.66 116.945C269.332 115.146 273.783 112.759 282.685 107.983L306.619 95.1427C312.523 91.975 315.476 90.3912 318.599 89.329C321.371 88.3861 324.238 87.7504 327.15 87.4335C330.429 87.0764 333.774 87.2643 340.464 87.64L429.209 92.6244C434.186 92.9039 436.675 93.0437 439.043 92.6037C441.143 92.2136 443.167 91.4897 445.038 90.4594C447.149 89.2973 448.984 87.6109 452.655 84.2381L503.271 37.7294C507.012 34.2924 508.882 32.5739 511.035 31.4002C512.943 30.3598 515.008 29.6374 517.149 29.2615C519.564 28.8374 522.098 29.0154 527.165 29.3715L586.167 33.5178C594.89 34.1307 599.251 34.4372 603.467 33.8346C607.207 33.3 610.852 32.2384 614.294 30.6814C618.174 28.9261 621.689 26.3257 628.718 21.1249L646.001 8.33833C652.23 3.72952 655.345 1.42511 658.673 0.776815C661.603 0.205888 664.637 0.522479 667.387 1.68606C670.509 3.00733 673.081 5.90507 678.225 11.7006L708.564 45.8831C712.167 49.9427 713.968 51.9725 716.178 53.2095C718.131 54.3034 720.305 54.9461 722.539 55.0905C725.066 55.2538 727.681 54.5302 732.913 53.0829L780.034 40.0467C786.55 38.244 789.808 37.3427 793.091 37.1731C796.003 37.0227 798.921 37.2975 801.753 37.989C804.947 38.7685 807.979 40.2623 814.044 43.2498L864.616 68.1617C869.647 70.64 872.162 71.8791 874.801 72.3882C877.138 72.8392 879.537 72.8693 881.885 72.477C884.536 72.0343 887.082 70.8586 892.173 68.5072L947.483 42.9644C949.47 42.0467 950.463 41.5878 951.494 41.2417C952.409 40.9342 953.346 40.6934 954.296 40.5213C955.366 40.3275 956.458 40.2502 958.641 40.0958L1028.22 35.1736" stroke="var(--stroke-1, #1EC77A)" stroke-linecap="round" style="mix-blend-mode:screen"/>
</g>
<defs>
<linearGradient id="paint0_linear_463_39404" x1="5.34459" y1="157.627" x2="1028.22" y2="157.627" gradientUnits="userSpaceOnUse">
<stop stop-opacity="0.4"/>
<stop offset="1"/>
</linearGradient>
</defs>
</svg>
