<svg preserveAspectRatio="none" width="100%" height="100%" overflow="visible" style="display: block;" viewBox="0 0 19 19" fill="none" xmlns="http://www.w3.org/2000/svg">
<g id="Box">
<path d="M0 4C0 1.79086 1.79086 0 4 0H14.6667C16.8758 0 18.6667 1.79086 18.6667 4V14.6667C18.6667 16.8758 16.8758 18.6667 14.6667 18.6667H4C1.79086 18.6667 0 16.8758 0 14.6667V4Z" fill="var(--fill-0, #072929)"/>
<path id="Mark" fill-rule="evenodd" clip-rule="evenodd" d="M6.27676 8.39891C6.15376 8.27157 6.00664 8.16999 5.84397 8.10011C5.68129 8.03023 5.50633 7.99345 5.32929 7.99191C5.15225 7.99037 4.97668 8.02411 4.81282 8.09115C4.64896 8.15819 4.50009 8.2572 4.3749 8.38239C4.24971 8.50758 4.15071 8.65645 4.08366 8.82031C4.01662 8.98417 3.98289 9.15974 3.98443 9.33678C3.98596 9.51382 4.02274 9.68878 4.09262 9.85145C4.1625 10.0141 4.26408 10.1613 4.39143 10.2842L7.05809 12.9509C7.30813 13.2009 7.64721 13.3413 8.00076 13.3413C8.35431 13.3413 8.69339 13.2009 8.94343 12.9509L14.2768 7.61758C14.4041 7.49458 14.5057 7.34746 14.5756 7.18479C14.6454 7.02211 14.6822 6.84715 14.6838 6.67011C14.6853 6.49308 14.6516 6.3175 14.5845 6.15364C14.5175 5.98978 14.4185 5.84091 14.2933 5.71572C14.1681 5.59053 14.0192 5.49153 13.8554 5.42449C13.6915 5.35744 13.5159 5.32371 13.3389 5.32525C13.1619 5.32678 12.9869 5.36357 12.8242 5.43344C12.6615 5.50332 12.5144 5.6049 12.3914 5.73225L8.00076 10.1229L6.27676 8.39891V8.39891Z" fill="var(--fill-0, #F9F9F6)"/>
</g>
</svg>
