<svg preserveAspectRatio="none" width="100%" height="100%" overflow="visible" style="display: block;" viewBox="0 0 20 20" fill="none" xmlns="http://www.w3.org/2000/svg">
<g id="ph:fingerprint-fill">
<path id="Vector" d="M9.88 1.87591C5.59642 1.94129 2.09511 5.42107 2.00204 9.70695C1.96944 11.1485 2.32887 12.5719 3.04197 13.8252C3.06998 13.8741 3.11092 13.9145 3.16032 13.9418C3.20972 13.969 3.26567 13.9822 3.32205 13.9798C3.37843 13.9774 3.43307 13.9596 3.47999 13.9283C3.52691 13.8969 3.56431 13.8533 3.58809 13.8021C4.16578 12.5751 4.46446 11.2354 4.46265 9.87925C4.46129 9.04859 4.6474 8.22833 5.00712 7.47959C5.36683 6.73086 5.89088 6.07295 6.54021 5.55491C6.6039 5.50511 6.67677 5.46834 6.75466 5.44671C6.83256 5.42507 6.91395 5.41899 6.9942 5.42881C7.07445 5.43863 7.15197 5.46416 7.22235 5.50394C7.29273 5.54373 7.35459 5.59698 7.40438 5.66067C7.45418 5.72435 7.49095 5.79723 7.51258 5.87512C7.53422 5.95302 7.5403 6.03441 7.53048 6.11466C7.52066 6.19491 7.49513 6.27243 7.45535 6.34281C7.41556 6.41319 7.36231 6.47505 7.29862 6.52484C6.79665 6.92811 6.39181 7.43912 6.11407 8.02003C5.83633 8.60095 5.6928 9.23689 5.69411 9.88079C5.69606 11.7281 5.20625 13.5427 4.27497 15.1381C4.24044 15.1968 4.22632 15.2652 4.23481 15.3327C4.2433 15.4002 4.27392 15.463 4.32189 15.5112C4.47572 15.665 4.63648 15.8189 4.80263 15.9589C4.83668 15.9875 4.87652 16.0083 4.91942 16.0201C4.96232 16.0318 5.00724 16.0341 5.05111 16.0268C5.09497 16.0195 5.13673 16.0027 5.17351 15.9777C5.21028 15.9527 5.2412 15.92 5.26414 15.8819C5.94505 14.7515 6.42859 13.5134 6.69404 12.2206C6.72658 12.0607 6.82132 11.9202 6.95742 11.8302C7.09352 11.7401 7.25983 11.7077 7.41977 11.7403C7.5797 11.7728 7.72016 11.8676 7.81025 12.0037C7.90033 12.1398 7.93266 12.3061 7.90012 12.466C7.60262 13.9247 7.05427 15.3207 6.27946 16.5919C6.25761 16.628 6.24343 16.6683 6.23781 16.7101C6.23219 16.752 6.23525 16.7946 6.24679 16.8352C6.25834 16.8758 6.27812 16.9136 6.30491 16.9463C6.33171 16.9789 6.36493 17.0057 6.40252 17.0249C6.59251 17.1211 6.78712 17.2103 6.9848 17.2919C7.05305 17.3211 7.12958 17.3247 7.20027 17.3019C7.27095 17.2791 7.33102 17.2316 7.36939 17.168C8.69085 14.973 9.38817 12.459 9.38618 9.89694C9.3846 9.73898 9.44264 9.58623 9.54871 9.46918C9.65479 9.35212 9.8011 9.27937 9.95845 9.26544C10.0428 9.25952 10.1275 9.27105 10.2072 9.29931C10.2869 9.32757 10.3599 9.37196 10.4217 9.4297C10.4835 9.48744 10.5327 9.5573 10.5663 9.63491C10.5999 9.71252 10.6171 9.79622 10.6169 9.88079C10.6199 12.4967 9.9523 15.0697 8.67777 17.3542C8.65323 17.3979 8.63977 17.447 8.63854 17.4971C8.63732 17.5473 8.64837 17.597 8.67075 17.6419C8.69312 17.6868 8.72613 17.7255 8.7669 17.7547C8.80767 17.7839 8.85497 17.8028 8.90467 17.8095C9.13799 17.8418 9.37413 17.8639 9.61309 17.8757C9.67053 17.8778 9.72743 17.8638 9.77732 17.8352C9.82722 17.8067 9.86811 17.7647 9.89538 17.7141C11.1746 15.3213 11.845 12.6503 11.8476 9.93694C11.8514 8.91777 11.0553 8.05321 10.0369 8.03398C9.79191 8.02928 9.54843 8.07341 9.32066 8.16379C9.09289 8.25416 8.8854 8.38898 8.71028 8.56038C8.53515 8.73178 8.39591 8.93633 8.30066 9.16211C8.20541 9.38788 8.15606 9.63036 8.15549 9.8754C8.15436 10.0291 8.09649 10.1769 7.99298 10.2905C7.88948 10.4041 7.74766 10.4754 7.59476 10.4907C7.50948 10.4983 7.42355 10.4881 7.34247 10.4606C7.26139 10.4331 7.18694 10.3889 7.12389 10.331C7.06083 10.2731 7.01056 10.2027 6.97628 10.1242C6.94199 10.0458 6.92446 9.96102 6.9248 9.8754C6.92478 9.46863 7.00542 9.06588 7.16205 8.69048C7.31869 8.31507 7.54821 7.97445 7.83734 7.68832C8.12648 7.4022 8.46947 7.17624 8.8465 7.02354C9.22352 6.87083 9.62708 6.7944 10.0338 6.79867C11.726 6.81636 13.0859 8.27319 13.0775 9.96463C13.0699 12.4735 12.532 14.9524 11.4991 17.2388C11.4757 17.2914 11.4674 17.3496 11.4754 17.4067C11.4834 17.4638 11.5073 17.5175 11.5444 17.5617C11.5814 17.6059 11.6301 17.6388 11.685 17.6566C11.7398 17.6745 11.7985 17.6765 11.8545 17.6626C12.1213 17.5993 12.3847 17.5222 12.6437 17.4318C12.684 17.4175 12.7209 17.3949 12.7521 17.3655C12.7832 17.3361 12.8078 17.3006 12.8244 17.2611C13.1826 16.4122 13.4777 15.5381 13.7074 14.6459C13.7276 14.5676 13.7631 14.494 13.8117 14.4295C13.8603 14.3649 13.9212 14.3105 13.9908 14.2694C14.0605 14.2283 14.1375 14.2014 14.2176 14.1901C14.2976 14.1788 14.3791 14.1834 14.4574 14.2036C14.5357 14.2238 14.6092 14.2592 14.6738 14.3078C14.7384 14.3565 14.7928 14.4173 14.8339 14.487C14.8749 14.5566 14.9019 14.6337 14.9132 14.7137C14.9245 14.7938 14.9199 14.8753 14.8997 14.9535C14.8422 15.1776 14.7807 15.4007 14.7151 15.6227C14.6958 15.6867 14.6978 15.7551 14.7208 15.8178C14.7438 15.8805 14.7866 15.934 14.8427 15.9702C14.8988 16.0064 14.9652 16.0234 15.0318 16.0186C15.0984 16.0138 15.1617 15.9874 15.212 15.9435C16.4593 14.8724 17.3464 13.4429 17.7523 11.8496C18.1583 10.2564 18.0634 8.57673 17.4807 7.0393C16.898 5.50187 15.8557 4.18134 14.4957 3.25744C13.1356 2.33353 11.524 1.85114 9.88 1.87591ZM15.3858 12.4199C15.3671 12.5683 15.2949 12.7049 15.1828 12.804C15.0707 12.9031 14.9263 12.958 14.7766 12.9583C14.7509 12.9584 14.7252 12.9568 14.6997 12.9537C14.6195 12.9437 14.542 12.918 14.4717 12.8781C14.4015 12.8381 14.3397 12.7848 14.2901 12.721C14.2405 12.6572 14.2039 12.5842 14.1824 12.5063C14.161 12.4284 14.1551 12.347 14.1651 12.2668C14.2631 11.4757 14.3124 10.6794 14.3128 9.88232C14.3112 8.74042 13.8568 7.64576 13.0494 6.83832C12.2419 6.03087 11.1473 5.57653 10.0054 5.5749C9.82539 5.57487 9.64557 5.58591 9.46695 5.60798C9.30487 5.62838 9.14132 5.58356 9.01229 5.48338C8.88326 5.3832 8.79931 5.23586 8.77891 5.07378C8.75851 4.9117 8.80333 4.74816 8.90351 4.61913C9.0037 4.4901 9.15103 4.40615 9.31311 4.38575C10.0928 4.28876 10.8842 4.35855 11.6349 4.5905C12.3856 4.82245 13.0784 5.21126 13.6675 5.73118C14.2565 6.25109 14.7284 6.89025 15.0518 7.60629C15.3753 8.32234 15.5428 9.09893 15.5435 9.88463C15.5433 10.7321 15.4906 11.5788 15.3858 12.4199Z" fill="var(--fill-0, #072929)"/>
</g>
</svg>
