<svg preserveAspectRatio="none" width="100%" height="100%" overflow="visible" style="display: block;" viewBox="0 0 16 17" fill="none" xmlns="http://www.w3.org/2000/svg">
<g id="Group 1171277921">
<path id="Vector" d="M0.589715 16.2181H1.81043C1.68954 16.053 1.62173 15.8466 1.62173 15.6284V5.01354C1.62173 4.79536 1.68954 4.58895 1.81043 4.42383H0.589715C0.265362 4.42383 0 4.68919 0 5.01354V15.6284C0 15.9528 0.265362 16.2181 0.589715 16.2181Z" fill="var(--fill-0, #072929)"/>
<path id="Vector_2" d="M2.65423 16.217H11.7949C12.1193 16.217 12.3846 15.9517 12.3846 15.6273V15.5713C12.1193 15.5654 11.8657 15.4592 11.677 15.2705C11.5797 15.1732 11.5059 15.0612 11.4558 14.9432C11.0961 15.0523 10.7157 15.1113 10.3206 15.1113C8.16518 15.1113 6.41378 13.3598 6.41378 11.2045C6.41378 9.04906 8.16522 7.29761 10.3206 7.29761C11.0784 7.29761 11.7861 7.5158 12.3847 7.88733V5.01254C12.3847 4.68819 12.1193 4.42282 11.795 4.42282H10.9104V3.83311C10.9104 2.07723 9.5069 0.646384 7.76352 0.594867C7.23498 0.221865 6.5922 0 5.89781 0C4.10949 0 2.65428 1.45511 2.65428 3.24353V4.42296C2.32993 4.42296 2.06457 4.68832 2.06457 5.01267V15.6275C2.06457 15.9519 2.32993 16.2173 2.65428 16.2173L2.65423 16.217ZM5.01309 4.42272V3.83301C5.01309 2.40295 6.15123 1.23675 7.56877 1.18448C8.16733 1.67173 8.55138 2.41329 8.55138 3.24329V4.42272H5.01309ZM10.3205 3.83301V4.42272H9.14109V3.24329C9.14109 2.5209 8.90079 1.85524 8.49978 1.31488C9.55612 1.66503 10.3205 2.6609 10.3205 3.83301ZM3.24394 3.24329C3.24394 1.78006 4.43443 0.58967 5.89756 0.58967C6.19021 0.58967 6.47181 0.639059 6.7357 0.727516C5.4 1.12852 4.42326 2.36839 4.42326 3.8331V4.42281H3.24383L3.24394 3.24329Z" fill="var(--fill-0, #072929)"/>
<path id="Vector_3" d="M12.9737 11.2044C12.9737 12.6698 11.7854 13.858 10.3201 13.858C8.85473 13.858 7.66645 12.6697 7.66645 11.2044C7.66645 9.73906 8.85473 8.55078 10.3201 8.55078C11.7854 8.55078 12.9737 9.73906 12.9737 11.2044Z" fill="var(--fill-0, #072929)"/>
<path id="Vector_4" d="M6.85585 11.2055C6.85585 13.1162 8.41049 14.67 10.3204 14.67C10.8776 14.67 11.4025 14.5351 11.8691 14.3C11.7718 14.5167 11.8101 14.7799 11.9885 14.9583C12.2185 15.1883 12.5922 15.1883 12.8222 14.9583V14.9575L14.4889 16.6242C14.8339 16.9722 15.3941 16.9722 15.7391 16.6242C16.087 16.2792 16.087 15.719 15.7391 15.374L14.0724 13.7073L14.0732 13.7066C14.3032 13.4766 14.3032 13.1029 14.0732 12.8729C13.8948 12.6945 13.6316 12.6562 13.4149 12.7535C13.6493 12.2869 13.7849 11.762 13.7849 11.2047C13.7849 9.29406 12.2303 7.74023 10.3204 7.74023C8.41055 7.74023 6.85591 9.29414 6.85591 11.2047L6.85585 11.2055ZM13.3427 11.2055C13.3427 11.7215 13.2122 12.2073 12.9837 12.6319C12.9218 12.7476 12.8503 12.8575 12.7736 12.9636C12.7545 12.9902 12.7346 13.016 12.7147 13.0425C12.6358 13.145 12.5525 13.2445 12.4611 13.3359L12.4508 13.3462C12.3594 13.4376 12.2599 13.5209 12.1574 13.5998C12.1316 13.6197 12.1058 13.6396 12.0792 13.658C11.9731 13.7347 11.8633 13.8062 11.7475 13.8681C11.3222 14.0966 10.8364 14.2271 10.3204 14.2271C8.65375 14.2271 7.29806 12.8715 7.29806 11.2047C7.29806 9.53806 8.65367 8.18237 10.3204 8.18237C11.9872 8.18237 13.3428 9.53798 13.3428 11.2047L13.3427 11.2055Z" fill="var(--fill-0, #072929)"/>
</g>
</svg>
