<svg preserveAspectRatio="none" width="100%" height="100%" overflow="visible" style="display: block;" viewBox="0 0 13 8" fill="none" xmlns="http://www.w3.org/2000/svg">
<path id="Vector" fill-rule="evenodd" clip-rule="evenodd" d="M12.3463 0.139307C12.5455 0.330544 12.5519 0.647061 12.3607 0.846267L9.00069 4.34627C8.90641 4.44448 8.77615 4.5 8.64 4.5C8.50385 4.5 8.37359 4.44448 8.27931 4.34627L6.24 2.22199L3.82335 4.73933L5.54513 6.39223L0 8L1.38019 2.3939L3.10197 4.0468L5.87931 1.15373C5.97359 1.05552 6.10385 1 6.24 1C6.37615 1 6.50641 1.05552 6.60069 1.15373L8.64 3.27801L11.6393 0.153735C11.8305 -0.0454709 12.1471 -0.0519304 12.3463 0.139307Z" fill="var(--fill-0, black)"/>
</svg>
