<svg preserveAspectRatio="none" width="100%" height="100%" overflow="visible" style="display: block;" viewBox="0 0 22 14" fill="none" xmlns="http://www.w3.org/2000/svg">
<path id="Vector" fill-rule="evenodd" clip-rule="evenodd" d="M21.2685 7.803C21.0212 9.39095 20.2233 10.8373 19.0182 11.8816C17.8132 12.926 16.2802 13.4999 14.6951 13.5H6.65537C4.89026 13.5 3.19744 12.7888 1.94931 11.523C0.701189 10.2571 0 8.54021 0 6.75C0 4.95979 0.701189 3.2429 1.94931 1.97703C3.19744 0.711158 4.89026 0 6.65537 0H14.6951C15.6568 6.31569e-05 16.6071 0.211537 17.4806 0.61986C18.354 1.02818 19.1298 1.62365 19.7546 2.36526C20.3794 3.10687 20.8382 3.97701 21.0996 4.91574C21.3609 5.85447 21.4186 6.8395 21.2685 7.803ZM6.5796 10.3846C6.07845 10.3828 5.58324 10.2744 5.12604 10.0662C4.66883 9.85804 4.25982 9.55482 3.92548 9.17617C3.59114 8.79753 3.33892 8.35191 3.18515 7.86814C3.03137 7.38437 2.97947 6.87325 3.0328 6.36785C3.12468 5.47762 3.53759 4.6532 4.19222 4.05289C4.84685 3.45259 5.69707 3.11871 6.5796 3.11538C7.08076 3.11715 7.57597 3.22563 8.03317 3.4338C8.49037 3.64197 8.89938 3.94518 9.23372 4.32383C9.56806 4.70247 9.82028 5.14809 9.97406 5.63186C10.1278 6.11563 10.1797 6.62675 10.1264 7.13215C10.0345 8.02238 9.62162 8.8468 8.96698 9.44711C8.31235 10.0474 7.46214 10.3813 6.5796 10.3846Z" fill="var(--fill-0, #D7D7D7)"/>
</svg>
