<svg preserveAspectRatio="none" width="100%" height="100%" overflow="visible" style="display: block;" viewBox="0 0 20 20" fill="none" xmlns="http://www.w3.org/2000/svg">
<g id="ri:amazon-fill">
<rect width="20" height="20" rx="3.2" fill="var(--fill-0, #F9F9F6)"/>
<path id="Vector" d="M7.6822 10.6792L4.74389 12.0094C4.604 12.1342 4.51774 12.3061 4.50245 12.4904C4.48715 12.6747 4.54396 12.8579 4.66145 13.003C4.89769 13.396 5.31113 13.5838 5.58428 13.4266L8.24144 11.62C8.31794 11.531 8.36144 11.4195 8.3649 11.3034C8.36837 11.1874 8.33159 11.0736 8.26051 10.9804C8.2134 10.8737 8.13052 10.7858 8.02544 10.731C7.92036 10.6763 7.79933 10.658 7.6822 10.6792ZM12.3284 10.6798C12.1438 10.609 11.8977 10.7398 11.7488 10.9828C11.6793 11.0757 11.6431 11.1884 11.646 11.3035C11.6489 11.4185 11.6907 11.5293 11.7648 11.6188L14.4195 13.4296C14.6951 13.5832 15.1104 13.3966 15.3467 13.003C15.5829 12.6094 15.5368 12.163 15.2636 12.0094L12.3284 10.6798ZM10.0047 11.9626C9.88681 11.9488 9.76762 11.9742 9.66644 12.0348C9.56527 12.0953 9.48804 12.1875 9.44728 12.2962L9.16058 15.4372C9.16058 15.748 9.53341 16 10.0047 16C10.4759 16 10.8481 15.748 10.8481 15.4372L10.5639 12.2962C10.5227 12.1874 10.4451 12.0953 10.3437 12.0348C10.2422 11.9742 10.1228 11.9488 10.0047 11.9626ZM11.7488 9.0202C11.7975 9.12618 11.8807 9.21354 11.9855 9.26875C12.0903 9.32396 12.2108 9.34394 12.3284 9.3256L15.2667 7.993C15.5398 7.8358 15.5805 7.396 15.3497 7.0006C15.119 6.6052 14.6982 6.4186 14.4226 6.5722L11.7679 8.38C11.6932 8.47041 11.6512 8.5823 11.6483 8.69836C11.6454 8.81441 11.6818 8.92816 11.7519 9.022L11.7488 9.0202ZM5.58675 6.5734C5.31112 6.4162 4.89769 6.6034 4.66391 6.9994C4.54642 7.14455 4.48961 7.32768 4.50491 7.512C4.5202 7.69632 4.60646 7.86817 4.74635 7.993L7.6822 9.322C7.79918 9.34325 7.9201 9.32515 8.02516 9.27065C8.13022 9.21615 8.2132 9.12848 8.26051 9.022C8.33143 8.9289 8.36812 8.81521 8.36466 8.69927C8.3612 8.58334 8.31779 8.47192 8.24144 8.383L5.58675 6.5734ZM10.0047 4C9.53341 4 9.16058 4.2544 9.16058 4.5658L9.45097 7.7062C9.49158 7.81427 9.56825 7.90591 9.66865 7.9664C9.76906 8.0269 9.8874 8.05275 10.0047 8.0398C10.1228 8.05359 10.2422 8.02817 10.3437 7.96765C10.4451 7.90712 10.5227 7.81502 10.5639 7.7062L10.8481 4.5658C10.8488 4.2544 10.4735 4 10.0047 4Z" fill="var(--fill-0, #072929)"/>
</g>
</svg>
