<svg preserveAspectRatio="none" width="100%" height="100%" overflow="visible" style="display: block;" viewBox="0 0 9 15" fill="none" xmlns="http://www.w3.org/2000/svg">
<path id="Vector" d="M7.39199 0.0501953C7.57074 0.0502815 7.74208 0.121154 7.86855 0.247461C7.99514 0.374048 8.0668 0.545979 8.0668 0.725C8.0668 0.904021 7.99514 1.07595 7.86855 1.20254C7.74208 1.32885 7.57074 1.39972 7.39199 1.3998C5.8029 1.3998 4.27834 2.03103 3.15469 3.15469C2.03103 4.27834 1.3998 5.8029 1.3998 7.39199C1.39989 8.98089 2.03121 10.5048 3.15469 11.6283C4.27834 12.752 5.8029 13.3832 7.39199 13.3832C7.5709 13.3833 7.74204 13.4549 7.86855 13.5814C7.99506 13.708 8.06671 13.8791 8.0668 14.058C8.0668 14.237 7.99514 14.409 7.86855 14.5355C7.74206 14.662 7.57082 14.7337 7.39199 14.7338C5.44501 14.7338 3.57738 13.96 2.20059 12.5834C0.823833 11.2066 0.0502816 9.33901 0.0501953 7.39199C0.0501953 5.44486 0.823756 3.57742 2.20059 2.20059C3.57742 0.823756 5.44486 0.0501953 7.39199 0.0501953Z" fill="var(--fill-0, #072929)" stroke="var(--stroke-0, #072929)" stroke-width="0.1"/>
</svg>
