<svg preserveAspectRatio="none" width="100%" height="100%" overflow="visible" style="display: block;" viewBox="0 0 16 16" fill="none" xmlns="http://www.w3.org/2000/svg">
<g id="ri:google-fill">
<rect width="16" height="16" rx="4" fill="var(--fill-0, #072929)"/>
<path id="Vector" d="M3.86055 5.91478C4.25491 5.14567 4.85967 4.49913 5.60729 4.04736C6.35491 3.5956 7.21595 3.35639 8.09427 3.35645C9.37111 3.35645 10.4438 3.81657 11.2639 4.56596L9.90554 5.8976C9.41423 5.43747 8.78978 5.20299 8.09427 5.20299C6.86007 5.20299 5.81538 6.02017 5.44346 7.11733C5.3487 7.39591 5.29469 7.69307 5.29469 7.99951C5.29469 8.30595 5.3487 8.60311 5.44346 8.88169C5.81585 9.97932 6.86007 10.796 8.09427 10.796C8.73151 10.796 9.27399 10.6312 9.6985 10.3526C9.9446 10.1938 10.1553 9.98778 10.3178 9.74693C10.4804 9.50608 10.5914 9.23543 10.6442 8.95134H8.09427V7.1554H12.5563C12.6123 7.45906 12.6426 7.77572 12.6426 8.10491C12.6426 9.51919 12.1262 10.7097 11.2298 11.5176C10.4461 12.227 9.37348 12.6426 8.09427 12.6426C7.47202 12.6428 6.85582 12.5229 6.28089 12.2896C5.70596 12.0564 5.18356 11.7144 4.74357 11.2832C4.30357 10.852 3.95459 10.3401 3.71658 9.77663C3.47857 9.21319 3.3562 8.60932 3.35645 7.99951C3.35645 7.25012 3.53933 6.54159 3.86055 5.91478Z" fill="var(--fill-0, #F9F9F6)"/>
</g>
</svg>
