<svg preserveAspectRatio="none" width="100%" height="100%" overflow="visible" style="display: block;" viewBox="0 0 16 16" fill="none" xmlns="http://www.w3.org/2000/svg">
<g id="ri:amazon-fill">
<rect width="16" height="16" rx="3.2" fill="var(--fill-0, #F9F9F6)"/>
<path id="Vector" d="M13.7803 11.2611C13.7803 11.6754 13.5462 12.4733 13.0201 12.9115C12.9149 12.9913 12.8097 12.9463 12.856 12.83C13.0092 12.4607 13.3595 11.6064 13.1953 11.4098C13.0791 11.2605 12.5993 11.2719 12.19 11.3061C12.0033 11.3294 11.8391 11.3403 11.7119 11.3659C11.594 11.375 11.5703 11.273 11.6882 11.1932C11.8419 11.0864 12.0116 11.0041 12.1912 10.9493C12.856 10.7533 13.6242 10.8712 13.7346 10.9966C13.7555 11.0205 13.7803 11.0884 13.7803 11.2611ZM12.6692 11.998C12.5172 12.1135 12.3571 12.2183 12.19 12.3114C10.9633 13.038 9.3742 13.4187 7.99433 13.4187C5.77278 13.4187 3.78593 12.6112 2.2783 11.2599C2.14881 11.1562 2.25575 11.0057 2.40721 11.0872C4.03161 12.0219 6.04216 12.5872 8.12324 12.5872C9.43317 12.5872 10.8448 12.3456 12.19 11.8258C12.2842 11.7911 12.3895 11.7438 12.4814 11.7107C12.6935 11.6167 12.8802 11.8486 12.6692 11.998ZM9.10251 5.71179C9.10251 5.11851 9.12679 4.76915 8.92735 4.46938C8.75046 4.2226 8.44581 4.07443 8.02035 4.09779C7.55904 4.12287 7.06363 4.42093 6.93761 4.96748C6.91275 5.09286 6.83875 5.21597 6.68499 5.24275L5.27737 5.06608C5.17678 5.04328 5.02359 4.96748 5.07388 4.76915C5.37622 3.20132 6.73528 2.65477 8.02092 2.58125H8.32268C9.02793 2.58125 9.93436 2.78015 10.5142 3.30162C11.2177 3.94905 11.1425 4.81874 11.1425 5.76365V8.00171C11.1425 8.67307 11.4189 8.97056 11.6963 9.32049C11.7715 9.4453 11.7975 9.59234 11.6709 9.69379C11.3067 10.0139 10.9373 10.3281 10.5627 10.6364C10.4616 10.7122 10.2801 10.7202 10.2101 10.6621C9.76498 10.2945 9.6563 10.0904 9.38056 9.71715C8.90076 10.2135 8.49784 10.4877 8.01861 10.6364C7.68164 10.721 7.33502 10.7623 6.98732 10.7595C5.77914 10.7595 4.82242 10.0169 4.82242 8.54826C4.82242 7.3805 5.45252 6.58661 6.38323 6.21104C7.31393 5.83489 8.66664 5.71521 9.10251 5.71293M8.82676 8.67193C9.12736 8.17496 9.10251 7.76804 9.10251 6.85675C8.7256 6.85675 8.34754 6.8824 8.02092 6.9582C7.41683 7.13088 6.93703 7.50531 6.93703 8.30034C6.93703 8.92155 7.26538 9.34443 7.81917 9.34443C7.89548 9.34443 7.96254 9.33588 8.02035 9.31878C8.40766 9.21278 8.64929 9.02129 8.82676 8.67193Z" fill="var(--fill-0, #072929)"/>
</g>
</svg>
