<svg preserveAspectRatio="none" width="100%" height="100%" overflow="visible" style="display: block;" viewBox="0 0 13 8" fill="none" xmlns="http://www.w3.org/2000/svg">
<path id="Vector" fill-rule="evenodd" clip-rule="evenodd" d="M6.95488 1.60777L12.5 0L11.1198 5.6061L9.39804 3.9532L6.62069 6.84627C6.52641 6.94448 6.39615 7 6.26 7C6.12385 7 5.99359 6.94448 5.89931 6.84627L3.86 4.72199L0.860694 7.84627C0.669457 8.04547 0.35294 8.05193 0.153735 7.86069C-0.0454709 7.66946 -0.0519304 7.35294 0.139307 7.15373L3.49931 3.65373C3.59359 3.55552 3.72385 3.5 3.86 3.5C3.99615 3.5 4.12641 3.55552 4.22069 3.65373L6.26 5.77801L8.67665 3.26067L6.95488 1.60777Z" fill="var(--fill-0, black)"/>
</svg>
