<svg preserveAspectRatio="none" width="100%" height="100%" overflow="visible" style="display: block;" viewBox="0 0 3 12" fill="none" xmlns="http://www.w3.org/2000/svg">
<path id="Vector" d="M0 1.19828C0 1.03052 -1.23874e-07 0.947836 0.00958608 0.878336C0.0400874 0.658702 0.141431 0.455021 0.298226 0.298226C0.455021 0.141431 0.658702 0.0400874 0.878336 0.00958608C0.946638 -1.23874e-07 1.03052 0 1.19828 0C1.36603 0 1.44872 -1.23874e-07 1.51822 0.00958608C1.73785 0.0400874 1.94153 0.141431 2.09833 0.298226C2.25512 0.455021 2.35646 0.658702 2.38697 0.878336C2.39655 0.946638 2.39655 1.03052 2.39655 1.19828C2.39655 1.36603 2.39655 1.44872 2.38697 1.51822C2.35646 1.73785 2.25512 1.94153 2.09833 2.09833C1.94153 2.25512 1.73785 2.35646 1.51822 2.38697C1.44991 2.39655 1.36603 2.39655 1.19828 2.39655C1.03052 2.39655 0.947836 2.39655 0.878336 2.38697C0.658702 2.35646 0.455021 2.25512 0.298226 2.09833C0.141431 1.94153 0.0400874 1.73785 0.00958608 1.51822C-1.23874e-07 1.44991 0 1.36603 0 1.19828ZM0 5.99138C0 5.82362 -1.23874e-07 5.74094 0.00958608 5.67144C0.0400874 5.45181 0.141431 5.24813 0.298226 5.09133C0.455021 4.93453 0.658702 4.83319 0.878336 4.80269C0.946638 4.7931 1.03052 4.7931 1.19828 4.7931C1.36603 4.7931 1.44872 4.7931 1.51822 4.80269C1.73785 4.83319 1.94153 4.93453 2.09833 5.09133C2.25512 5.24813 2.35646 5.45181 2.38697 5.67144C2.39655 5.73974 2.39655 5.82362 2.39655 5.99138C2.39655 6.15914 2.39655 6.24182 2.38697 6.31132C2.35646 6.53095 2.25512 6.73463 2.09833 6.89143C1.94153 7.04822 1.73785 7.14957 1.51822 7.18007C1.44991 7.18966 1.36603 7.18966 1.19828 7.18966C1.03052 7.18966 0.947836 7.18966 0.878336 7.18007C0.658702 7.14957 0.455021 7.04822 0.298226 6.89143C0.141431 6.73463 0.0400874 6.53095 0.00958608 6.31132C-1.23874e-07 6.24302 0 6.15914 0 5.99138ZM0 10.7845C0 10.6179 -1.23874e-07 10.534 0.00958608 10.4645C0.040266 10.2453 0.141541 10.042 0.298079 9.88548C0.454618 9.72895 0.657895 9.62767 0.877138 9.59699C0.947836 9.58741 1.03052 9.58741 1.19708 9.58741C1.36364 9.58741 1.44872 9.58741 1.51702 9.59699C1.73626 9.62767 1.93954 9.72895 2.09608 9.88548C2.25261 10.042 2.35389 10.2453 2.38457 10.4645C2.39416 10.534 2.39416 10.6179 2.39416 10.7845C2.39416 10.951 2.39416 11.0349 2.38457 11.1044C2.35389 11.3237 2.25261 11.5269 2.09608 11.6835C1.93954 11.84 1.73626 11.9413 1.51702 11.972C1.44752 11.9816 1.36364 11.9816 1.19708 11.9816C1.03052 11.9816 0.946638 11.9816 0.877138 11.972C0.657895 11.9413 0.454618 11.84 0.298079 11.6835C0.141541 11.5269 0.040266 11.3237 0.00958608 11.1044C-1.23874e-07 11.0349 0 10.951 0 10.7845Z" fill="var(--fill-0, #A3A8B3)"/>
</svg>
