<svg preserveAspectRatio="none" width="100%" height="100%" overflow="visible" style="display: block;" viewBox="0 0 10 6" fill="none" xmlns="http://www.w3.org/2000/svg">
<g id="Criteo-Logo-Orange">
<path id="Path" d="M9.82712 4.87952L8.9141 3.52541C8.88028 3.47534 8.86787 3.41384 8.87964 3.35457C8.89141 3.29531 8.92637 3.24321 8.97675 3.20986C9.39493 2.92972 9.65725 2.42852 9.65725 1.8504C9.65725 0.860474 8.82904 0.0773449 7.80855 0.0773449H5.61477C5.57494 0.0773449 5.53675 0.0931838 5.50861 0.12137C5.48047 0.149557 5.4647 0.187776 5.46477 0.227604V1.18722C5.46457 1.22676 5.49533 1.25954 5.5348 1.26184C6.27719 1.30183 6.87338 1.94183 6.87338 2.67199C6.87338 3.40902 6.27082 4.03527 5.5348 4.075C5.49533 4.0773 5.46457 4.11008 5.46477 4.14962V5.08046C5.46477 5.16331 5.53193 5.23047 5.61477 5.23047H6.88943C6.97227 5.23047 7.03943 5.16331 7.03943 5.08046V4.63198C7.03943 4.31236 7.3155 4.23494 7.52663 4.48554L8.06145 5.15508C8.1095 5.2037 8.17493 5.23119 8.24329 5.23149H9.63993C9.72359 5.23192 9.8006 5.18593 9.83988 5.11207C9.87917 5.0382 9.87425 4.94864 9.82712 4.87952Z" fill="var(--fill-0, #F9F9F6)"/>
<path id="Path_2" d="M2.80998 0C3.6117 0 4.32938 0.342285 4.8423 0.888056C4.87013 0.918267 4.88438 0.958555 4.88174 0.999546C4.87909 1.04054 4.85978 1.07866 4.82829 1.10504L4.10043 1.71499C4.04111 1.76397 3.95438 1.76023 3.89949 1.70633C3.60866 1.42091 3.21822 1.2598 2.81075 1.25708C2.03424 1.25708 1.4057 1.8487 1.4057 2.65449C1.4057 3.46029 2.03424 4.04477 2.81075 4.04477C3.2182 4.04194 3.6086 3.88085 3.89949 3.59552C3.95431 3.54155 4.04104 3.5377 4.10043 3.58661L4.8288 4.19656C4.86039 4.22286 4.8798 4.26097 4.88249 4.30199C4.88519 4.343 4.87094 4.38333 4.84306 4.41354C4.33015 4.95931 3.61247 5.3016 2.81075 5.3016C1.25722 5.3016 0.000139236 4.1851 0.000139236 2.65449C0.000139236 1.12389 1.25722 0 2.80998 0Z" fill="var(--fill-0, #F9F9F6)"/>
</g>
</svg>
