<svg preserveAspectRatio="none" width="100%" height="100%" overflow="visible" style="display: block;" viewBox="0 0 1028 201" fill="none" xmlns="http://www.w3.org/2000/svg">
<g id="Background">
<mask id="mask0_463_39412" style="mask-type:alpha" maskUnits="userSpaceOnUse" x="0" y="5" width="1028" height="196">
<path id="Vector" d="M65.0358 94.2395L0 108.56V200.7H1027.72V40.0571L955.964 45.1541C953.541 45.3262 951.17 45.938 948.967 46.9597L886.504 75.9242C881.009 78.4727 874.654 78.3928 869.224 75.7069L807.429 45.1417C800.809 41.8675 793.214 41.15 786.099 43.1266L727.034 59.5339C721.504 61.0701 715.582 59.3159 711.781 55.0155L672.275 10.3225C667.115 4.48512 658.345 3.56976 652.091 8.21581L621.121 31.223C613.448 36.9232 603.987 39.6872 594.452 39.0144L521.538 33.8694C516.037 33.4813 510.621 35.3813 506.568 39.1203L448.431 92.7586C444.45 96.4312 439.15 98.3323 433.742 98.0274L333.263 92.3609C325.889 91.945 318.544 93.579 312.041 97.0818L273.281 117.961C263.431 123.267 252.577 126.448 241.421 127.299L178.496 132.095C175.789 132.301 173.111 132.783 170.501 133.532L137.46 143.015C130.083 145.132 122.146 142.841 117.031 137.119L84.2482 100.443C79.4342 95.0574 72.0903 92.6861 65.0358 94.2395Z" fill="url(#paint0_radial_463_39412)"/>
</mask>
<g mask="url(#mask0_463_39412)">
<g id="Vector_2" opacity="0.6">
</g>
</g>
</g>
<defs>
<radialGradient id="paint0_radial_463_39412" cx="0" cy="0" r="1" gradientUnits="userSpaceOnUse" gradientTransform="translate(513.86 36.8672) rotate(90) scale(137.352 513.86)">
<stop stop-opacity="0.1"/>
<stop offset="1" stop-opacity="0"/>
</radialGradient>
</defs>
</svg>
