<svg preserveAspectRatio="none" width="100%" height="100%" overflow="visible" style="display: block;" viewBox="0 0 17 16" fill="none" xmlns="http://www.w3.org/2000/svg">
<path id="Vector" d="M16.6644 12.6917C16.6644 13.2975 16.3269 14.4642 15.5686 15.105C15.4169 15.2217 15.2653 15.1558 15.3319 14.9858C15.5528 14.4458 16.0578 13.1967 15.8211 12.9092C15.6536 12.6908 14.9619 12.7075 14.3719 12.7575C14.1028 12.7917 13.8661 12.8075 13.6828 12.845C13.5128 12.8583 13.4786 12.7092 13.6486 12.5925C13.8701 12.4363 14.1147 12.316 14.3736 12.2358C15.3319 11.9492 16.4394 12.1217 16.5986 12.305C16.6286 12.34 16.6644 12.4392 16.6644 12.6917ZM15.0628 13.7692C14.8436 13.9381 14.6128 14.0913 14.3719 14.2275C12.6036 15.29 10.3128 15.8467 8.32359 15.8467C5.12109 15.8467 2.25692 14.6658 0.083591 12.69C-0.103076 12.5383 0.051091 12.3183 0.269424 12.4375C2.61109 13.8042 5.50942 14.6308 8.50942 14.6308C10.3978 14.6308 12.4328 14.2775 14.3719 13.5175C14.5078 13.4667 14.6594 13.3975 14.7919 13.3492C15.0978 13.2117 15.3669 13.5508 15.0628 13.7692ZM9.92109 4.5775C9.92109 3.71 9.95609 3.19917 9.66859 2.76083C9.41359 2.4 8.97442 2.18333 8.36109 2.2175C7.69609 2.25417 6.98192 2.69 6.80026 3.48917C6.76442 3.6725 6.65776 3.8525 6.43609 3.89167L4.40692 3.63333C4.26192 3.6 4.04109 3.48917 4.11359 3.19917C4.54942 0.906667 6.50859 0.1075 8.36192 0H8.79692C9.81359 0 11.1203 0.290833 11.9561 1.05333C12.9703 2 12.8619 3.27167 12.8619 4.65333V7.92583C12.8619 8.9075 13.2603 9.3425 13.6603 9.85417C13.7686 10.0367 13.8061 10.2517 13.6236 10.4C13.0986 10.8681 12.566 11.3276 12.0261 11.7783C11.8803 11.8892 11.6186 11.9008 11.5178 11.8158C10.8761 11.2783 10.7194 10.98 10.3219 10.4342C9.63026 11.16 9.04942 11.5608 8.35859 11.7783C7.87283 11.902 7.37316 11.9625 6.87192 11.9583C5.13026 11.9583 3.75109 10.8725 3.75109 8.725C3.75109 7.0175 4.65942 5.85667 6.00109 5.3075C7.34276 4.7575 9.29276 4.5825 9.92109 4.57917M9.52359 8.90583C9.95692 8.17917 9.92109 7.58417 9.92109 6.25167C9.37776 6.25167 8.83276 6.28917 8.36192 6.4C7.49109 6.6525 6.79942 7.2 6.79942 8.3625C6.79942 9.27083 7.27276 9.88917 8.07109 9.88917C8.18109 9.88917 8.27776 9.87667 8.36109 9.85167C8.91942 9.69667 9.26776 9.41667 9.52359 8.90583Z" fill="var(--fill-0, black)"/>
</svg>
