<svg preserveAspectRatio="none" width="100%" height="100%" overflow="visible" style="display: block;" viewBox="0 0 16 16" fill="none" xmlns="http://www.w3.org/2000/svg">
<g id="Group 2147231182">
<path id="Vector" d="M16 1.59973V10.7523C16.0004 10.996 15.945 11.2365 15.8383 11.4556C15.7315 11.6747 15.5761 11.8665 15.384 12.0164C15.1011 12.2321 14.7557 12.3501 14.3999 12.3524C14.2705 12.352 14.1415 12.3359 14.0159 12.3044L6.39965 10.4003L5.50362 10.1762H3.99956C2.95243 10.1761 1.94711 9.76534 1.19946 9.03218C0.632231 8.47594 0.24347 7.76339 0.0827326 6.98536C-0.0780045 6.20733 -0.003437 5.39906 0.29693 4.66357C0.597298 3.92808 1.10986 3.29869 1.76928 2.85562C2.42871 2.41256 3.20512 2.17588 3.99956 2.17576H5.50362L14.0159 0.0476361C14.2509 -0.0110161 14.4961 -0.0155683 14.7331 0.0343224C14.97 0.0842132 15.1926 0.187245 15.384 0.335654C15.5761 0.48553 15.7315 0.677321 15.8383 0.896392C15.945 1.11546 16.0004 1.35603 16 1.59973Z" fill="var(--fill-0, #231F20)"/>
<path id="Vector_2" d="M6.39963 11.2243V14.1765C6.39963 14.6008 6.23105 15.0078 5.93099 15.3079C5.63092 15.608 5.22394 15.7766 4.79957 15.7766H3.85554C3.48009 15.7838 3.11406 15.6587 2.82154 15.4232C2.52902 15.1877 2.32864 14.8568 2.25548 14.4885L1.43945 10.2402C1.86713 10.514 2.33767 10.7141 2.8315 10.8323C3.21332 10.9288 3.60572 10.9772 3.99955 10.9763H5.4076L6.39963 11.2243Z" fill="var(--fill-0, #231F20)"/>
</g>
</svg>
