<svg preserveAspectRatio="none" width="100%" height="100%" overflow="visible" style="display: block;" viewBox="0 0 22 17" fill="none" xmlns="http://www.w3.org/2000/svg">
<g id="Group">
<path id="Vector" d="M1.49674 16.4937H4.99512V7.99839L0 4.25473V15.0112C0 15.8312 0.676758 16.4937 1.49674 16.4937Z" fill="var(--fill-0, #4285F4)"/>
<path id="Vector_2" d="M17.0031 16.4937H20.5015C21.3376 16.4937 21.9982 15.8169 21.9982 14.9969V4.25473L17.0031 7.99839V16.4937Z" fill="var(--fill-0, #34A853)"/>
<path id="Vector_3" d="M17.0031 1.50473V7.99839L22 4.25474V2.25311C22 0.396499 19.8838 -0.656235 18.3996 0.453791L17.0031 1.50473Z" fill="var(--fill-0, #FBBC04)"/>
<path id="Vector_4" d="M4.99512 7.99839V1.50473L11 6.01108L17.0031 1.50473V7.99839L11 12.4904L4.99512 7.99839Z" fill="var(--fill-0, #EA4335)"/>
<path id="Vector_5" d="M0 2.25359V4.25522L4.99691 7.99887V1.50522L3.60042 0.454272C2.11621 -0.653964 0 0.411303 0 2.25359Z" fill="var(--fill-0, #C5221F)"/>
</g>
</svg>
