<svg preserveAspectRatio="none" width="100%" height="100%" overflow="visible" style="display: block;" viewBox="0 0 14 15" fill="none" xmlns="http://www.w3.org/2000/svg">
<path id="Vector" d="M3.87932 8.349L0.297316 10.0117C0.126781 10.1678 0.0216262 10.3826 0.00298272 10.613C-0.0156607 10.8434 0.0535894 11.0723 0.196816 11.2537C0.484816 11.745 0.988816 11.9798 1.32182 11.7833L4.56107 9.525C4.65433 9.41379 4.70736 9.27437 4.71158 9.12929C4.7158 8.98421 4.67096 8.84194 4.58432 8.7255C4.52689 8.59212 4.42584 8.48221 4.29775 8.4138C4.16965 8.34539 4.02211 8.32254 3.87932 8.349ZM9.54332 8.34975C9.31832 8.26125 9.01832 8.42475 8.83682 8.7285C8.752 8.84464 8.70793 8.98555 8.71146 9.12931C8.71499 9.27308 8.76591 9.41166 8.85632 9.5235L12.0926 11.787C12.4286 11.979 12.9348 11.7457 13.2228 11.2537C13.5108 10.7617 13.4546 10.2037 13.1216 10.0117L9.54332 8.34975ZM6.71057 9.95325C6.56688 9.936 6.42159 9.9678 6.29824 10.0435C6.1749 10.1192 6.08075 10.2343 6.03107 10.3702L5.68157 14.2965C5.68157 14.685 6.13607 15 6.71057 15C7.28507 15 7.73882 14.685 7.73882 14.2965L7.39232 10.3702C7.34209 10.2342 7.2475 10.1191 7.1238 10.0434C7.00011 9.96779 6.85453 9.93601 6.71057 9.95325ZM8.83682 6.27525C8.8962 6.40772 8.9976 6.51693 9.12533 6.58594C9.25305 6.65495 9.39996 6.67993 9.54332 6.657L13.1253 4.99125C13.4583 4.79475 13.5078 4.245 13.2266 3.75075C12.9453 3.2565 12.4323 3.02325 12.0963 3.21525L8.86007 5.475C8.76905 5.58802 8.71781 5.72788 8.71429 5.87294C8.71076 6.01801 8.75514 6.1602 8.84057 6.2775L8.83682 6.27525ZM1.32482 3.21675C0.988816 3.02025 0.484816 3.25425 0.199816 3.74925C0.0565893 3.93068 -0.0126608 4.1596 0.00598268 4.39C0.0246262 4.6204 0.129782 4.83521 0.300316 4.99125L3.87932 6.6525C4.02193 6.67907 4.16933 6.65644 4.29741 6.58831C4.42548 6.52019 4.52664 6.41061 4.58432 6.2775C4.67077 6.16112 4.7155 6.01901 4.71128 5.87409C4.70707 5.72917 4.65415 5.5899 4.56107 5.47875L1.32482 3.21675ZM6.71057 0C6.13607 0 5.68157 0.318 5.68157 0.70725L6.03557 4.63275C6.08508 4.76784 6.17853 4.88239 6.30094 4.958C6.42334 5.03362 6.5676 5.06593 6.71057 5.04975C6.85453 5.06699 7.00011 5.03521 7.1238 4.95956C7.2475 4.8839 7.34209 4.76877 7.39232 4.63275L7.73882 0.70725C7.73957 0.318 7.28207 0 6.71057 0Z" fill="var(--fill-0, white)"/>
</svg>
