<svg preserveAspectRatio="none" width="100%" height="100%" overflow="visible" style="display: block;" viewBox="0 0 10 10" fill="none" xmlns="http://www.w3.org/2000/svg">
<g id="Group 2147231184">
<path id="Vector" d="M5.95547 2.64687H7.94062V1.32344H5.95547V2.64687ZM0 2.64687V0.992578C0 0.444592 0.444592 0 0.992578 0H8.27148C8.81947 0 9.26406 0.444592 9.26406 0.992578V2.97773C9.26406 3.52572 8.81947 3.97031 8.27148 3.97031H0.992578C0.444592 3.97031 0 3.52572 0 2.97773V2.64687ZM3.30859 7.94062H7.94062V6.61719H3.30859V7.94062ZM0 7.94062V6.28633C0 5.73834 0.444592 5.29375 0.992578 5.29375H8.27148C8.81947 5.29375 9.26406 5.73834 9.26406 6.28633V8.27148C9.26406 8.81947 8.81947 9.26406 8.27148 9.26406H0.992578C0.444592 9.26406 0 8.81947 0 8.27148V7.94062Z" fill="var(--fill-0, #F9F9F6)"/>
</g>
</svg>
