<svg preserveAspectRatio="none" width="100%" height="100%" overflow="visible" style="display: block;" viewBox="0 0 2 10" fill="none" xmlns="http://www.w3.org/2000/svg">
<path id="Vector" d="M0 1C0 0.86 -1.03377e-07 0.791 0.0079999 0.733C0.0334542 0.549708 0.118029 0.37973 0.248879 0.248879C0.37973 0.118029 0.549708 0.0334542 0.733 0.0079999C0.79 -1.03377e-07 0.86 0 1 0C1.14 0 1.209 -1.03377e-07 1.267 0.0079999C1.45029 0.0334542 1.62027 0.118029 1.75112 0.248879C1.88197 0.37973 1.96655 0.549708 1.992 0.733C2 0.79 2 0.86 2 1C2 1.14 2 1.209 1.992 1.267C1.96655 1.45029 1.88197 1.62027 1.75112 1.75112C1.62027 1.88197 1.45029 1.96655 1.267 1.992C1.21 2 1.14 2 1 2C0.86 2 0.791 2 0.733 1.992C0.549708 1.96655 0.37973 1.88197 0.248879 1.75112C0.118029 1.62027 0.0334542 1.45029 0.0079999 1.267C-1.03377e-07 1.21 0 1.14 0 1ZM0 5C0 4.86 -1.03377e-07 4.791 0.0079999 4.733C0.0334542 4.54971 0.118029 4.37973 0.248879 4.24888C0.37973 4.11803 0.549708 4.03345 0.733 4.008C0.79 4 0.86 4 1 4C1.14 4 1.209 4 1.267 4.008C1.45029 4.03345 1.62027 4.11803 1.75112 4.24888C1.88197 4.37973 1.96655 4.54971 1.992 4.733C2 4.79 2 4.86 2 5C2 5.14 2 5.209 1.992 5.267C1.96655 5.45029 1.88197 5.62027 1.75112 5.75112C1.62027 5.88197 1.45029 5.96655 1.267 5.992C1.21 6 1.14 6 1 6C0.86 6 0.791 6 0.733 5.992C0.549708 5.96655 0.37973 5.88197 0.248879 5.75112C0.118029 5.62027 0.0334542 5.45029 0.0079999 5.267C-1.03377e-07 5.21 0 5.14 0 5ZM0 9C0 8.861 -1.03377e-07 8.791 0.0079999 8.733C0.0336033 8.55003 0.118121 8.38039 0.248757 8.24976C0.379393 8.11912 0.549035 8.0346 0.732 8.009C0.791 8.001 0.86 8.001 0.999 8.001C1.138 8.001 1.209 8.001 1.266 8.009C1.44896 8.0346 1.61861 8.11912 1.74924 8.24976C1.87988 8.38039 1.9644 8.55003 1.99 8.733C1.998 8.791 1.998 8.861 1.998 9C1.998 9.139 1.998 9.209 1.99 9.267C1.9644 9.44997 1.87988 9.61961 1.74924 9.75024C1.61861 9.88088 1.44896 9.9654 1.266 9.991C1.208 9.999 1.138 9.999 0.999 9.999C0.86 9.999 0.79 9.999 0.732 9.991C0.549035 9.9654 0.379393 9.88088 0.248757 9.75024C0.118121 9.61961 0.0336033 9.44997 0.0079999 9.267C-1.03377e-07 9.209 0 9.139 0 9Z" fill="var(--fill-0, black)"/>
</svg>
