<svg preserveAspectRatio="none" width="100%" height="100%" overflow="visible" style="display: block;" viewBox="0 0 24 22" fill="none" xmlns="http://www.w3.org/2000/svg">
<g id="Microsoft_Office_Outlook_(2018&#226;&#128;&#147;present) 1" clip-path="url(#clip0_425_34520)">
<path id="Vector" d="M23.65 11.55C23.6513 11.3651 23.5557 11.1929 23.3981 11.0962H23.3953L23.3854 11.0907L15.1904 6.23975C15.155 6.21584 15.1183 6.19398 15.0804 6.1743C14.764 6.01106 14.3881 6.01106 14.0717 6.1743C14.0338 6.194 13.9971 6.21584 13.9617 6.23975L5.76674 11.0907L5.75685 11.0962C5.50638 11.252 5.4296 11.5813 5.58535 11.8318C5.63124 11.9056 5.69445 11.9671 5.76949 12.0109L13.9645 16.8619C14 16.8856 14.0367 16.9074 14.0745 16.9273C14.3909 17.0906 14.7668 17.0906 15.0832 16.9273C15.121 16.9074 15.1577 16.8856 15.1932 16.8619L23.3882 12.0109C23.5519 11.9154 23.6518 11.7395 23.65 11.55Z" fill="var(--fill-0, #0A2767)"/>
<path id="Vector_2" d="M6.72209 8.31104H12.1V13.2407H6.72209V8.31104ZM22.55 3.3V1.04499C22.5629 0.481192 22.1166 0.01351 21.5528 0H7.59715C7.03335 0.01351 6.58708 0.481192 6.59999 1.04499V3.3L14.85 5.49999L22.55 3.3Z" fill="var(--fill-0, #0364B8)"/>
<path id="Vector_3" d="M6.59999 3.3H12.1V8.24999H6.59999V3.3Z" fill="var(--fill-0, #0078D4)"/>
<path id="Vector_4" d="M17.6 3.3H12.1V8.24999L17.6 13.2H22.55V8.24999L17.6 3.3Z" fill="var(--fill-0, #28A8EA)"/>
<path id="Vector_5" d="M12.1 8.24999H17.6V13.2H12.1V8.24999Z" fill="var(--fill-0, #0078D4)"/>
<path id="Vector_6" d="M12.1 13.2H17.6V18.15H12.1V13.2Z" fill="var(--fill-0, #0364B8)"/>
<path id="Vector_7" d="M6.72217 13.2402H12.1001V17.7216H6.72217V13.2402Z" fill="var(--fill-0, #14447D)"/>
<path id="Vector_8" d="M17.6 13.2H22.55V18.15H17.6V13.2Z" fill="var(--fill-0, #0078D4)"/>
<path id="Vector_9" d="M23.3981 11.9806L23.3876 11.9861L15.1926 16.5951C15.1569 16.6171 15.1206 16.638 15.0826 16.6567C14.9434 16.723 14.7923 16.7604 14.6382 16.7667L14.1905 16.5049C14.1527 16.4859 14.116 16.4648 14.0805 16.4417L5.77554 11.7018H5.77169L5.49999 11.55V20.8802C5.50423 21.5027 6.01214 22.0039 6.63463 22H22.5329C22.5423 22 22.5505 21.9956 22.5604 21.9956C22.6919 21.9872 22.8215 21.9601 22.9454 21.9153C22.999 21.8926 23.0506 21.8658 23.1 21.835C23.1368 21.8141 23.2001 21.7684 23.2001 21.7684C23.4818 21.56 23.6486 21.2307 23.65 20.8802V11.55C23.6498 11.7284 23.5535 11.893 23.3981 11.9806Z" fill="url(#paint0_linear_425_34520)"/>
<path id="Vector_10" opacity="0.5" d="M23.2102 11.5135V12.0855L14.6412 17.9853L5.76969 11.706C5.76969 11.7029 5.76723 11.7005 5.76419 11.7005L4.9502 11.211V10.7985L5.2857 10.793L5.99519 11.2L6.01168 11.2055L6.07218 11.244C6.07218 11.244 14.4102 16.0015 14.4322 16.0125L14.7512 16.1995C14.7787 16.1885 14.8062 16.1775 14.8392 16.1665C14.8557 16.1555 23.1167 11.508 23.1167 11.508L23.2102 11.5135Z" fill="var(--fill-0, #0A2767)"/>
<path id="Vector_11" d="M23.3981 11.9806L23.3876 11.9867L15.1926 16.5957C15.1569 16.6177 15.1206 16.6386 15.0826 16.6573C14.7644 16.8128 14.3922 16.8128 14.0739 16.6573C14.0362 16.6386 13.9995 16.618 13.9639 16.5957L5.76895 11.9867L5.75906 11.9806C5.60084 11.8949 5.50164 11.73 5.5 11.55V20.8802C5.50394 21.5026 6.01168 22.0039 6.63405 22C6.63405 22 6.63408 22 6.6341 22H22.5159C23.1383 22.004 23.646 21.5026 23.65 20.8802C23.65 20.8802 23.65 20.8802 23.65 20.8802V11.55C23.6498 11.7284 23.5535 11.893 23.3981 11.9806Z" fill="var(--fill-0, #1490DF)"/>
<path id="Vector_12" opacity="0.1" d="M15.312 16.5275L15.1893 16.5962C15.1538 16.6189 15.1171 16.6396 15.0793 16.6584C14.9442 16.7247 14.7973 16.7636 14.647 16.7728L17.765 20.46L23.2039 21.7706C23.353 21.6581 23.4715 21.51 23.5488 21.34L15.312 16.5275Z" fill="var(--fill-0, black)"/>
<path id="Vector_13" opacity="0.05" d="M15.8675 16.2151L15.1893 16.5962C15.1538 16.6189 15.1171 16.6396 15.0793 16.6584C14.9442 16.7247 14.7973 16.7636 14.647 16.7728L16.1078 20.8004L23.2056 21.769C23.4852 21.559 23.6498 21.2298 23.65 20.8802V20.7597L15.8675 16.2151Z" fill="var(--fill-0, black)"/>
<path id="Vector_14" d="M6.6495 22H22.5142C22.7584 22.0012 22.9964 21.9241 23.1935 21.78L14.19 16.506C14.1522 16.4871 14.1154 16.4659 14.08 16.4428L5.77499 11.7029H5.77115L5.5 11.55V20.8483C5.49938 21.4837 6.01403 21.9994 6.6495 22V22Z" fill="var(--fill-0, #28A8EA)"/>
<path id="Vector_15" opacity="0.1" d="M13.2 5.40854V17.14C13.199 17.5513 12.9489 17.9211 12.5675 18.075C12.4493 18.1258 12.3221 18.152 12.1935 18.152H5.5V4.95039H6.6V4.40039H12.1935C12.7491 4.4025 13.1988 4.8529 13.2 5.40854Z" fill="var(--fill-0, black)"/>
<path id="Vector_16" opacity="0.2" d="M12.65 5.95839V17.6899C12.6514 17.8227 12.6232 17.9542 12.5675 18.0749C12.4148 18.4513 12.0498 18.6984 11.6435 18.7002H5.5V4.95024H11.6435C11.8031 4.94864 11.9604 4.98845 12.1 5.06575C12.4371 5.2356 12.6499 5.58087 12.65 5.95839Z" fill="var(--fill-0, black)"/>
<path id="Vector_17" opacity="0.2" d="M12.65 5.95839V16.5899C12.6473 17.1453 12.1989 17.5954 11.6435 17.6002H5.5V4.95024H11.6435C11.8031 4.94864 11.9604 4.98845 12.1 5.06575C12.4371 5.2356 12.6499 5.58087 12.65 5.95839Z" fill="var(--fill-0, black)"/>
<path id="Vector_18" opacity="0.2" d="M12.1 5.95814V16.5896C12.0994 17.1459 11.6497 17.5973 11.0935 17.6H5.49999V4.95H11.0935C11.6497 4.95029 12.1003 5.40142 12.1 5.9576C12.1 5.95778 12.1 5.95796 12.1 5.95814Z" fill="var(--fill-0, black)"/>
<path id="Vector_19" d="M1.00815 4.95H11.0918C11.6486 4.95 12.1 5.40136 12.1 5.95814V16.0418C12.1 16.5986 11.6486 17.05 11.0918 17.05H1.00815C0.451357 17.05 0 16.5986 0 16.0418V5.95814C0 5.40136 0.45137 4.95 1.00815 4.95Z" fill="url(#paint1_linear_425_34520)"/>
<path id="Vector_20" d="M3.15095 9.17839C3.39942 8.649 3.80049 8.20597 4.30265 7.90625C4.85877 7.58786 5.49196 7.42914 6.1325 7.44754C6.72618 7.43467 7.31199 7.58516 7.82595 7.88259C8.30918 8.17077 8.69838 8.59301 8.9463 9.09808C9.21629 9.65463 9.35085 10.2671 9.339 10.8856C9.35209 11.5319 9.21364 12.1724 8.93475 12.7556C8.68093 13.2787 8.27939 13.716 7.77975 14.0134C7.24598 14.32 6.63842 14.4744 6.02306 14.46C5.4167 14.4747 4.81797 14.3225 4.2922 14.02C3.80479 13.7315 3.41071 13.3088 3.15701 12.8023C2.88541 12.2538 2.74925 11.6482 2.75991 11.0363C2.74859 10.3954 2.88227 9.76032 3.15095 9.17839ZM4.37855 12.1649C4.51102 12.4996 4.73568 12.7898 5.02644 13.002C5.3226 13.209 5.67723 13.3158 6.03844 13.3067C6.42311 13.3219 6.80228 13.2115 7.11864 12.9921C7.40572 12.7806 7.62448 12.4895 7.74784 12.155C7.88574 11.7813 7.95379 11.3856 7.94859 10.9873C7.95285 10.5853 7.88888 10.1855 7.75938 9.80484C7.64501 9.46119 7.43331 9.15816 7.14999 8.93254C6.84156 8.70277 6.46341 8.58623 6.07914 8.60254C5.7101 8.59298 5.34753 8.70061 5.04349 8.90999C4.74781 9.12305 4.51889 9.41588 4.38349 9.75423C4.08314 10.5298 4.08157 11.3893 4.37909 12.166L4.37855 12.1649Z" fill="var(--fill-0, white)"/>
<path id="Vector_21" d="M17.6 3.3H22.55V8.24999H17.6V3.3Z" fill="var(--fill-0, #50D9FF)"/>
</g>
<defs>
<linearGradient id="paint0_linear_425_34520" x1="14.575" y1="11.55" x2="14.575" y2="22" gradientUnits="userSpaceOnUse">
<stop stop-color="#35B8F1"/>
<stop offset="1" stop-color="#28A8EA"/>
</linearGradient>
<linearGradient id="paint1_linear_425_34520" x1="2.10201" y1="4.16225" x2="9.99798" y2="17.8377" gradientUnits="userSpaceOnUse">
<stop stop-color="#1784D9"/>
<stop offset="0.5" stop-color="#107AD5"/>
<stop offset="1" stop-color="#0A63C9"/>
</linearGradient>
<clipPath id="clip0_425_34520">
<rect width="23.65" height="22" fill="white"/>
</clipPath>
</defs>
</svg>
