<svg preserveAspectRatio="none" width="100%" height="100%" overflow="visible" style="display: block;" viewBox="0 0 16 16" fill="none" xmlns="http://www.w3.org/2000/svg">
<g id="cib:instacart">
<rect width="16" height="16" rx="4" fill="var(--fill-0, #072929)"/>
<path id="Vector" d="M9.56871 6.97062C10.1838 7.58891 10.6856 8.60101 10.3982 9.19918C9.62937 10.8059 3.89349 13.6223 3.40528 13.1357C2.9187 12.6491 5.73701 6.90963 7.34177 6.1392C7.94157 5.85374 8.95205 6.36044 9.57034 6.97062L9.56871 6.97743V6.97062ZM12.6079 6.29491C12.5083 5.92478 12.253 5.55141 11.8729 5.50761C11.1767 5.42652 10.077 6.65823 10.1546 6.9505C10.234 7.24959 11.785 7.76148 12.3611 7.34756C12.6602 7.13314 12.6991 6.67185 12.6011 6.30334L12.6079 6.29491ZM10.4488 2.87842C10.9675 3.01856 11.4914 3.37507 11.5537 3.90901C11.6653 4.88738 9.93852 6.42629 9.52784 6.31664C9.11911 6.20668 8.39572 4.03066 8.98027 3.21806C9.28098 2.79733 9.93138 2.73991 10.4501 2.8768V2.87842H10.4488Z" fill="var(--fill-0, #F9F9F6)"/>
</g>
</svg>
