<svg preserveAspectRatio="none" width="100%" height="100%" overflow="visible" style="display: block;" viewBox="0 0 20 20" fill="none" xmlns="http://www.w3.org/2000/svg">
<g id="ri:amazon-fill">
<rect width="20" height="20" rx="3.2" fill="var(--fill-0, #F9F9F6)"/>
<path id="Vector" fill-rule="evenodd" clip-rule="evenodd" d="M7.58851 6.00512C6.62541 5.94272 5.85856 6.46805 5.32237 7.12783C4.78315 7.79159 4.40335 8.67092 4.19322 9.54912C3.9843 10.4268 3.93176 11.3583 4.10023 12.1383C4.26447 12.8963 4.68231 13.6758 5.56148 13.9225C6.40019 14.158 7.15255 13.8233 7.72739 13.3688C8.30343 12.9139 8.80219 12.2649 9.20434 11.638C9.51953 11.1461 9.78883 10.6452 10.0002 10.2174C10.2115 10.6446 10.4808 11.1461 10.7954 11.638C11.1976 12.2649 11.6963 12.9139 12.2724 13.3688C12.8472 13.8233 13.5996 14.158 14.4383 13.9225C15.3174 13.6758 15.7353 12.8963 15.8995 12.1383C16.0686 11.3583 16.0154 10.4268 15.8065 9.54912C15.5964 8.67092 15.2166 7.79102 14.6774 7.12783C14.1418 6.46805 13.3749 5.94215 12.4118 6.00512C11.3648 6.0732 10.6185 6.8385 10.1855 7.4166C10.1214 7.50304 10.0596 7.59101 10.0002 7.6804C9.9408 7.59086 9.87879 7.50289 9.81419 7.4166C9.38125 6.83794 8.63554 6.07377 7.58851 6.00512ZM9.3094 8.85587C9.13852 9.2615 8.72369 10.1879 8.16938 11.0531C7.79441 11.6385 7.37657 12.1639 6.94967 12.5009C6.52276 12.8378 6.18764 12.9139 5.90807 12.8356C5.66896 12.7686 5.41475 12.5179 5.28372 11.9125C5.15813 11.3299 5.18892 10.5652 5.37188 9.79761C5.55544 9.03003 5.87788 8.31465 6.28244 7.81598C6.69002 7.31391 7.10907 7.11138 7.50458 7.13748C7.9671 7.16755 8.42842 7.53743 8.82574 8.06901C9.04795 8.36571 9.214 8.66582 9.3088 8.8553L9.3094 8.85587ZM10.6909 8.85587C10.8612 9.2615 11.2767 10.1879 11.8304 11.0531C12.2059 11.6385 12.6238 12.1639 13.0501 12.5009C13.4776 12.8384 13.8121 12.9139 14.0923 12.8356C14.3308 12.7686 14.585 12.5179 14.716 11.9125C14.8422 11.3299 14.8114 10.5652 14.6279 9.79761C14.4443 9.03003 14.1225 8.31465 13.7173 7.81598C13.3097 7.31391 12.8913 7.11138 12.4952 7.13748C12.0326 7.16755 11.5713 7.53743 11.174 8.06901C10.99 8.31802 10.8284 8.58103 10.6909 8.8553V8.85587Z" fill="var(--fill-0, #072929)"/>
</g>
</svg>
