<svg preserveAspectRatio="none" width="100%" height="100%" overflow="visible" style="display: block;" viewBox="0 0 10 10" fill="none" xmlns="http://www.w3.org/2000/svg">
<path id="Vector" d="M9.99865 7.615C9.99865 7.9785 9.79615 8.6785 9.34115 9.063C9.25015 9.133 9.15915 9.0935 9.19915 8.9915C9.33165 8.6675 9.63465 7.918 9.49265 7.7455C9.39215 7.6145 8.97715 7.6245 8.62315 7.6545C8.46165 7.675 8.31965 7.6845 8.20965 7.707C8.10765 7.715 8.08715 7.6255 8.18915 7.5555C8.32203 7.46179 8.46883 7.38958 8.62415 7.3415C9.19915 7.1695 9.86365 7.273 9.95915 7.383C9.97715 7.404 9.99865 7.4635 9.99865 7.615ZM9.03765 8.2615C8.90619 8.36288 8.76767 8.45478 8.62315 8.5365C7.56215 9.174 6.18765 9.508 4.99415 9.508C3.07265 9.508 1.35415 8.7995 0.0501546 7.614C-0.0618454 7.523 0.0306546 7.391 0.161655 7.4625C1.56665 8.2825 3.30565 8.7785 5.10565 8.7785C6.23865 8.7785 7.45965 8.5665 8.62315 8.1105C8.70465 8.08 8.79565 8.0385 8.87515 8.0095C9.05865 7.927 9.22015 8.1305 9.03765 8.2615ZM5.95265 2.7465C5.95265 2.226 5.97365 1.9195 5.80115 1.6565C5.64815 1.44 5.38465 1.31 5.01665 1.3305C4.61765 1.3525 4.18915 1.614 4.08015 2.0935C4.05865 2.2035 3.99465 2.3115 3.86165 2.335L2.64415 2.18C2.55715 2.16 2.42465 2.0935 2.46815 1.9195C2.72965 0.544 3.90515 0.0645 5.01715 0H5.27815C5.88815 0 6.67215 0.1745 7.17365 0.632C7.78215 1.2 7.71715 1.963 7.71715 2.792V4.7555C7.71715 5.3445 7.95615 5.6055 8.19615 5.9125C8.26115 6.022 8.28365 6.151 8.17415 6.24C7.85915 6.52083 7.53961 6.79654 7.21565 7.067C7.12815 7.1335 6.97115 7.1405 6.91065 7.0895C6.52565 6.767 6.43165 6.588 6.19315 6.2605C5.77815 6.696 5.42965 6.9365 5.01515 7.067C4.7237 7.14117 4.42389 7.17747 4.12315 7.175C3.07815 7.175 2.25065 6.5235 2.25065 5.235C2.25065 4.2105 2.79565 3.514 3.60065 3.1845C4.40565 2.8545 5.57565 2.7495 5.95265 2.7475M5.71415 5.3435C5.97415 4.9075 5.95265 4.5505 5.95265 3.751C5.62665 3.751 5.29965 3.7735 5.01715 3.84C4.49465 3.9915 4.07965 4.32 4.07965 5.0175C4.07965 5.5625 4.36365 5.9335 4.84265 5.9335C4.90865 5.9335 4.96665 5.926 5.01665 5.911C5.35165 5.818 5.56065 5.65 5.71415 5.3435Z" fill="var(--fill-0, black)"/>
</svg>
