<svg preserveAspectRatio="none" width="100%" height="100%" overflow="visible" style="display: block;" viewBox="0 0 16 16" fill="none" xmlns="http://www.w3.org/2000/svg">
<g id="cbi:walmart">
<rect width="16" height="16" rx="4" fill="var(--fill-0, #072929)"/>
<path id="Vector" d="M6.04794 8.58645L3.57303 9.7353C3.4552 9.84311 3.38254 9.99153 3.36966 10.1507C3.35678 10.3099 3.40463 10.4681 3.50359 10.5934C3.70258 10.9329 4.05081 11.0951 4.28089 10.9593L6.51899 9.39899C6.58343 9.32215 6.62007 9.22582 6.62298 9.12558C6.6259 9.02534 6.59492 8.92704 6.53505 8.84659C6.49537 8.75443 6.42556 8.67849 6.33705 8.63122C6.24854 8.58396 6.1466 8.56817 6.04794 8.58645ZM9.96138 8.58697C9.80592 8.52582 9.59864 8.63879 9.47324 8.84866C9.41464 8.9289 9.38419 9.02626 9.38662 9.12559C9.38906 9.22493 9.42425 9.32068 9.48671 9.39795L11.7227 10.9619C11.9549 11.0945 12.3047 10.9334 12.5037 10.5934C12.7026 10.2535 12.6638 9.86796 12.4337 9.7353L9.96138 8.58697ZM8.00414 9.69488C7.90487 9.68296 7.80448 9.70493 7.71926 9.75723C7.63404 9.80953 7.56898 9.88909 7.53466 9.983L7.29317 12.6958C7.29317 12.9642 7.6072 13.1818 8.00414 13.1818C8.40108 13.1818 8.71459 12.9642 8.71459 12.6958L8.47519 9.983C8.44048 9.88902 8.37513 9.80947 8.28966 9.7572C8.2042 9.70492 8.10362 9.68297 8.00414 9.69488ZM9.47324 7.15363C9.51426 7.24516 9.58433 7.32061 9.67258 7.3683C9.76082 7.41598 9.86233 7.43324 9.96138 7.4174L12.4363 6.26648C12.6664 6.13071 12.7006 5.75087 12.5063 5.40938C12.3119 5.06788 11.9575 4.90672 11.7253 5.03938L9.4893 6.60071C9.42641 6.6788 9.39101 6.77544 9.38858 6.87567C9.38614 6.9759 9.41681 7.07414 9.47583 7.15519L9.47324 7.15363ZM4.28296 5.04042C4.05081 4.90465 3.70258 5.06633 3.50566 5.40834C3.4067 5.5337 3.35885 5.69186 3.37174 5.85105C3.38462 6.01025 3.45727 6.15866 3.5751 6.26648L6.04794 7.41429C6.14648 7.43264 6.24833 7.41701 6.33682 7.36994C6.42531 7.32287 6.4952 7.24715 6.53505 7.15519C6.59479 7.07478 6.62569 6.97659 6.62278 6.87646C6.61986 6.77633 6.5833 6.6801 6.51899 6.60331L4.28296 5.04042ZM8.00414 2.81787C7.6072 2.81787 7.29317 3.03758 7.29317 3.30653L7.53776 6.01878C7.57197 6.11212 7.63654 6.19126 7.72112 6.24351C7.80569 6.29575 7.90536 6.31808 8.00414 6.3069C8.10362 6.31881 8.2042 6.29685 8.28966 6.24458C8.37513 6.1923 8.44048 6.11276 8.47519 6.01878L8.71459 3.30653C8.71511 3.03758 8.39901 2.81787 8.00414 2.81787Z" fill="var(--fill-0, #F9F9F6)"/>
</g>
</svg>
