<svg width="20" height="20" viewBox="0 0 20 20" fill="none" xmlns="http://www.w3.org/2000/svg">
<path d="M17.4099 4.29314V12.7699C17.4102 12.9956 17.359 13.2184 17.2601 13.4213C17.1612 13.6242 17.0173 13.8018 16.8394 13.9407C16.5774 14.1405 16.2575 14.2497 15.928 14.2519C15.808 14.2515 15.6886 14.2366 15.5723 14.2074L8.04658 12.326C7.80862 12.2665 7.56426 12.2364 7.31898 12.2364H6.29526C5.32542 12.2363 4.3943 11.8558 3.70184 11.1768C3.17648 10.6616 2.81641 10.0017 2.66754 9.28112C2.51866 8.56054 2.58773 7.81194 2.86592 7.13076C3.14412 6.44958 3.61885 5.86666 4.2296 5.4563C4.84035 5.04595 5.55945 4.82675 6.29526 4.82664H7.31898C7.56426 4.82664 7.80862 4.79656 8.04658 4.73707L15.5723 2.85564C15.7899 2.80132 16.017 2.7971 16.2365 2.84331C16.456 2.88952 16.6621 2.98494 16.8394 3.12239C17.0173 3.2612 17.1612 3.43883 17.2601 3.64173C17.359 3.84463 17.4102 4.06743 17.4099 4.29314Z" fill="#F9F9F6"/>
<path d="M8.51699 13.2073V15.9415C8.51699 16.3345 8.36085 16.7115 8.08293 16.9894C7.80501 17.2673 7.42807 17.4234 7.03503 17.4234H6.16068C5.81294 17.4301 5.47393 17.3142 5.203 17.0961C4.93207 16.878 4.74649 16.5716 4.67873 16.2305L3.92293 12.2959C4.31905 12.5494 4.75485 12.7347 5.21223 12.8442C5.56586 12.9336 5.9293 12.9784 6.29406 12.9776H7.59818L8.51699 13.2073Z" fill="#F9F9F6"/>
</svg>
