<svg preserveAspectRatio="none" width="100%" height="100%" overflow="visible" style="display: block;" viewBox="0 0 24 24" fill="none" xmlns="http://www.w3.org/2000/svg">
<path id="Vector" d="M12.9088 22.2353L13.6197 20.5998C14.8695 17.7066 17.1583 15.3869 20.0345 14.0983L22.2276 13.1188C22.4937 12.9964 22.7191 12.8003 22.8771 12.5537C23.0351 12.3071 23.1191 12.0203 23.1191 11.7275C23.1191 11.4346 23.0351 11.1479 22.8771 10.9013C22.7191 10.6547 22.4937 10.4585 22.2276 10.3362L20.1558 9.41439C17.2073 8.08918 14.8794 5.68364 13.6515 2.69329L12.9175 0.92778C12.8101 0.654295 12.6229 0.419502 12.3801 0.254009C12.1373 0.088516 11.8504 0 11.5565 0C11.2627 0 10.9757 0.088516 10.733 0.254009C10.4902 0.419502 10.3029 0.654295 10.1956 0.92778L9.46451 2.69041C8.23792 5.68131 5.91097 8.08789 2.96302 9.41439L0.888322 10.339C0.623057 10.4618 0.398463 10.6579 0.241054 10.9042C0.0836458 11.1504 0 11.4366 0 11.7289C0 12.0212 0.0836458 12.3074 0.241054 12.5537C0.398463 12.8 0.623057 12.996 0.888322 13.1188L3.08438 14.0955C5.96002 15.3853 8.2478 17.706 9.49629 20.5998L10.2071 22.2353C10.7272 23.4316 12.3858 23.4316 12.9088 22.2353Z" fill="url(#paint0_linear_463_39426)"/>
<defs>
<linearGradient id="paint0_linear_463_39426" x1="-10.7174" y1="13.358" x2="28.771" y2="14.4967" gradientUnits="userSpaceOnUse">
<stop stop-color="#1EF4B4"/>
<stop offset="1" stop-color="#C6B5FF"/>
</linearGradient>
</defs>
</svg>
