<svg preserveAspectRatio="none" width="100%" height="100%" overflow="visible" style="display: block;" viewBox="0 0 19 19" fill="none" xmlns="http://www.w3.org/2000/svg">
<g id="Box">
<path d="M0 4C0 1.79086 1.79086 0 4 0H14.6667C16.8758 0 18.6667 1.79086 18.6667 4V14.6667C18.6667 16.8758 16.8758 18.6667 14.6667 18.6667H4C1.79086 18.6667 0 16.8758 0 14.6667V4Z" fill="var(--fill-0, #072929)"/>
<path id="Mark" d="M13.3333 8H5.33333C4.59695 8 4 8.59695 4 9.33333C4 10.0697 4.59695 10.6667 5.33333 10.6667H13.3333C14.0697 10.6667 14.6667 10.0697 14.6667 9.33333C14.6667 8.59695 14.0697 8 13.3333 8Z" fill="var(--fill-0, #F9F9F6)"/>
</g>
</svg>
