<svg preserveAspectRatio="none" width="100%" height="100%" overflow="visible" style="display: block;" viewBox="0 0 10 8" fill="none" xmlns="http://www.w3.org/2000/svg">
<g id="Group 2147231185">
<path id="Vector" fill-rule="evenodd" clip-rule="evenodd" d="M0 1.14096C0 0.510963 0.510963 0 1.14096 0H2.77081C3.4008 0 3.91177 0.510963 3.91177 1.14096V1.4667C3.91177 2.09727 3.4008 2.60765 2.77081 2.60765H1.14096C0.838356 2.60765 0.548149 2.48744 0.334178 2.27347C0.120208 2.0595 0 1.7693 0 1.4667L0 1.14096ZM1.14096 0.978377C1.11961 0.978377 1.09847 0.982583 1.07874 0.990753C1.05902 0.998923 1.04109 1.0109 1.026 1.026C1.0109 1.04109 0.998923 1.05902 0.990753 1.07874C0.982583 1.09847 0.978377 1.11961 0.978377 1.14096V1.4667C0.978301 1.48809 0.98245 1.5093 0.990586 1.52909C0.998722 1.54888 1.01069 1.56687 1.02579 1.58203C1.04089 1.59719 1.05884 1.60922 1.07861 1.61742C1.09837 1.62563 1.11956 1.62985 1.14096 1.62985H2.77081C2.79216 1.62985 2.8133 1.62565 2.83303 1.61748C2.85275 1.60931 2.87067 1.59733 2.88577 1.58224C2.90087 1.56714 2.91284 1.54922 2.92101 1.52949C2.92918 1.50977 2.93339 1.48863 2.93339 1.46728V1.14096C2.93339 1.11961 2.92918 1.09847 2.92101 1.07874C2.91284 1.05902 2.90087 1.04109 2.88577 1.026C2.87067 1.0109 2.85275 0.998923 2.83303 0.990753C2.8133 0.982583 2.79216 0.978377 2.77081 0.978377H1.14096ZM4.7264 1.30412C4.7264 1.03412 4.94531 0.815218 5.2153 0.815218H8.80133C8.931 0.815218 9.05535 0.866727 9.14703 0.958413C9.23872 1.0501 9.29023 1.17445 9.29023 1.30412C9.29023 1.43378 9.23872 1.55813 9.14703 1.64982C9.05535 1.74151 8.931 1.79301 8.80133 1.79301H5.2153C5.15106 1.79317 5.08741 1.78063 5.02803 1.75611C4.96864 1.7316 4.91469 1.69559 4.86926 1.65016C4.82383 1.60473 4.78782 1.55078 4.76331 1.49139C4.73879 1.43201 4.72625 1.36836 4.7264 1.30412ZM0.162579 4.23751C0.162579 3.96751 0.382061 3.74861 0.652058 3.74861H6.84574C6.90994 3.74861 6.97352 3.76125 7.03283 3.78582C7.09215 3.81039 7.14604 3.8464 7.19144 3.8918C7.23684 3.9372 7.27285 3.9911 7.29742 4.05041C7.32199 4.10973 7.33464 4.1733 7.33464 4.23751C7.33464 4.30171 7.32199 4.36528 7.29742 4.4246C7.27285 4.48392 7.23684 4.53781 7.19144 4.58321C7.14604 4.62861 7.09215 4.66462 7.03283 4.68919C6.97352 4.71376 6.90994 4.72641 6.84574 4.72641H0.652058C0.587812 4.72656 0.524169 4.71402 0.464784 4.6895C0.405399 4.66499 0.351442 4.62898 0.306013 4.58355C0.260584 4.53812 0.224578 4.48417 0.200063 4.42478C0.175548 4.3654 0.162426 4.30175 0.162579 4.23751ZM0.162579 7.1709C0.162579 6.90148 0.382061 6.68258 0.652058 6.68258H8.47559C8.5398 6.68258 8.60337 6.69522 8.66269 6.71979C8.722 6.74436 8.7759 6.78038 8.8213 6.82577C8.86669 6.87117 8.90271 6.92507 8.92728 6.98438C8.95185 7.0437 8.96449 7.10727 8.96449 7.17148C8.96449 7.23568 8.95185 7.29926 8.92728 7.35857C8.90271 7.41789 8.86669 7.47178 8.8213 7.51718C8.7759 7.56258 8.722 7.59859 8.66269 7.62316C8.60337 7.64773 8.5398 7.66038 8.47559 7.66038H0.652058C0.587812 7.66053 0.524169 7.64799 0.464784 7.62347C0.405399 7.59896 0.351442 7.56295 0.306013 7.51752C0.260584 7.47209 0.224578 7.41814 0.200063 7.35875C0.175548 7.29937 0.163007 7.23572 0.16316 7.17148" fill="var(--fill-0, #F9F9F6)"/>
<path id="Vector_2" d="M8.63736 4.72586C8.70156 4.72586 8.76513 4.71321 8.82445 4.68864C8.88377 4.66407 8.93766 4.62806 8.98306 4.58266C9.02846 4.53727 9.06447 4.48337 9.08904 4.42405C9.11361 4.36474 9.12626 4.30116 9.12626 4.23696C9.12626 4.17276 9.11361 4.10918 9.08904 4.04987C9.06447 3.99055 9.02846 3.93666 8.98306 3.89126C8.93766 3.84586 8.88377 3.80985 8.82445 3.78528C8.76513 3.76071 8.70156 3.74806 8.63736 3.74806C8.50769 3.74806 8.38334 3.79957 8.29165 3.89126C8.19997 3.98294 8.14846 4.1073 8.14846 4.23696C8.14846 4.36662 8.19997 4.49098 8.29165 4.58266C8.38334 4.67435 8.50769 4.72586 8.63736 4.72586Z" fill="var(--fill-0, #F9F9F6)"/>
</g>
</svg>
