<svg preserveAspectRatio="none" width="100%" height="100%" overflow="visible" style="display: block;" viewBox="0 0 20 20" fill="none" xmlns="http://www.w3.org/2000/svg">
<g id="ri:amazon-fill">
<rect width="20" height="20" rx="3.2" fill="var(--fill-0, #F9F9F6)"/>
<g id="Vector">
<path d="M15.9524 12.4427L14.8419 10.6548C14.8008 10.5887 14.7857 10.5075 14.8 10.4292C14.8143 10.351 14.8568 10.2822 14.9181 10.2382C15.4268 9.86828 15.7458 9.20651 15.7458 8.44319C15.7458 7.13613 14.7385 6.10212 13.4973 6.10212H10.829C10.7806 6.10212 10.7341 6.12304 10.6999 6.16025C10.6657 6.19747 10.6465 6.24793 10.6465 6.30052V7.56756C10.6463 7.61976 10.6837 7.66305 10.7317 7.66609C11.6347 7.71888 12.3598 8.56391 12.3598 9.52798C12.3598 10.5011 11.6269 11.328 10.7317 11.3805C10.6837 11.3835 10.6463 11.4268 10.6465 11.479V12.708C10.6465 12.8174 10.7282 12.9061 10.829 12.9061H12.3793C12.4801 12.9061 12.5618 12.8174 12.5618 12.708V12.1159C12.5618 11.6939 12.8976 11.5916 13.1544 11.9225L13.8049 12.8065C13.8633 12.8707 13.9429 12.907 14.026 12.9074H15.7247C15.8265 12.908 15.9202 12.8473 15.9679 12.7498C16.0157 12.6522 16.0097 12.534 15.9524 12.4427Z" fill="#072929"/>
<path d="M7.41757 6C8.39269 6 9.26559 6.45194 9.88945 7.17255C9.9233 7.21244 9.94063 7.26563 9.93742 7.31976C9.9342 7.37388 9.91071 7.42422 9.87241 7.45905L8.98712 8.2644C8.91497 8.32906 8.80948 8.32413 8.74272 8.25297C8.389 7.87611 7.91411 7.66339 7.4185 7.6598C6.47405 7.6598 5.70956 8.44094 5.70956 9.50488C5.70956 10.5688 6.47405 11.3405 7.4185 11.3405C7.91408 11.3368 8.38892 11.1241 8.74272 10.7474C8.8094 10.6761 8.91489 10.671 8.98712 10.7356L9.87303 11.541C9.91145 11.5757 9.93506 11.626 9.93834 11.6802C9.94161 11.7343 9.92428 11.7876 9.89038 11.8274C9.26652 12.5481 8.39362 13 7.4185 13C5.52897 13 4 11.5258 4 9.50488C4 7.48393 5.52897 6 7.41757 6Z" fill="#072929"/>
</g>
</g>
</svg>
