<svg preserveAspectRatio="none" width="100%" height="100%" overflow="visible" style="display: block;" viewBox="0 0 1029 147" fill="none" xmlns="http://www.w3.org/2000/svg">
<path id="Line 2" d="M0.500066 146.379L71.6421 101.755C74.9591 99.674 78.814 98.6128 82.7285 98.7027L163.465 100.556L251.326 104.448C254.165 104.574 256.999 104.093 259.638 103.038L376.948 56.1244C380.728 54.6127 385.047 55.5436 387.869 58.4781L455.259 128.557C458.82 132.26 463.67 134.451 468.803 134.675L575.773 139.346C580.361 139.546 584.877 138.162 588.565 135.426L645.448 93.2119C649.97 89.8563 655.697 88.5622 661.222 89.6476L746.425 106.385C755.452 108.159 764.525 103.545 768.41 95.206L791.233 46.2136C794.382 39.4556 801.027 35.0096 808.475 34.679L911.09 30.1232C912.469 30.0619 913.838 29.8581 915.175 29.515L1028.22 0.500121" stroke="var(--stroke-0, #7A4DFF)" stroke-linecap="round"/>
</svg>
