<svg preserveAspectRatio="none" width="100%" height="100%" overflow="visible" style="display: block;" viewBox="0 0 20 20" fill="none" xmlns="http://www.w3.org/2000/svg">
<g id="ri:amazon-fill">
<rect width="20" height="20" rx="3.2" fill="var(--fill-0, #F9F9F6)"/>
<path id="Vector" d="M12.3563 8.80894C13.0839 9.52367 13.6774 10.6936 13.3375 11.3851C12.4281 13.2424 5.64335 16.4981 5.06587 15.9356C4.4903 15.3731 7.82397 8.73844 9.72218 7.84785C10.4317 7.51786 11.6269 8.10359 12.3583 8.80894L12.3563 8.81682V8.80894ZM15.9513 8.02784C15.8335 7.59998 15.5315 7.16837 15.0818 7.11774C14.2584 7.024 12.9576 8.44783 13.0493 8.78569C13.1433 9.13143 14.9778 9.72316 15.6593 9.24468C16.0131 8.99681 16.0591 8.46358 15.9433 8.03759L15.9513 8.02784ZM13.3973 4.07847C14.0109 4.24046 14.6306 4.65257 14.7043 5.2698C14.8362 6.40077 12.7938 8.17971 12.308 8.05297C11.8245 7.92584 10.9688 5.41042 11.6603 4.47108C12.016 3.98472 12.7853 3.91835 13.3989 4.07659V4.07847H13.3973Z" fill="var(--fill-0, #072929)"/>
</g>
</svg>
