<svg preserveAspectRatio="none" width="100%" height="100%" overflow="visible" style="display: block;" viewBox="0 0 1017 97" fill="none" xmlns="http://www.w3.org/2000/svg">
<path id="Line" d="M406.658 78.1445L405.959 77.4295L405.924 77.4633L405.893 77.5003L406.658 78.1445ZM1016.38 41.1524C1016.76 40.7528 1016.75 40.1198 1016.35 39.7385C1015.95 39.3572 1015.32 39.372 1014.93 39.7715L1015.66 40.4619L1016.38 41.1524ZM984.915 57.7198L985.274 56.7863L984.915 57.7198ZM1003.08 53.6391L1003.8 54.3295L1003.08 53.6391ZM944.276 58.4321L945.089 57.85L944.276 58.4321ZM921.765 54.4689L921.155 53.676L921.765 54.4689ZM943.775 57.7323L942.962 58.3144L943.775 57.7323ZM905.54 56.0999L905.979 55.2015L905.54 56.0999ZM885.333 59.0219L886.045 59.7244L885.333 59.0219ZM904.758 55.7175L905.197 54.8191L904.758 55.7175ZM861.853 68.9047L861.681 69.8898L861.853 68.9047ZM881.906 62.4935L882.617 63.196L881.906 62.4935ZM848.261 70.545L848.793 71.3916L848.261 70.545ZM825.943 63.5061L826.865 63.1181L825.943 63.5061ZM801.398 50.4374L802.252 50.9577L801.398 50.4374ZM821.057 51.901L820.135 52.2891L821.057 51.901ZM782.727 50.8137L783.56 50.2594L782.727 50.8137ZM762.814 40.924L762.261 40.0908L762.814 40.924ZM778.206 44.024L777.374 44.5782L778.206 44.024ZM746.477 36.0879L747.394 35.6899L746.477 36.0879ZM719.239 7.44182L719.678 8.34018L719.239 7.44182ZM736.871 13.945L735.953 14.343L736.871 13.945ZM704.613 5.22172L705.299 4.49418L704.613 5.22172ZM682.322 8.41339L681.437 7.94639L682.322 8.41339ZM704.156 4.79069L703.47 5.51823L704.156 4.79069ZM668.367 19.8196L668.246 18.827L668.367 19.8196ZM680.832 11.2349L679.947 10.7679L680.832 11.2349ZM646.217 20.4757L645.858 21.4092L646.217 20.4757ZM654.555 21.5041L654.676 22.4967L654.555 21.5041ZM623.746 30.5016L622.811 30.145L623.746 30.5016ZM597.066 63.006L597.396 62.0619L597.066 63.006ZM614.415 54.9433L615.349 55.2999L614.415 54.9433ZM583.313 65.8027L583.985 66.543L583.313 65.8027ZM556.114 74.227L555.784 75.1711L556.114 74.227ZM579.208 69.5307L579.88 70.271L579.208 69.5307ZM545.884 69.8662L546.413 69.0176L545.884 69.8662ZM551.955 72.7742L551.625 73.7183L551.955 72.7742ZM527.025 57.651L527.712 56.9235L527.025 57.651ZM530.128 60.0431L529.599 60.8917L530.128 60.0431ZM499.585 56.026L498.702 55.5575L499.585 56.026ZM457.651 60.3576L458.514 60.8622L457.651 60.3576ZM435.745 66.8854L435.045 67.6004L435.745 66.8854ZM455.382 64.2407L456.245 64.7452L455.382 64.2407ZM373.408 91.8479L372.782 92.6275L373.408 91.8479ZM397.057 89.545L396.292 88.9008L397.057 89.545ZM358.868 88.4544L359.198 89.3985L358.868 88.4544ZM371.995 90.7126L372.621 89.933L371.995 90.7126ZM341.328 79.8717L340.38 80.1908L341.328 79.8717ZM311.848 53.163L311.015 52.6088L311.848 53.163ZM333.291 55.9966L332.344 56.3156L333.291 55.9966ZM295.124 56.4997L295.68 55.6685L295.124 56.4997ZM277.139 52.8685L276.752 51.9462L276.752 51.9462L277.139 52.8685ZM291.815 54.2862L291.259 55.1174L291.815 54.2862ZM257.675 46.3633L258.539 45.8588L257.675 46.3633ZM253.118 38.5638L253.981 38.0593L253.118 38.5638ZM214.333 37.3486L213.661 38.0889L214.333 37.3486ZM173.848 49.6145L173.384 50.5003L173.848 49.6145ZM157.004 54.5326L157.872 55.0295L157.004 54.5326ZM148.852 68.7687L147.984 68.2718L148.852 68.7687ZM117.292 80.3768L116.634 79.6235L117.292 80.3768ZM129.213 77.046L129.041 78.0311L129.213 77.046ZM67.9572 56.1441L67.2995 55.3908L67.9572 56.1441ZM32.862 56.3268L32.4486 55.4162L32.862 56.3268ZM49.6534 56.3268L49.24 57.2373L49.6534 56.3268ZM984.294 57.4811L984.652 56.5476L984.294 57.4811ZM0.657713 44.0069L1.29831e-08 44.7602L10.4518 53.8862L11.1096 53.1329L11.7673 52.3796L1.31543 43.2536L0.657713 44.0069ZM49.6534 56.3268L49.24 57.2373L53.4086 59.13L53.822 58.2195L54.2355 57.309L50.0668 55.4162L49.6534 56.3268ZM88.8494 61.0847L87.924 61.4635L93.62 75.3766L94.5455 74.9977L95.4709 74.6188L89.7749 60.7058L88.8494 61.0847ZM129.213 77.046L129.041 78.0311L130.505 78.2866L130.677 77.3015L130.849 76.3164L129.385 76.0609L129.213 77.046ZM148.852 68.7687L149.72 69.2656L157.872 55.0295L157.004 54.5326L156.136 54.0357L147.984 68.2718L148.852 68.7687ZM189.818 46.0224L190.617 46.6242L195.858 39.6678L195.06 39.066L194.261 38.4642L189.019 45.4207L189.818 46.0224ZM253.118 38.5638L252.255 39.0683L256.812 46.8678L257.675 46.3633L258.539 45.8588L253.981 38.0593L253.118 38.5638ZM291.815 54.2862L291.259 55.1174L294.568 57.3309L295.124 56.4997L295.68 55.6685L292.37 53.455L291.815 54.2862ZM333.291 55.9966L332.344 56.3156L340.38 80.1908L341.328 79.8717L342.275 79.5527L334.239 55.6776L333.291 55.9966ZM371.995 90.7126L371.368 91.4922L372.782 92.6275L373.408 91.8479L374.034 91.0683L372.621 89.933L371.995 90.7126ZM397.057 89.545L397.822 90.1891L407.423 78.7886L406.658 78.1445L405.893 77.5003L396.292 88.9008L397.057 89.545ZM406.658 78.1445L407.357 78.8594L418.87 67.6004L418.171 66.8854L417.472 66.1705L405.959 77.4295L406.658 78.1445ZM455.382 64.2407L456.245 64.7452L458.514 60.8622L457.651 60.3576L456.788 59.8531L454.519 63.7362L455.382 64.2407ZM497.508 59.9438L498.392 60.4123L500.469 56.4944L499.585 56.026L498.702 55.5575L496.625 59.4754L497.508 59.9438ZM521.471 52.4133L520.785 53.1408L526.339 58.3786L527.025 57.651L527.712 56.9235L522.157 51.6857L521.471 52.4133ZM530.128 60.0431L529.599 60.8917L545.355 70.7148L545.884 69.8662L546.413 69.0176L530.657 59.1945L530.128 60.0431ZM551.955 72.7742L551.625 73.7183L555.784 75.1711L556.114 74.227L556.444 73.2829L552.284 71.8302L551.955 72.7742ZM579.208 69.5307L579.88 70.271L583.985 66.543L583.313 65.8027L582.641 65.0624L578.535 68.7904L579.208 69.5307ZM614.415 54.9433L615.349 55.2999L624.68 30.8583L623.746 30.5016L622.811 30.145L613.48 54.5866L614.415 54.9433ZM654.555 21.5041L654.676 22.4967L668.488 20.8122L668.367 19.8196L668.246 18.827L654.433 20.5114L654.555 21.5041ZM680.832 11.2349L681.716 11.7019L683.206 8.88038L682.322 8.41339L681.437 7.94639L679.947 10.7679L680.832 11.2349ZM704.156 4.79069L703.47 5.51823L703.927 5.94925L704.613 5.22172L705.299 4.49418L704.842 4.06315L704.156 4.79069ZM736.871 13.945L735.953 14.343L745.559 36.4859L746.477 36.0879L747.394 35.6899L737.788 13.547L736.871 13.945ZM778.206 44.024L777.374 44.5782L781.895 51.3679L782.727 50.8137L783.56 50.2594L779.039 43.4698L778.206 44.024ZM821.057 51.901L820.135 52.2891L825.021 63.8942L825.943 63.5061L826.865 63.1181L821.978 51.513L821.057 51.901ZM859.072 68.4191L858.9 69.4041L861.681 69.8898L861.853 68.9047L862.025 67.9196L859.244 67.434L859.072 68.4191ZM881.906 62.4935L882.617 63.196L886.045 59.7244L885.333 59.0219L884.622 58.3193L881.194 61.7909L881.906 62.4935ZM904.758 55.7175L904.318 56.6159L905.1 56.9983L905.54 56.0999L905.979 55.2015L905.197 54.8191L904.758 55.7175ZM943.775 57.7323L942.962 58.3144L943.463 59.0141L944.276 58.4321L945.089 57.85L944.588 57.1503L943.775 57.7323ZM984.294 57.4811L983.935 58.4145L984.556 58.6533L984.915 57.7198L985.274 56.7863L984.652 56.5476L984.294 57.4811ZM1003.08 53.6391L1003.8 54.3295L1016.38 41.1524L1015.66 40.4619L1014.93 39.7715L1002.36 52.9486L1003.08 53.6391ZM984.915 57.7198L984.556 58.6533C991.257 61.2277 998.849 59.5224 1003.8 54.3295L1003.08 53.6391L1002.36 52.9486C997.959 57.5577 991.221 59.0713 985.274 56.7863L984.915 57.7198ZM944.276 58.4321L943.463 59.0141C949.361 67.2544 961.173 68.4007 968.546 61.4482L967.86 60.7207L967.174 59.9931C960.682 66.1145 950.282 65.1053 945.089 57.85L944.276 58.4321ZM921.765 54.4689L922.374 55.2619C928.865 50.2743 938.197 51.658 942.962 58.3144L943.775 57.7323L944.588 57.1503C939.165 49.5741 928.543 47.9993 921.155 53.676L921.765 54.4689ZM905.54 56.0999L905.1 56.9983C910.721 59.7464 917.413 59.0737 922.374 55.2619L921.765 54.4689L921.155 53.676C916.797 57.025 910.917 57.6161 905.979 55.2015L905.54 56.0999ZM885.333 59.0219L886.045 59.7244C890.836 54.8714 898.192 53.6202 904.318 56.6159L904.758 55.7175L905.197 54.8191C898.299 51.4461 890.017 52.855 884.622 58.3193L885.333 59.0219ZM861.853 68.9047L861.681 69.8898C869.335 71.2265 877.158 68.7252 882.617 63.196L881.906 62.4935L881.194 61.7909C876.196 66.8534 869.033 69.1434 862.025 67.9196L861.853 68.9047ZM848.261 70.545L848.793 71.3916C851.8 69.5013 855.401 68.7932 858.9 69.4041L859.072 68.4191L859.244 67.434C855.258 66.7378 851.155 67.5447 847.729 69.6984L848.261 70.545ZM825.943 63.5061L825.021 63.8942C828.936 73.1912 840.253 76.7605 848.793 71.3916L848.261 70.545L847.729 69.6984C840.233 74.4106 830.301 71.2779 826.865 63.1181L825.943 63.5061ZM801.398 50.4374L802.252 50.9577C806.525 43.9427 816.947 44.7186 820.135 52.2891L821.057 51.901L821.978 51.513C818.158 42.4391 805.666 41.5091 800.544 49.9172L801.398 50.4374ZM782.727 50.8137L781.895 51.3679C786.789 58.7172 797.658 58.4981 802.252 50.9577L801.398 50.4374L800.544 49.9172C796.711 56.2083 787.642 56.3911 783.56 50.2594L782.727 50.8137ZM762.814 40.924L763.367 41.7573C768.015 38.673 774.282 39.9353 777.374 44.5782L778.206 44.024L779.039 43.4698C775.336 37.9084 767.828 36.3965 762.261 40.0908L762.814 40.924ZM746.477 36.0879L745.559 36.4859C748.56 43.403 757.084 45.9264 763.367 41.7573L762.814 40.924L762.261 40.0908C757.016 43.5714 749.9 41.4648 747.394 35.6899L746.477 36.0879ZM719.239 7.44182L719.678 8.34018C725.822 5.3358 733.231 8.06843 735.953 14.343L736.871 13.945L737.788 13.547C734.612 6.22641 725.968 3.03821 718.8 6.54346L719.239 7.44182ZM704.613 5.22172L703.927 5.94925C708.168 9.94793 714.442 10.9004 719.678 8.34018L719.239 7.44182L718.8 6.54346C714.312 8.73783 708.934 7.92148 705.299 4.49418L704.613 5.22172ZM682.322 8.41339L683.206 8.88038C687.189 1.33777 697.264 -0.333829 703.47 5.51823L704.156 4.79069L704.842 4.06315C697.675 -2.69589 686.038 -0.76522 681.437 7.94639L682.322 8.41339ZM668.367 19.8196L668.488 20.8122C674.123 20.125 679.065 16.7217 681.716 11.7019L680.832 11.2349L679.947 10.7679C677.602 15.2084 673.231 18.219 668.246 18.827L668.367 19.8196ZM646.217 20.4757L645.858 21.4092C648.664 22.4872 651.692 22.8606 654.676 22.4967L654.555 21.5041L654.433 20.5114C651.774 20.8357 649.076 20.5029 646.576 19.5422L646.217 20.4757ZM623.746 30.5016L624.68 30.8583C627.911 22.3935 637.401 18.1598 645.858 21.4092L646.217 20.4757L646.576 19.5422C637.085 15.8961 626.437 20.6468 622.811 30.145L623.746 30.5016ZM597.066 63.006L596.736 63.95C604.259 66.5774 612.507 62.7442 615.349 55.2999L614.415 54.9433L613.48 54.5866C611.024 61.0199 603.897 64.3324 597.396 62.0619L597.066 63.006ZM583.313 65.8027L583.985 66.543C587.439 63.4068 592.332 62.4118 596.736 63.95L597.066 63.006L597.396 62.0619C592.299 60.2819 586.637 61.4333 582.641 65.0624L583.313 65.8027ZM556.114 74.227L555.784 75.1711C564.107 78.0779 573.353 76.1976 579.88 70.271L579.208 69.5307L578.535 68.7904C572.552 74.2241 564.074 75.948 556.444 73.2829L556.114 74.227ZM545.884 69.8662L545.355 70.7148C547.328 71.9446 549.43 72.9519 551.625 73.7183L551.955 72.7742L552.284 71.8302C550.229 71.1125 548.26 70.1692 546.413 69.0176L545.884 69.8662ZM527.025 57.651L526.339 58.3786C527.34 59.3222 528.432 60.164 529.599 60.8917L530.128 60.0431L530.657 59.1945C529.603 58.537 528.616 57.7762 527.712 56.9235L527.025 57.651ZM499.585 56.026L500.469 56.4944C504.473 48.9432 514.567 47.2769 520.785 53.1408L521.471 52.4133L522.157 51.6857C514.978 44.9158 503.325 46.8395 498.702 55.5575L499.585 56.026ZM457.651 60.3576L458.514 60.8622C462.558 53.9425 472.558 53.9425 476.601 60.8621L477.464 60.3576L478.328 59.8531C473.512 51.6122 461.603 51.6122 456.788 59.8531L457.651 60.3576ZM435.745 66.8854L435.045 67.6004C441.358 73.7734 451.791 72.3683 456.245 64.7452L455.382 64.2407L454.519 63.7362C450.721 70.2355 441.826 71.4335 436.444 66.1705L435.745 66.8854ZM418.171 66.8854L418.87 67.6004C423.366 63.2041 430.55 63.2041 435.045 67.6004L435.745 66.8854L436.444 66.1705C431.171 61.014 422.745 61.014 417.472 66.1705L418.171 66.8854ZM373.408 91.8479L372.782 92.6275C380.405 98.7514 391.523 97.6687 397.822 90.1891L397.057 89.545L396.292 88.9008C390.693 95.5493 380.811 96.5117 374.034 91.0683L373.408 91.8479ZM358.868 88.4544L359.198 89.3985C363.344 87.9503 367.944 88.7417 371.368 91.4922L371.995 90.7126L372.621 89.933C368.659 86.7503 363.336 85.8347 358.539 87.5103L358.868 88.4544ZM341.328 79.8717L340.38 80.1908C342.996 87.9631 351.456 92.1025 359.198 89.3985L358.868 88.4544L358.539 87.5103C351.848 89.8472 344.536 86.2698 342.275 79.5527L341.328 79.8717ZM311.848 53.163L312.68 53.7172C317.768 46.0762 329.415 47.6153 332.344 56.3156L333.291 55.9966L334.239 55.6776C330.78 45.402 317.024 43.5843 311.015 52.6088L311.848 53.163ZM295.124 56.4997L294.568 57.3309C300.566 61.3423 308.681 59.7232 312.68 53.7172L311.848 53.163L311.015 52.6088C307.629 57.694 300.758 59.0649 295.68 55.6685L295.124 56.4997ZM277.139 52.8685L277.525 53.7908C282.036 51.9005 287.194 52.3987 291.259 55.1174L291.815 54.2862L292.37 53.455C287.747 50.3631 281.882 49.7964 276.752 51.9462L277.139 52.8685ZM257.675 46.3633L256.812 46.8678C261.004 54.0423 269.862 57.0027 277.525 53.7908L277.139 52.8685L276.752 51.9462C270.014 54.7705 262.225 52.1674 258.539 45.8588L257.675 46.3633ZM232.547 36.4885L233.293 37.1553C238.626 31.1951 248.22 32.163 252.255 39.0683L253.118 38.5638L253.981 38.0593C249.262 29.9823 238.04 28.8502 231.802 35.8217L232.547 36.4885ZM214.333 37.3486L213.661 38.0889C219.318 43.2264 228.181 42.8685 233.293 37.1553L232.547 36.4885L231.802 35.8217C227.447 40.6895 219.859 41.0156 215.005 36.6083L214.333 37.3486ZM195.06 39.066L195.858 39.6678C200.112 34.0224 208.408 33.3187 213.661 38.0889L214.333 37.3486L215.005 36.6083C208.901 31.0653 199.239 31.8573 194.261 38.4642L195.06 39.066ZM173.848 49.6145L173.384 50.5003C179.303 53.601 186.596 51.9605 190.617 46.6242L189.818 46.0224L189.019 45.4207C185.588 49.9749 179.363 51.375 174.312 48.7287L173.848 49.6145ZM157.004 54.5326L157.872 55.0295C160.984 49.5949 167.837 47.5941 173.384 50.5003L173.848 49.6145L174.312 48.7287C167.812 45.3234 159.783 47.6678 156.136 54.0357L157.004 54.5326ZM130.677 77.3015L130.505 78.2866C138.17 79.6252 145.853 76.0184 149.72 69.2656L148.852 68.7687L147.984 68.2718C144.536 74.2937 137.685 77.5102 130.849 76.3164L130.677 77.3015ZM117.292 80.3768L117.95 81.1301C120.99 78.4758 125.066 77.3369 129.041 78.0311L129.213 77.046L129.385 76.0609C124.815 75.2628 120.129 76.5721 116.634 79.6235L117.292 80.3768ZM94.5455 74.9977L93.62 75.3766C97.6125 85.1285 110.012 88.0607 117.95 81.1301L117.292 80.3768L116.634 79.6235C109.73 85.6522 98.9438 83.1016 95.4709 74.6188L94.5455 74.9977ZM67.9572 56.1441L68.615 56.8973C74.9146 51.3968 84.7554 53.724 87.924 61.4635L88.8494 61.0847L89.7749 60.7058C86.0867 51.6971 74.6322 48.9883 67.2995 55.3908L67.9572 56.1441ZM53.822 58.2195L53.4086 59.13C58.4768 61.4312 64.4222 60.5582 68.615 56.8973L67.9572 56.1441L67.2995 55.3908C63.6974 58.5359 58.5896 59.2859 54.2355 57.309L53.822 58.2195ZM32.862 56.3268L33.2755 57.2373C38.3478 54.9343 44.1676 54.9343 49.24 57.2373L49.6534 56.3268L50.0668 55.4162C44.4691 52.8747 38.0464 52.8747 32.4486 55.4162L32.862 56.3268ZM477.464 60.3576L476.601 60.8621C481.532 69.3013 493.813 69.0477 498.392 60.4123L497.508 59.9438L496.625 59.4754C492.78 66.7263 482.468 66.9392 478.328 59.8531L477.464 60.3576ZM967.86 60.7207L968.546 61.4482C972.666 57.5629 978.648 56.3836 983.935 58.4145L984.294 57.4811L984.652 56.5476C978.648 54.2409 971.853 55.5804 967.174 59.9931L967.86 60.7207ZM11.1096 53.1329L10.4518 53.8862C16.7449 59.3809 25.6685 60.6912 33.2755 57.2373L32.862 56.3268L32.4486 55.4162C25.5557 58.5459 17.4697 57.3586 11.7673 52.3796L11.1096 53.1329Z" fill="var(--stroke-0, #136D6D)"/>
</svg>
