<svg preserveAspectRatio="none" width="100%" height="100%" overflow="visible" style="display: block;" viewBox="0 0 16 16" fill="none" xmlns="http://www.w3.org/2000/svg">
<g id="mingcute:meta-line">
<rect width="16" height="16" rx="4" fill="var(--fill-0, #072929)"/>
<path id="Vector" fill-rule="evenodd" clip-rule="evenodd" d="M6.13232 4.8929C5.38608 4.84143 4.79189 5.27467 4.37643 5.8188C3.95863 6.3662 3.66434 7.09139 3.50152 7.81564C3.33964 8.53943 3.29894 9.30766 3.42947 9.95097C3.55673 10.576 3.88049 11.2189 4.5617 11.4224C5.21157 11.6166 5.79452 11.3405 6.23993 10.9658C6.68627 10.5905 7.07273 10.0553 7.38432 9.53832C7.62855 9.13268 7.83722 8.71955 8.00097 8.36679C8.16472 8.71909 8.37339 9.13268 8.61715 9.53832C8.92874 10.0553 9.3152 10.5905 9.76154 10.9658C10.2069 11.3405 10.7899 11.6166 11.4398 11.4224C12.121 11.2189 12.4447 10.576 12.572 9.95097C12.703 9.30766 12.6618 8.53943 12.4999 7.81564C12.3371 7.09139 12.0428 6.36573 11.625 5.8188C11.21 5.27467 10.6159 4.84096 9.86962 4.8929C9.05834 4.94904 8.48006 5.58019 8.1446 6.05694C8.0949 6.12824 8.047 6.20078 8.00097 6.2745C7.95497 6.20065 7.90691 6.12811 7.85687 6.05694C7.52141 5.57972 6.9436 4.94951 6.13232 4.8929ZM7.46573 7.24391C7.33333 7.57843 7.0119 8.34246 6.58241 9.05595C6.29186 9.53878 5.9681 9.97203 5.63732 10.2499C5.30654 10.5278 5.04688 10.5905 4.83026 10.526C4.64498 10.4708 4.44801 10.264 4.34648 9.76476C4.24917 9.28427 4.27303 8.65359 4.41479 8.02057C4.55702 7.38755 4.80686 6.79757 5.12033 6.38632C5.43614 5.97226 5.76084 5.80523 6.06729 5.82675C6.42567 5.85155 6.78312 6.1566 7.09097 6.59499C7.26315 6.83968 7.39181 7.08718 7.46527 7.24344L7.46573 7.24391ZM8.53621 7.24391C8.66814 7.57843 8.99003 8.34246 9.41906 9.05595C9.71008 9.53878 10.0338 9.97203 10.3641 10.2499C10.6954 10.5283 10.9546 10.5905 11.1717 10.526C11.3565 10.4708 11.5535 10.264 11.655 9.76476C11.7528 9.28427 11.7289 8.65359 11.5867 8.02057C11.4444 7.38755 11.1951 6.79757 10.8811 6.38632C10.5653 5.97226 10.2411 5.80523 9.93418 5.82675C9.5758 5.85155 9.21835 6.1566 8.9105 6.59499C8.7679 6.80034 8.6427 7.01725 8.53621 7.24344V7.24391Z" fill="var(--fill-0, #F9F9F6)"/>
</g>
</svg>
