<svg preserveAspectRatio="none" width="100%" height="100%" overflow="visible" style="display: block;" viewBox="0 0 14 14" fill="none" xmlns="http://www.w3.org/2000/svg">
<g id="Box">
<path d="M0 4C0 1.79086 1.79086 0 4 0H10C12.2091 0 14 1.79086 14 4V10C14 12.2091 12.2091 14 10 14H4C1.79086 14 0 12.2091 0 10V4Z" fill="var(--fill-0, #0E4E4E)"/>
<path id="Mark" d="M10 6H4C3.44772 6 3 6.44772 3 7C3 7.55228 3.44772 8 4 8H10C10.5523 8 11 7.55228 11 7C11 6.44772 10.5523 6 10 6Z" fill="var(--fill-0, #F9F9F6)"/>
</g>
</svg>
