<svg preserveAspectRatio="none" width="100%" height="100%" overflow="visible" style="display: block;" viewBox="0 0 7 7" fill="none" xmlns="http://www.w3.org/2000/svg">
<path id="Vector" d="M3.48385 7C2.99439 6.9983 2.51075 6.89384 2.06422 6.69338C1.61769 6.49292 1.21823 6.20093 0.891693 5.83632C0.565158 5.4717 0.318826 5.04258 0.168641 4.57673C0.0184564 4.11088 -0.0322345 3.61868 0.0198506 3.132C0.109589 2.27475 0.512851 1.48086 1.1522 0.902786C1.79155 0.324713 2.62192 0.00320545 3.48385 0C3.97331 0.00170102 4.45695 0.106162 4.90348 0.30662C5.35001 0.507078 5.74947 0.799066 6.07601 1.16368C6.40254 1.5283 6.64888 1.95742 6.79906 2.42327C6.94925 2.88912 6.99994 3.38132 6.94785 3.868C6.85811 4.72525 6.45485 5.51914 5.8155 6.09721C5.17615 6.67529 4.34578 6.99679 3.48385 7Z" fill="var(--fill-0, #808080)"/>
</svg>
