<svg preserveAspectRatio="none" width="100%" height="100%" overflow="visible" style="display: block;" viewBox="0 0 10 10" fill="none" xmlns="http://www.w3.org/2000/svg">
<g id="Group 2147231183">
<g id="Vector">
<path d="M1.753 5.112H0.849C0.5595 5.112 0.325 5.347 0.325 5.636V9.051C0.325 9.34 0.56 9.575 0.849 9.575H1.7535C2.0435 9.575 2.278 9.34 2.278 9.0505V5.636C2.27787 5.49693 2.22257 5.3636 2.12423 5.26527C2.0259 5.16693 1.89257 5.11163 1.7535 5.1115M5.1005 0.325H4.1965C3.9065 0.325 3.672 0.56 3.672 0.8495V9.05C3.672 9.34 3.907 9.5745 4.197 9.5745H5.1005C5.3905 9.5745 5.625 9.3395 5.625 9.05V0.85C5.625 0.56 5.39 0.3255 5.1 0.3255M8.448 2.9135H7.5435C7.2535 2.9135 7.019 3.1485 7.019 3.4385V9.05C7.019 9.34 7.254 9.5745 7.5435 9.5745H8.4475C8.58656 9.57437 8.7199 9.51907 8.81823 9.42073C8.91656 9.3224 8.97187 9.18907 8.972 9.05V3.438C8.972 3.148 8.737 2.9135 8.447 2.9135" fill="var(--fill-0, #F9F9F6)"/>
<path d="M1.753 5.112H0.849C0.5595 5.112 0.325 5.347 0.325 5.636V9.051C0.325 9.34 0.56 9.575 0.849 9.575H1.7535C2.0435 9.575 2.278 9.34 2.278 9.0505V5.636C2.27787 5.49693 2.22257 5.3636 2.12423 5.26527C2.0259 5.16693 1.89257 5.11163 1.7535 5.1115M5.1005 0.325H4.1965C3.9065 0.325 3.672 0.56 3.672 0.8495V9.05C3.672 9.34 3.907 9.5745 4.197 9.5745H5.1005C5.3905 9.5745 5.625 9.3395 5.625 9.05V0.85C5.625 0.56 5.39 0.3255 5.1 0.3255M8.448 2.9135H7.5435C7.2535 2.9135 7.019 3.1485 7.019 3.4385V9.05C7.019 9.34 7.254 9.5745 7.5435 9.5745H8.4475C8.58656 9.57437 8.7199 9.51907 8.81823 9.42073C8.91656 9.3224 8.97187 9.18907 8.972 9.05V3.438C8.972 3.148 8.737 2.9135 8.447 2.9135" stroke="var(--stroke-0, #F9F9F6)" stroke-width="0.65" stroke-linecap="round" stroke-linejoin="round"/>
</g>
</g>
</svg>
