<svg preserveAspectRatio="none" width="100%" height="100%" overflow="visible" style="display: block;" viewBox="0 0 14 9" fill="none" xmlns="http://www.w3.org/2000/svg">
<path id="Vector" fill-rule="evenodd" clip-rule="evenodd" d="M0 1.65306C0 1.03665 7.82311e-09 0.488571 0.00910001 0H13.9909C14 0.488571 14 1.03665 14 1.65306V3.12245C14 5.89298 14 7.27861 13.1796 8.13894C12.3592 8.99926 11.0397 9 8.4 9H5.6C2.9603 9 1.6401 9 0.8204 8.13894C0.000699949 7.27788 0 5.89298 0 3.12245V1.65306ZM10.5 3.12245C10.6857 3.12245 10.8637 3.04504 10.995 2.90726C11.1263 2.76948 11.2 2.58261 11.2 2.38776C11.2 2.1929 11.1263 2.00603 10.995 1.86825C10.8637 1.73047 10.6857 1.65306 10.5 1.65306C10.3143 1.65306 10.1363 1.73047 10.005 1.86825C9.87375 2.00603 9.8 2.1929 9.8 2.38776C9.8 2.58261 9.87375 2.76948 10.005 2.90726C10.1363 3.04504 10.3143 3.12245 10.5 3.12245ZM10.5 6.06122C10.6857 6.06122 10.8637 5.98382 10.995 5.84604C11.1263 5.70826 11.2 5.52138 11.2 5.32653C11.2 5.13168 11.1263 4.9448 10.995 4.80702C10.8637 4.66924 10.6857 4.59184 10.5 4.59184C10.3143 4.59184 10.1363 4.66924 10.005 4.80702C9.87375 4.9448 9.8 5.13168 9.8 5.32653C9.8 5.52138 9.87375 5.70826 10.005 5.84604C10.1363 5.98382 10.3143 6.06122 10.5 6.06122ZM7.7 2.38776C7.7 2.58261 7.62625 2.76948 7.49497 2.90726C7.3637 3.04504 7.18565 3.12245 7 3.12245C6.81435 3.12245 6.6363 3.04504 6.50503 2.90726C6.37375 2.76948 6.3 2.58261 6.3 2.38776C6.3 2.1929 6.37375 2.00603 6.50503 1.86825C6.6363 1.73047 6.81435 1.65306 7 1.65306C7.18565 1.65306 7.3637 1.73047 7.49497 1.86825C7.62625 2.00603 7.7 2.1929 7.7 2.38776ZM7.7 5.32653C7.7 5.52138 7.62625 5.70826 7.49497 5.84604C7.3637 5.98382 7.18565 6.06122 7 6.06122C6.81435 6.06122 6.6363 5.98382 6.50503 5.84604C6.37375 5.70826 6.3 5.52138 6.3 5.32653C6.3 5.13168 6.37375 4.9448 6.50503 4.80702C6.6363 4.66924 6.81435 4.59184 7 4.59184C7.18565 4.59184 7.3637 4.66924 7.49497 4.80702C7.62625 4.9448 7.7 5.13168 7.7 5.32653ZM3.5 3.12245C3.68565 3.12245 3.8637 3.04504 3.99497 2.90726C4.12625 2.76948 4.2 2.58261 4.2 2.38776C4.2 2.1929 4.12625 2.00603 3.99497 1.86825C3.8637 1.73047 3.68565 1.65306 3.5 1.65306C3.31435 1.65306 3.1363 1.73047 3.00503 1.86825C2.87375 2.00603 2.8 2.1929 2.8 2.38776C2.8 2.58261 2.87375 2.76948 3.00503 2.90726C3.1363 3.04504 3.31435 3.12245 3.5 3.12245ZM3.5 6.06122C3.68565 6.06122 3.8637 5.98382 3.99497 5.84604C4.12625 5.70826 4.2 5.52138 4.2 5.32653C4.2 5.13168 4.12625 4.9448 3.99497 4.80702C3.8637 4.66924 3.68565 4.59184 3.5 4.59184C3.31435 4.59184 3.1363 4.66924 3.00503 4.80702C2.87375 4.9448 2.8 5.13168 2.8 5.32653C2.8 5.52138 2.87375 5.70826 3.00503 5.84604C3.1363 5.98382 3.31435 6.06122 3.5 6.06122Z" fill="var(--fill-0, black)"/>
</svg>
