<svg preserveAspectRatio="none" width="100%" height="100%" overflow="visible" style="display: block;" viewBox="0 0 15 8" fill="none" xmlns="http://www.w3.org/2000/svg">
<g id="Criteo-Logo-Orange">
<path id="Path" d="M14.8283 7.36301L13.4506 5.31968C13.3995 5.24413 13.3808 5.15132 13.3985 5.0619C13.4163 4.97247 13.4691 4.89385 13.5451 4.84353C14.1761 4.4208 14.5719 3.6645 14.5719 2.79213C14.5719 1.29835 13.3222 0.116626 11.7823 0.116626H8.47193C8.41183 0.116626 8.3542 0.140526 8.31174 0.183059C8.26928 0.225591 8.24548 0.283264 8.24558 0.343363V1.79141C8.24527 1.85107 8.2917 1.90054 8.35126 1.90401C9.4715 1.96435 10.3711 2.9301 10.3711 4.03189C10.3711 5.14406 9.46189 6.08905 8.35126 6.149C8.2917 6.15248 8.24527 6.20194 8.24558 6.2616V7.66622C8.24558 7.79124 8.34692 7.89258 8.47193 7.89258H10.3954C10.5204 7.89258 10.6217 7.79124 10.6217 7.66622V6.98947C10.6217 6.50717 11.0383 6.39034 11.3569 6.7685L12.1639 7.77882C12.2364 7.85219 12.3352 7.89367 12.4383 7.89412H14.5458C14.6721 7.89478 14.7883 7.82538 14.8475 7.71392C14.9068 7.60246 14.8994 7.46732 14.8283 7.36301Z" fill="var(--fill-0, white)"/>
<path id="Path_2" d="M4.24 0C5.44978 0 6.53274 0.516501 7.30672 1.34006C7.34872 1.38565 7.37022 1.44644 7.36623 1.50829C7.36224 1.57015 7.3331 1.62767 7.28559 1.66748L6.18725 2.58789C6.09774 2.66179 5.96686 2.65615 5.88404 2.57482C5.44519 2.14413 4.85602 1.90102 4.24115 1.89691C3.06941 1.89691 2.12096 2.78964 2.12096 4.00557C2.12096 5.2215 3.06941 6.10347 4.24115 6.10347C4.85599 6.09921 5.4451 5.85612 5.88404 5.42557C5.96676 5.34412 6.09764 5.33832 6.18725 5.41212L7.28635 6.33252C7.33402 6.37221 7.3633 6.42972 7.36737 6.49161C7.37144 6.5535 7.34993 6.61435 7.30787 6.65994C6.53389 7.4835 5.45093 8 4.24115 8C1.89691 8 0 6.31522 0 4.00557C0 1.69592 1.89691 0 4.24 0Z" fill="var(--fill-0, white)"/>
</g>
</svg>
