<svg preserveAspectRatio="none" width="100%" height="100%" overflow="visible" style="display: block;" viewBox="0 0 14 15" fill="none" xmlns="http://www.w3.org/2000/svg">
<path id="Vector" d="M8.98584 6.01078C9.8745 6.90413 10.5996 8.36648 10.1843 9.23077C9.07348 11.5523 0.785858 15.6216 0.0804579 14.9185C-0.622598 14.2154 3.4495 5.92266 5.76818 4.80949C6.63482 4.39703 8.09483 5.12914 8.98818 6.01078L8.98584 6.02062V6.01078ZM13.3771 5.03447C13.2332 4.49967 12.8644 3.9602 12.315 3.89692C11.3092 3.77975 9.72029 5.55941 9.83232 5.98172C9.94715 6.41386 12.188 7.15348 13.0204 6.55541C13.4526 6.2456 13.5088 5.5791 13.3673 5.04665L13.3771 5.03447ZM10.2574 0.0980751C11.0069 0.300555 11.7638 0.815661 11.8538 1.58715C12.0151 3.00076 9.52016 5.22429 8.92678 5.06587C8.33621 4.90698 7.291 1.76291 8.13561 0.588808C8.57009 -0.0191009 9.50985 -0.102061 10.2593 0.0957316V0.0980751H10.2574Z" fill="var(--fill-0, white)"/>
</svg>
