<svg width="44" height="40" viewBox="0 0 44 40" fill="none" xmlns="http://www.w3.org/2000/svg">
<path d="M12 0.5H32C38.3513 0.5 43.5 5.64873 43.5 12V28C43.5 34.3513 38.3513 39.5 32 39.5H12C5.64873 39.5 0.5 34.3513 0.5 28V12C0.5 5.64873 5.64873 0.5 12 0.5Z" fill="#F9F9F6"/>
<path d="M12 0.5H32C38.3513 0.5 43.5 5.64873 43.5 12V28C43.5 34.3513 38.3513 39.5 32 39.5H12C5.64873 39.5 0.5 34.3513 0.5 28V12C0.5 5.64873 5.64873 0.5 12 0.5Z" stroke="#E8E8E3"/>
<path d="M28.5 21.6V18.9256C28.5 18.2712 28.5 17.9448 28.3765 17.6504C28.253 17.3568 28.0182 17.1248 27.5477 16.6624L23.6998 12.8736C23.2943 12.4744 23.092 12.2752 22.8401 12.1568C22.788 12.1321 22.7346 12.1102 22.6801 12.0912C22.4176 12 22.1308 12 21.558 12C18.9214 12 17.6027 12 16.7098 12.7088C16.5295 12.852 16.3653 13.0137 16.2199 13.1912C15.5 14.072 15.5 15.3688 15.5 17.9648V21.6C15.5 24.6168 15.5 26.1256 16.4522 27.0624C17.4045 27.9992 18.9361 28 22 28M22.8125 12.4V12.8C22.8125 15.0624 22.8125 16.1944 23.5267 16.8968C24.2401 17.6 25.3897 17.6 27.6875 17.6H28.0938M26.0625 28C26.5557 27.528 28.5 26.272 28.5 25.6C28.5 24.928 26.5557 23.672 26.0625 23.2M27.6875 25.6H22" stroke="#072929" stroke-linecap="round" stroke-linejoin="round"/>
</svg>
