<svg width="255" height="176" viewBox="0 0 255 176" fill="none" xmlns="http://www.w3.org/2000/svg">
<g filter="url(#filter0_d_1019_121073)">
<rect x="40" y="20" width="175" height="96" rx="12" fill="#FCFCF9"/>
<rect x="40.5" y="20.5" width="174" height="95" rx="11.5" stroke="#E3E3E3"/>
<rect x="52" y="40" width="20" height="20" rx="3.2" fill="#072929"/>
<path d="M67 51.2V49.1942C67 48.7034 67 48.4586 66.9145 48.2378C66.829 48.0176 66.6664 47.8436 66.3407 47.4968L63.6768 44.6552C63.3961 44.3558 63.256 44.2064 63.0816 44.1176C63.0455 44.0991 63.0085 44.0827 62.9708 44.0684C62.7891 44 62.5906 44 62.194 44C60.3687 44 59.4557 44 58.8376 44.5316C58.7127 44.639 58.599 44.7603 58.4984 44.8934C58 45.554 58 46.5266 58 48.4736V51.2C58 53.4626 58 54.5942 58.6592 55.2968C59.3185 55.9994 60.3788 56 62.5 56M63.0625 44.3V44.6C63.0625 46.2968 63.0625 47.1458 63.5569 47.6726C64.0508 48.2 64.8467 48.2 66.4375 48.2H66.7188M65.3125 56C65.6539 55.646 67 54.704 67 54.2C67 53.696 65.6539 52.754 65.3125 52.4M66.4375 54.2H62.5" stroke="#F9F9F6" stroke-linecap="round" stroke-linejoin="round"/>
<path d="M82.34 53.54H86.564V54.5H81.2V45.98H86.48V46.94H82.34V49.652H86.276V50.612H82.34V53.54ZM87.5277 54.5L89.6997 51.404L87.6837 48.5H88.8837L89.9757 50.192C90.1797 50.516 90.2877 50.708 90.3237 50.816H90.3357C90.3837 50.696 90.4917 50.492 90.6717 50.192L91.7037 48.5H92.9517L90.9717 51.476L93.1077 54.5H91.8957L90.6597 52.652C90.4677 52.364 90.3477 52.136 90.3237 52.04H90.3117C90.2877 52.124 90.1797 52.328 89.9637 52.652L88.7397 54.5H87.5277ZM94.3691 56.84V48.5H95.3291V49.616C95.7131 48.788 96.4091 48.356 97.2851 48.356C98.7371 48.356 99.7091 49.604 99.7091 51.5C99.7091 53.42 98.6771 54.644 97.2251 54.644C96.3011 54.644 95.6531 54.14 95.3891 53.552V56.84H94.3691ZM95.3651 51.632C95.3651 52.928 95.9891 53.744 96.9851 53.744C98.0051 53.744 98.6291 52.904 98.6291 51.5C98.6291 50.084 98.0291 49.256 97.0211 49.256C96.0131 49.256 95.3651 50.048 95.3651 51.344V51.632ZM103.586 54.644C101.894 54.644 100.79 53.456 100.79 51.5C100.79 49.544 101.894 48.356 103.586 48.356C105.278 48.356 106.382 49.544 106.382 51.5C106.382 53.456 105.278 54.644 103.586 54.644ZM101.87 51.5C101.87 52.988 102.506 53.756 103.586 53.756C104.666 53.756 105.302 52.988 105.302 51.5C105.302 50.012 104.666 49.244 103.586 49.244C102.506 49.244 101.87 50.012 101.87 51.5ZM108.946 49.868C109.234 49.028 109.858 48.356 110.77 48.356C110.842 48.356 110.914 48.356 110.986 48.368V49.364H110.938C110.314 49.364 109.906 49.544 109.618 49.832C109.042 50.408 109.018 51.212 109.018 51.932V54.5H107.998V48.5H108.946V49.868ZM111.645 49.34V48.5H112.761V46.928L113.781 46.496V48.5H115.281V49.34H113.781V52.664C113.781 53.348 114.045 53.648 114.657 53.648C114.921 53.648 115.077 53.612 115.281 53.564V54.5C115.017 54.572 114.777 54.608 114.393 54.608C113.097 54.608 112.761 53.816 112.761 52.7V49.34H111.645ZM118.993 54.5L122.221 45.98H123.349L126.577 54.5H125.401L124.525 52.04H121.045L120.169 54.5H118.993ZM121.381 51.08H124.189L123.001 47.756C122.929 47.564 122.869 47.36 122.797 47.108H122.773C122.701 47.36 122.641 47.564 122.569 47.756L121.381 51.08ZM128.858 45.8V54.5H127.838V45.8H128.858ZM132.034 45.8V54.5H131.014V45.8H132.034Z" fill="#072929"/>
<rect x="52" y="76" width="20" height="20" rx="3.2" fill="#072929"/>
<path d="M67 87.2V85.1942C67 84.7034 67 84.4586 66.9145 84.2378C66.829 84.0176 66.6664 83.8436 66.3407 83.4968L63.6768 80.6552C63.3961 80.3558 63.256 80.2064 63.0816 80.1176C63.0455 80.0991 63.0085 80.0827 62.9708 80.0684C62.7891 80 62.5906 80 62.194 80C60.3687 80 59.4557 80 58.8376 80.5316C58.7127 80.639 58.599 80.7603 58.4984 80.8934C58 81.554 58 82.5266 58 84.4736V87.2C58 89.4626 58 90.5942 58.6592 91.2968C59.3185 91.9994 60.3788 92 62.5 92M63.0625 80.3V80.6C63.0625 82.2968 63.0625 83.1458 63.5569 83.6726C64.0508 84.2 64.8467 84.2 66.4375 84.2H66.7188M65.3125 92C65.6539 91.646 67 90.704 67 90.2C67 89.696 65.6539 88.754 65.3125 88.4M66.4375 90.2H62.5" stroke="#F9F9F6" stroke-linecap="round" stroke-linejoin="round"/>
<path d="M82.34 89.54H86.564V90.5H81.2V81.98H86.48V82.94H82.34V85.652H86.276V86.612H82.34V89.54ZM87.5277 90.5L89.6997 87.404L87.6837 84.5H88.8837L89.9757 86.192C90.1797 86.516 90.2877 86.708 90.3237 86.816H90.3357C90.3837 86.696 90.4917 86.492 90.6717 86.192L91.7037 84.5H92.9517L90.9717 87.476L93.1077 90.5H91.8957L90.6597 88.652C90.4677 88.364 90.3477 88.136 90.3237 88.04H90.3117C90.2877 88.124 90.1797 88.328 89.9637 88.652L88.7397 90.5H87.5277ZM94.3691 92.84V84.5H95.3291V85.616C95.7131 84.788 96.4091 84.356 97.2851 84.356C98.7371 84.356 99.7091 85.604 99.7091 87.5C99.7091 89.42 98.6771 90.644 97.2251 90.644C96.3011 90.644 95.6531 90.14 95.3891 89.552V92.84H94.3691ZM95.3651 87.632C95.3651 88.928 95.9891 89.744 96.9851 89.744C98.0051 89.744 98.6291 88.904 98.6291 87.5C98.6291 86.084 98.0291 85.256 97.0211 85.256C96.0131 85.256 95.3651 86.048 95.3651 87.344V87.632ZM103.586 90.644C101.894 90.644 100.79 89.456 100.79 87.5C100.79 85.544 101.894 84.356 103.586 84.356C105.278 84.356 106.382 85.544 106.382 87.5C106.382 89.456 105.278 90.644 103.586 90.644ZM101.87 87.5C101.87 88.988 102.506 89.756 103.586 89.756C104.666 89.756 105.302 88.988 105.302 87.5C105.302 86.012 104.666 85.244 103.586 85.244C102.506 85.244 101.87 86.012 101.87 87.5ZM108.946 85.868C109.234 85.028 109.858 84.356 110.77 84.356C110.842 84.356 110.914 84.356 110.986 84.368V85.364H110.938C110.314 85.364 109.906 85.544 109.618 85.832C109.042 86.408 109.018 87.212 109.018 87.932V90.5H107.998V84.5H108.946V85.868ZM111.645 85.34V84.5H112.761V82.928L113.781 82.496V84.5H115.281V85.34H113.781V88.664C113.781 89.348 114.045 89.648 114.657 89.648C114.921 89.648 115.077 89.612 115.281 89.564V90.5C115.017 90.572 114.777 90.608 114.393 90.608C113.097 90.608 112.761 89.816 112.761 88.7V85.34H111.645ZM123.193 90.704C120.553 90.704 119.353 88.688 119.353 86.216C119.353 83.6 120.697 81.776 123.229 81.776C125.305 81.776 126.385 83 126.601 84.764L125.437 84.884C125.269 83.6 124.489 82.748 123.169 82.748C121.501 82.748 120.553 84.14 120.553 86.204C120.553 88.196 121.453 89.708 123.193 89.708C124.405 89.708 125.257 88.904 125.497 87.632L126.601 87.824C126.277 89.432 125.245 90.704 123.193 90.704ZM130.038 90.644C128.526 90.644 127.986 89.732 127.986 88.328V84.5H129.006V88.208C129.006 89.216 129.438 89.768 130.23 89.768C131.19 89.768 131.838 88.952 131.838 87.728V84.5H132.858V90.5H131.898V89.372C131.622 90.104 130.878 90.644 130.038 90.644ZM135.969 85.868C136.257 85.028 136.881 84.356 137.793 84.356C137.865 84.356 137.937 84.356 138.009 84.368V85.364H137.961C137.337 85.364 136.929 85.544 136.641 85.832C136.065 86.408 136.041 87.212 136.041 87.932V90.5H135.021V84.5H135.969V85.868ZM140.282 85.868C140.57 85.028 141.194 84.356 142.106 84.356C142.178 84.356 142.25 84.356 142.322 84.368V85.364H142.274C141.65 85.364 141.242 85.544 140.954 85.832C140.378 86.408 140.354 87.212 140.354 87.932V90.5H139.334V84.5H140.282V85.868ZM145.784 90.644C144.068 90.644 143.048 89.552 143.048 87.572C143.048 85.568 144.056 84.356 145.772 84.356C147.392 84.356 148.328 85.28 148.328 87.08V87.8H144.068C144.08 88.976 144.788 89.744 145.856 89.744C146.624 89.744 147.188 89.336 147.452 88.604L148.292 88.976C147.872 90.068 146.996 90.644 145.784 90.644ZM144.068 86.972H147.296V86.84C147.296 85.736 146.732 85.16 145.748 85.16C144.692 85.16 144.092 85.844 144.068 86.972ZM150.01 90.5V84.5H150.97V85.688C151.366 84.788 152.026 84.356 152.974 84.356C154.294 84.356 154.978 85.172 154.978 86.768V90.5H153.958V86.828C153.958 85.772 153.514 85.232 152.638 85.232C151.642 85.232 151.03 86.036 151.03 87.368V90.5H150.01ZM155.942 85.34V84.5H157.058V82.928L158.078 82.496V84.5H159.578V85.34H158.078V88.664C158.078 89.348 158.342 89.648 158.954 89.648C159.218 89.648 159.374 89.612 159.578 89.564V90.5C159.314 90.572 159.074 90.608 158.69 90.608C157.394 90.608 157.058 89.816 157.058 88.7V85.34H155.942ZM166.241 90.5L163.289 81.98H164.489L166.529 88.244C166.697 88.748 166.781 89.084 166.841 89.396H166.889C166.949 89.084 167.033 88.748 167.201 88.244L169.241 81.98H170.441L167.489 90.5H166.241ZM171.701 90.5V84.5H172.721V90.5H171.701ZM171.629 83.384V82.1H172.793V83.384H171.629ZM177.073 90.644C175.357 90.644 174.337 89.552 174.337 87.572C174.337 85.568 175.345 84.356 177.061 84.356C178.681 84.356 179.617 85.28 179.617 87.08V87.8H175.357C175.369 88.976 176.077 89.744 177.145 89.744C177.913 89.744 178.477 89.336 178.741 88.604L179.581 88.976C179.161 90.068 178.285 90.644 177.073 90.644ZM175.357 86.972H178.585V86.84C178.585 85.736 178.021 85.16 177.037 85.16C175.981 85.16 175.381 85.844 175.357 86.972ZM182.152 90.5L180.46 84.5H181.516L182.596 88.784C182.644 89 182.692 89.252 182.728 89.492H182.752C182.788 89.252 182.86 89 182.908 88.784L184 84.5H185.104L186.196 88.784C186.244 89 186.316 89.252 186.352 89.492H186.376C186.412 89.252 186.46 89 186.508 88.784L187.588 84.5H188.644L186.952 90.5H185.836L184.696 86.18C184.648 85.988 184.588 85.688 184.564 85.508H184.54C184.516 85.688 184.456 85.988 184.408 86.18L183.268 90.5H182.152Z" fill="#072929"/>
</g>
<defs>
<filter id="filter0_d_1019_121073" x="0" y="0" width="255" height="176" filterUnits="userSpaceOnUse" color-interpolation-filters="sRGB">
<feFlood flood-opacity="0" result="BackgroundImageFix"/>
<feColorMatrix in="SourceAlpha" type="matrix" values="0 0 0 0 0 0 0 0 0 0 0 0 0 0 0 0 0 0 127 0" result="hardAlpha"/>
<feOffset dy="20"/>
<feGaussianBlur stdDeviation="20"/>
<feComposite in2="hardAlpha" operator="out"/>
<feColorMatrix type="matrix" values="0 0 0 0 0 0 0 0 0 0 0 0 0 0 0 0 0 0 0.1 0"/>
<feBlend mode="normal" in2="BackgroundImageFix" result="effect1_dropShadow_1019_121073"/>
<feBlend mode="normal" in="SourceGraphic" in2="effect1_dropShadow_1019_121073" result="shape"/>
</filter>
</defs>
</svg>
