<svg preserveAspectRatio="none" width="100%" height="100%" overflow="visible" style="display: block;" viewBox="0 0 17 17" fill="none" xmlns="http://www.w3.org/2000/svg">
<path id="Vector" d="M5.93761 7.22109C6.03265 7.16623 6.11156 7.08731 6.16642 6.99227C6.22127 6.89723 6.25014 6.78942 6.25011 6.67969V1.05469C6.24956 0.955043 6.22518 0.856976 6.17902 0.768665C6.13286 0.680355 6.06626 0.604362 5.98476 0.547024C5.90326 0.489685 5.80924 0.452664 5.71053 0.439048C5.61181 0.425432 5.51128 0.435616 5.4173 0.46875C3.59307 1.11439 2.05896 2.38957 1.09075 4.06505C0.122549 5.74054 -0.216246 7.70645 0.135271 9.60938C0.153491 9.70778 0.195075 9.80037 0.256525 9.87936C0.317975 9.95834 0.397495 10.0214 0.488396 10.0633C0.570314 10.1016 0.659682 10.1213 0.750114 10.1211C0.859812 10.1211 0.967589 10.0923 1.06261 10.0375L5.93761 7.22109ZM5.00011 2.00156V6.31875L1.25949 8.47734C1.25011 8.35937 1.25011 8.24063 1.25011 8.125C1.25122 6.85809 1.6019 5.61606 2.26355 4.53566C2.92519 3.45525 3.87213 2.57837 5.00011 2.00156ZM16.2501 8.125C16.2507 9.90869 15.6644 11.643 14.5815 13.0604C13.4987 14.4778 11.9795 15.4995 10.2584 15.9678C8.53724 16.4361 6.70984 16.325 5.0581 15.6517C3.40637 14.9784 2.0221 13.7803 1.11886 12.2422C1.07676 12.1711 1.04915 12.0925 1.03763 12.0107C1.02612 11.9289 1.03092 11.8457 1.05177 11.7657C1.07262 11.6858 1.1091 11.6109 1.1591 11.5451C1.2091 11.4794 1.27164 11.4242 1.34308 11.3828L7.50011 7.79922V0.625C7.50011 0.45924 7.56596 0.300268 7.68317 0.183058C7.80038 0.065848 7.95935 0 8.12511 0C9.54298 0.000723448 10.936 0.372292 12.1659 1.07782C13.3957 1.78334 14.4197 2.79828 15.1361 4.02188C15.1446 4.03438 15.1525 4.04688 15.1603 4.06016C15.1681 4.07344 15.1759 4.08906 15.1829 4.10312C15.884 5.32747 16.2519 6.71416 16.2501 8.125Z" fill="var(--fill-0, black)"/>
</svg>
