<svg preserveAspectRatio="none" width="100%" height="100%" overflow="visible" style="display: block;" viewBox="0 0 40 36" fill="none" xmlns="http://www.w3.org/2000/svg">
<path id="Vector" d="M39.1213 24.6774C39.1213 31.3548 32.7708 36 20.7484 36C12.1678 36 5.18709 33.5806 0 29.1774L4.45992 23.9032C8.62898 27.7258 14.01 29.5161 20.9423 29.5161C27.8745 29.5161 31.3164 28.2097 31.3164 25.4032C31.3164 22.5968 27.8261 21.8226 20.0212 21.1452C10.3257 20.3226 1.30889 18.1935 1.30889 10.9355C1.30889 3.67742 8.87137 0 19.3425 0C26.7596 0 33.1586 1.83871 37.4731 5.17742L33.2071 10.5484C29.4743 7.69355 24.8689 6.53226 19.3425 6.48387C14.7371 6.43548 9.11376 7.25806 9.11376 10.3548C9.11376 13.2581 13.9615 13.5484 20.6999 14.0806C31.5104 14.9516 39.1213 17.2258 39.1213 24.6774Z" fill="var(--fill-0, #072929)"/>
</svg>
