<svg preserveAspectRatio="none" width="100%" height="100%" overflow="visible" style="display: block;" viewBox="0 0 110 30" fill="none" xmlns="http://www.w3.org/2000/svg">
<g id="Group">
<path id="Vector" d="M15.1377 29.5976H14.4621V8.13802e-05H15.1377V29.5976Z" fill="var(--fill-0, #072929)"/>
<path id="Vector_2" d="M29.5976 15.1362H0V14.4605H29.5976V15.1362Z" fill="var(--fill-0, #072929)"/>
<path id="Vector_3" d="M25.0257 25.5019L4.09709 4.57331L4.57486 4.09554L25.5035 25.0242L25.0257 25.5019Z" fill="var(--fill-0, #072929)"/>
<path id="Vector_4" d="M4.57486 25.5019L4.09709 25.0242L25.0257 4.09554L25.5035 4.57331L4.57486 25.5019Z" fill="var(--fill-0, #072929)"/>
<path id="Vector_5" d="M11.2959 29.1804L10.6432 29.0056L18.3036 0.416504L18.9562 0.591375L11.2959 29.1804Z" fill="var(--fill-0, #072929)"/>
<path id="Vector_6" d="M29.0053 18.9572L0.41762 11.2918L0.592604 10.6392L29.1803 18.3046L29.0053 18.9572Z" fill="var(--fill-0, #072929)"/>
<path id="Vector_7" d="M21.9057 27.7837L7.10693 2.15146L7.69208 1.81364L22.4909 27.4459L21.9057 27.7837Z" fill="var(--fill-0, #072929)"/>
<path id="Vector_8" d="M2.15179 22.4913L1.81396 21.9062L27.4462 7.10742L27.784 7.69253L2.15179 22.4913Z" fill="var(--fill-0, #072929)"/>
<path id="Vector_9" d="M7.69208 27.7845L7.10693 27.4467L21.9057 1.81445L22.4909 2.15228L7.69208 27.7845Z" fill="var(--fill-0, #072929)"/>
<path id="Vector_10" d="M27.4462 22.4905L1.81396 7.69172L2.15179 7.10661L27.784 21.9054L27.4462 22.4905Z" fill="var(--fill-0, #072929)"/>
<path id="Vector_11" d="M18.3037 29.1798L10.6433 0.590805L11.296 0.415934L18.9563 29.005L18.3037 29.1798Z" fill="var(--fill-0, #072929)"/>
<path id="Vector_12" d="M0.592351 18.9565L0.41748 18.3038L29.0065 10.6434L29.1814 11.296L0.592351 18.9565Z" fill="var(--fill-0, #072929)"/>
<path id="Vector_13" d="M105.912 10.7134C107.97 10.7134 109.382 12.0774 109.621 14.4943L108.042 15.0208C107.851 13.3217 106.965 12.4124 105.649 12.4124C103.711 12.4124 102.49 14.0157 102.49 16.648V23.3005H100.671V11.2159H102.227L102.395 13.1064H102.418C103.088 11.6466 104.38 10.7134 105.912 10.7134Z" fill="var(--fill-0, #072929)"/>
<path id="Vector_14" d="M91.8365 23.7788C89.0846 23.7788 87.1704 22.2951 87.1704 20.1415C87.1704 18.2031 88.7019 16.6477 92.6264 16.1691L95.6176 15.8101C96.2158 15.7383 96.5988 15.4033 96.5988 14.8769C96.5988 13.3693 95.1629 12.3882 93.057 12.3882C90.7836 12.3882 89.1804 13.8479 89.0846 15.2837L87.4335 14.5897C87.649 12.6035 89.9941 10.737 93.1287 10.737C96.2158 10.737 98.3933 12.4599 98.3933 15.164V23.3002H96.7422L96.5509 21.2901H96.5268C95.6655 22.8216 93.9903 23.7788 91.8365 23.7788ZM92.1479 22.1277C94.6843 22.1277 96.5509 20.4765 96.5509 18.1313V17.2698L92.8177 17.7245C89.8982 18.0835 88.9891 19.0168 88.9891 20.1175C88.9891 21.338 90.3051 22.1277 92.1479 22.1277Z" fill="var(--fill-0, #072929)"/>
<path id="Vector_15" d="M83.6825 23.3003V5.71175H85.5011V23.3003H83.6825Z" fill="var(--fill-0, #072929)"/>
<path id="Vector_16" d="M79.4763 23.3003V5.71175H81.295V23.3003H79.4763Z" fill="var(--fill-0, #072929)"/>
<path id="Vector_17" d="M71.9328 23.7788C68.0804 23.7788 65.2564 20.979 65.2564 17.1263C65.2564 13.4172 67.8407 10.737 71.4305 10.737C74.972 10.737 77.2933 13.4172 77.3412 17.1502C77.3412 17.3656 77.3412 17.6288 77.3171 17.8681H67.1471C67.4101 20.3807 69.3484 22.1277 71.957 22.1277C73.8473 22.1277 75.4505 21.1465 76.1207 19.8303L77.7001 20.4765C76.9102 22.4148 74.6368 23.7788 71.9328 23.7788ZM67.1709 16.2648H75.4029C75.1633 13.8 73.6081 12.4121 71.4063 12.4121C69.1571 12.4121 67.506 13.9675 67.1709 16.2648Z" fill="var(--fill-0, #072929)"/>
<path id="Vector_18" d="M60.2024 23.7788C57.929 23.7788 56.3976 22.2472 56.3976 20.0457V12.7231H53.7415V11.2155H56.3976V7.62603L58.2162 7.19531V11.2155H63.6243V12.7231H58.2162V19.8542C58.2162 21.2183 59.0537 22.1994 60.37 22.1994C61.5905 22.1994 62.7151 21.314 62.9544 19.7585L64.4379 20.3807C64.1032 22.4865 62.2604 23.7788 60.2024 23.7788Z" fill="var(--fill-0, #072929)"/>
<path id="Vector_19" d="M47.4506 23.8985C43.5498 23.8985 40.5348 21.4576 40.1518 17.9878L42.1142 17.6288C42.2818 20.2612 44.5073 22.1277 47.4506 22.1277C50.1067 22.1277 51.734 20.7158 51.734 18.8732C51.734 17.3895 50.681 16.5041 48.2163 15.9298L45.4881 15.3076C42.4969 14.6137 41.0851 13.2497 41.0851 11.0003C41.0851 7.96116 43.3585 5.83138 46.8045 5.83138C49.8912 5.83138 52.2363 7.76971 52.7152 10.5934L50.8245 11.0721C50.5852 9.01405 48.982 7.60218 46.8282 7.60218C44.531 7.60218 43.0713 8.91834 43.0713 10.6652C43.0713 12.101 43.9808 12.9146 46.1104 13.3932L48.8382 14.0154C52.0929 14.7333 53.7202 16.2648 53.7202 18.5621C53.7202 21.6491 51.2554 23.8985 47.4506 23.8985Z" fill="var(--fill-0, #072929)"/>
</g>
</svg>
